<svg xmlns="http://www.w3.org/2000/svg" width="400" height="145.057" viewBox="0 0 400 145.057">
    <defs>
        <clipPath id="z325fyqhya">
            <path data-name="사각형 96" style="fill:none" d="M0 0h400v145.057H0z"/>
        </clipPath>
        <clipPath id="av3ohknogb">
            <path data-name="사각형 88" style="fill:none" d="M0 0h35.054v14.394H0z"/>
        </clipPath>
        <clipPath id="27c647xn2c">
            <path data-name="사각형 89" style="fill:none" d="M0 0h37.112v16.344H0z"/>
        </clipPath>
        <clipPath id="lg3tkvufyd">
            <path data-name="사각형 90" style="fill:none" d="M0 0h37.325v18.534H0z"/>
        </clipPath>
        <clipPath id="3ifqbu8iae">
            <path data-name="사각형 91" style="fill:none" d="M0 0h33.507v20.504H0z"/>
        </clipPath>
        <clipPath id="d0rrzm5rlf">
            <path data-name="사각형 92" style="fill:none" d="M0 0h26.137v22.375H0z"/>
        </clipPath>
    </defs>
    <g data-name="그룹 139" style="clip-path:url(#z325fyqhya)">
        <g data-name="그룹 138" style="clip-path:url(#z325fyqhya)">
            <path data-name="패스 436" d="M10.991 181.136v.306a30.506 30.506 0 0 0 .189 3.517 14.133 14.133 0 0 0 .8 3.29 17.62 17.62 0 0 0 1.7 3.288 27.755 27.755 0 0 0 2.887 3.631 1.877 1.877 0 0 1 .476 1.512 2.764 2.764 0 0 1-.591 1.472 2.335 2.335 0 0 1-1.339.82 1.848 1.848 0 0 1-1.645-.594 15.116 15.116 0 0 1-3.1-3.687 31.523 31.523 0 0 1-1.719-3.308q-.345.8-.88 1.777t-1.147 1.93a20.527 20.527 0 0 1-1.4 1.892 10.466 10.466 0 0 1-1.51 1.511 1.877 1.877 0 0 1-1.6.5 2.579 2.579 0 0 1-1.414-.725 2.394 2.394 0 0 1-.69-1.432 2.085 2.085 0 0 1 .574-1.665 27.576 27.576 0 0 0 2.932-3.671 17.45 17.45 0 0 0 1.7-3.288 13.429 13.429 0 0 0 .8-3.212 28.9 28.9 0 0 0 .19-3.439v-.42H2.158a1.473 1.473 0 0 1-1.32-.67 2.8 2.8 0 0 1 .02-3.042 1.583 1.583 0 0 1 1.416-.687h12.54a1.512 1.512 0 0 1 1.339.687 2.976 2.976 0 0 1 .5 1.531 2.778 2.778 0 0 1-.422 1.51 1.432 1.432 0 0 1-1.3.67zm8.028 3.555v-6.461a1.387 1.387 0 0 1-.707-.688 2.827 2.827 0 0 1-.248-1.263v-1.032h5.66v31.009a1.587 1.587 0 0 1-.747 1.455 3.041 3.041 0 0 1-1.625.458 2.945 2.945 0 0 1-1.606-.458 1.525 1.525 0 0 1-.727-1.377v-17.247h-3.363a1.329 1.329 0 0 1-1.188-.667 2.8 2.8 0 0 1-.418-1.511 2.72 2.72 0 0 1 .363-1.531 1.336 1.336 0 0 1 1.243-.687zm6.5-9.445H30.3v30.972a1.629 1.629 0 0 1-.764 1.453 2.962 2.962 0 0 1-1.645.5 2.712 2.712 0 0 1-1.625-.44 1.662 1.662 0 0 1-.745-1.51z" transform="translate(0 -63.148)" style="fill:#fff"/>
            <path data-name="패스 437" d="M59.963 181.524a1.572 1.572 0 0 1-1.377-.651 2.472 2.472 0 0 1-.458-1.453 2.549 2.549 0 0 1 .458-1.471 1.559 1.559 0 0 1 1.377-.67h6.118v26.191a1.321 1.321 0 0 1 .859.649 2.113 2.113 0 0 1 .326 1.11v.993h-7.073v-.993a1.909 1.909 0 0 1 .344-1.11 1.594 1.594 0 0 1 .8-.649v-21.946z" transform="translate(-20.946 -63.881)" style="fill:#fff"/>
            <path data-name="패스 438" d="M100.533 182.419a6.107 6.107 0 0 1 1.375 1.991 6.866 6.866 0 0 1 .69 3.057 6.415 6.415 0 0 1-.555 2.678 7.344 7.344 0 0 1-1.509 2.178 9.055 9.055 0 0 1-2.181 1.608 10.151 10.151 0 0 1-2.6.957v2.907h6.881a1.715 1.715 0 0 1 1.473.7 2.512 2.512 0 0 1 .517 1.512 2.557 2.557 0 0 1-.5 1.53 1.68 1.68 0 0 1-1.453.687H84.242a1.715 1.715 0 0 1-1.49-.687 2.573 2.573 0 0 1 0-3.042 1.7 1.7 0 0 1 1.49-.7H90.9v-2.907a10.084 10.084 0 0 1-2.62-.976 8.657 8.657 0 0 1-2.158-1.625 6.535 6.535 0 0 1-2.027-4.819 7.055 7.055 0 0 1 .669-3.057 5.543 5.543 0 0 1 1.4-1.991h-2.22a1.422 1.422 0 0 1-1.3-.665 2.718 2.718 0 0 1-.422-1.475 2.8 2.8 0 0 1 .422-1.49 1.408 1.408 0 0 1 1.3-.688h6.729v-3.212h5.2v3.21h6.884a1.422 1.422 0 0 1 1.279.688 2.722 2.722 0 0 1 .439 1.49 2.645 2.645 0 0 1-.439 1.475 1.437 1.437 0 0 1-1.279.665zm-2.754 4.055a3.933 3.933 0 0 0-1.279-3.021 4.475 4.475 0 0 0-3.156-1.183 4.153 4.153 0 0 0-4.4 4.244 3.911 3.911 0 0 0 1.261 3.075 4.519 4.519 0 0 0 3.135 1.13 4.385 4.385 0 0 0 3.212-1.205 4.093 4.093 0 0 0 1.224-3.04m8.8-8.373a1.4 1.4 0 0 1-.709-.689 2.816 2.816 0 0 1-.249-1.262v-1.033h5.813v30.936a1.662 1.662 0 0 1-.765 1.49 3.123 3.123 0 0 1-3.346.019 1.592 1.592 0 0 1-.745-1.435z" transform="translate(-29.626 -63.02)" style="fill:#fff"/>
            <path data-name="패스 439" d="M265.7 197.691v8.564a1.616 1.616 0 0 1-.766 1.472 3.1 3.1 0 0 1-1.682.478 3 3 0 0 1-1.662-.478 1.626 1.626 0 0 1-.747-1.472v-8.564H253.2a1.357 1.357 0 0 1-1.224-.688 2.9 2.9 0 0 1-.419-1.531 3.019 3.019 0 0 1 .4-1.51 1.4 1.4 0 0 1 1.32-.7h20.533a1.218 1.218 0 0 1 1.165.7 2.967 2.967 0 0 1 .326 1.51 3.108 3.108 0 0 1-.384 1.531 1.156 1.156 0 0 1-1.032.688zm6.118-10.728a7.8 7.8 0 0 1-2.027 2.547 8.453 8.453 0 0 1-2.944 1.6 11.688 11.688 0 0 1-3.557.533 11.251 11.251 0 0 1-3.611-.571 8.907 8.907 0 0 1-2.965-1.646 7.726 7.726 0 0 1-1.988-2.58A7.621 7.621 0 0 1 254 183.5a7.508 7.508 0 0 1 .725-3.327 7.587 7.587 0 0 1 2.028-2.559 9.132 9.132 0 0 1 2.943-1.664 10.712 10.712 0 0 1 3.593-.592 11.134 11.134 0 0 1 3.519.552 9.165 9.165 0 0 1 2.983 1.626 7.8 7.8 0 0 1 2.027 2.543 7.465 7.465 0 0 1 .765 3.421 7.544 7.544 0 0 1-.765 3.459m-5.411-6.248a4.9 4.9 0 0 0-3.117-1.033 4.961 4.961 0 0 0-3.135 1.012 3.713 3.713 0 0 0 0 5.641 5.362 5.362 0 0 0 6.252-.019 3.632 3.632 0 0 0 0-5.6m10-2.486a1.394 1.394 0 0 1-.708-.689 2.816 2.816 0 0 1-.248-1.262v-1.033h5.813v30.973a1.618 1.618 0 0 1-.766 1.472 3.1 3.1 0 0 1-1.682.477 3 3 0 0 1-1.663-.477 1.554 1.554 0 0 1-.747-1.393z" transform="translate(-90.645 -63.148)" style="fill:#fff"/>
            <path data-name="패스 440" d="M322.743 176.508v13.916a3.927 3.927 0 0 1-1.145 3.041 4.576 4.576 0 0 1-3.212 1.053h-7.533a4.425 4.425 0 0 1-3.134-1.034 3.816 3.816 0 0 1-1.111-2.941v-11.054a1.367 1.367 0 0 1-.706-.687 2.815 2.815 0 0 1-.249-1.261v-1.032zm-11.736 20.3h5.81v5.892a1.256 1.256 0 0 0 .211.84 1.04 1.04 0 0 0 .784.23h14.721a1.538 1.538 0 0 1 1.376.689 2.707 2.707 0 0 1 .46 1.529 2.423 2.423 0 0 1-.421 1.511 1.563 1.563 0 0 1-1.376.667h-16.4a4.354 4.354 0 0 1-3.117-1.033 3.86 3.86 0 0 1-1.09-2.942v-4.4a1.38 1.38 0 0 1-.707-.688 2.808 2.808 0 0 1-.248-1.261zm6.88-15.906h-6.423v8.333a1.128 1.128 0 0 0 .154.729.956.956 0 0 0 .651.151h4.7a1.113 1.113 0 0 0 .726-.17.963.963 0 0 0 .191-.71zm10.747-2.677a1.384 1.384 0 0 1-.708-.689 2.789 2.789 0 0 1-.248-1.262v-1.033h5.812v21.72a1.871 1.871 0 0 1-.767 1.644 2.927 2.927 0 0 1-3.344.017 1.8 1.8 0 0 1-.745-1.585z" transform="translate(-110.139 -63.148)" style="fill:#fff"/>
            <path data-name="패스 441" d="M385.461 199.926a1.631 1.631 0 0 1 1.416.709 2.589 2.589 0 0 1 .5 1.509 2.705 2.705 0 0 1-.458 1.529 1.58 1.58 0 0 1-1.414.688h-27.611a1.666 1.666 0 0 1-1.472-.688 2.428 2.428 0 0 1-.44-1.529 2.6 2.6 0 0 1 .495-1.509 1.631 1.631 0 0 1 1.418-.709zm-11.2-22.824v3.629a9.113 9.113 0 0 0 .69 3.461 12.31 12.31 0 0 0 1.95 3.232 16.979 16.979 0 0 0 3.078 2.736 17.266 17.266 0 0 0 3.958 2.042 1.888 1.888 0 0 1 1.2 1.169 2.394 2.394 0 0 1 .06 1.547 2.3 2.3 0 0 1-1.034 1.226 2.248 2.248 0 0 1-1.911.076 16.213 16.213 0 0 1-3.631-1.473 21.4 21.4 0 0 1-3.06-2.046 19.8 19.8 0 0 1-2.371-2.143 10.575 10.575 0 0 1-1.489-1.948 15.787 15.787 0 0 1-1.609 2.047 17.283 17.283 0 0 1-2.367 2.121 23.646 23.646 0 0 1-3 1.948 17.925 17.925 0 0 1-3.612 1.494 2.33 2.33 0 0 1-1.951-.076 2.305 2.305 0 0 1-1.032-1.188 2.253 2.253 0 0 1 .037-1.585 2.086 2.086 0 0 1 1.3-1.205 16.775 16.775 0 0 0 7.3-5.01 9.879 9.879 0 0 0 2.368-6.041v-1.031a1.226 1.226 0 0 1-.669-.631 2.636 2.636 0 0 1-.285-1.281V177.1z" transform="translate(-128.274 -63.817)" style="fill:#fff"/>
            <path data-name="패스 442" d="M431.909 188.85a15.75 15.75 0 0 1-1.167 1.607q-.689.8-1.531 1.625a13.321 13.321 0 0 1-1.719 1.434 1.833 1.833 0 0 1-1.567.326 2.325 2.325 0 0 1-1.3-.861 2.26 2.26 0 0 1-.5-1.472 2.176 2.176 0 0 1 .879-1.627 20.231 20.231 0 0 0 3.384-3.784 9.627 9.627 0 0 0 1.588-3.978h-3.9a1.428 1.428 0 0 1-1.3-.669 2.893 2.893 0 0 1 .02-3.039 1.453 1.453 0 0 1 1.318-.689h4.016v-3.133h4.932v3.135h3.9a1.392 1.392 0 0 1 1.243.689 3.049 3.049 0 0 1 .478 1.529 2.561 2.561 0 0 1-.385 1.51 1.426 1.426 0 0 1-1.3.669h-3.787a6.858 6.858 0 0 0 1.492 3.594 34.316 34.316 0 0 0 3.479 3.824 2.586 2.586 0 0 1 .8 1.663 2.081 2.081 0 0 1-.421 1.435 2.138 2.138 0 0 1-1.2.841 2 2 0 0 1-1.624-.269 7.883 7.883 0 0 1-1.683-1.262 18.223 18.223 0 0 1-1.53-1.644 17.547 17.547 0 0 1-1.263-1.549 5.3 5.3 0 0 1-.687-1.165 8.115 8.115 0 0 1-.668 1.26m21.967 14.875a4.019 4.019 0 0 1-1.185 3.116 4.456 4.456 0 0 1-3.135 1.091h-13.345a5.253 5.253 0 0 1-3.345-1.07 3.546 3.546 0 0 1-1.357-2.946v-5.01a1.216 1.216 0 0 1-.669-.629 2.619 2.619 0 0 1-.285-1.281v-1.071h23.323zm-4.858-3.517h-12.651v2.564a1.019 1.019 0 0 0 .171.706 1.1 1.1 0 0 0 .744.174h10.784a1.2 1.2 0 0 0 .764-.174.958.958 0 0 0 .191-.706zm-2.332-18.01h2.828v-7.189h4.744v17.4a1.625 1.625 0 0 1-.746 1.472 3.236 3.236 0 0 1-1.625.514 3 3 0 0 1-1.645-.457 1.553 1.553 0 0 1-.727-1.414v-6.044h-2.828v6.081a1.511 1.511 0 0 1-.746 1.377 2.96 2.96 0 0 1-1.586.457 2.927 2.927 0 0 1-1.606-.457 1.554 1.554 0 0 1-.727-1.414v-14.53a1.38 1.38 0 0 1-.708-.688 2.817 2.817 0 0 1-.248-1.264v-1.033h5.621z" transform="translate(-152.83 -62.912)" style="fill:#fff"/>
            <path data-name="패스 443" d="M494.819 176.739a1.5 1.5 0 0 1 1.336.688 2.606 2.606 0 0 1 .462 1.49 2.678 2.678 0 0 1-.441 1.51 1.434 1.434 0 0 1-1.279.669h-1.837V193.9h2.1a1.483 1.483 0 0 1 1.3.687 2.648 2.648 0 0 1 .457 1.493 2.477 2.477 0 0 1-.4 1.511 1.554 1.554 0 0 1-1.395.667h-17.4a1.558 1.558 0 0 1-1.374-.667 2.585 2.585 0 0 1-.462-1.511 2.71 2.71 0 0 1 .44-1.493 1.465 1.465 0 0 1 1.32-.687h2.141v-12.8h-1.873a1.46 1.46 0 0 1-1.338-.669 2.548 2.548 0 0 1-.384-1.51 2.89 2.89 0 0 1 .5-1.49 1.5 1.5 0 0 1 1.338-.688zm-6.536 4.357h-3.709v12.81h3.709zm11.622-2.867a1.413 1.413 0 0 1-.709-.689 2.822 2.822 0 0 1-.248-1.262v-1.033h5.813v30.781a1.8 1.8 0 0 1-.765 1.569 3.116 3.116 0 0 1-1.682.572 2.648 2.648 0 0 1-1.664-.477 1.838 1.838 0 0 1-.745-1.625z" transform="translate(-171.483 -63.148)" style="fill:#fff"/>
            <path data-name="패스 444" d="M539.553 194.287a10.651 10.651 0 0 1-3.363-.555 8.83 8.83 0 0 1-3.021-1.7 8.554 8.554 0 0 1-2.217-2.849 8.892 8.892 0 0 1-.842-4 9 9 0 0 1 .8-3.879 8.766 8.766 0 0 1 2.1-2.852 9.676 9.676 0 0 1 3.039-1.756 10.306 10.306 0 0 1 3.5-.612 9.836 9.836 0 0 1 5.737 1.835 9.267 9.267 0 0 1 2.124 2.142 8.833 8.833 0 0 1 1.318 2.831h4.243v-4.662a1.4 1.4 0 0 1-.708-.688 2.864 2.864 0 0 1-.248-1.264v-1.033h5.813v21.835a1.7 1.7 0 0 1-.766 1.529 3.107 3.107 0 0 1-3.343.017 1.583 1.583 0 0 1-.748-1.433v-9.862h-4.206a8.328 8.328 0 0 1-1.281 2.962 9.754 9.754 0 0 1-2.122 2.2 9.3 9.3 0 0 1-2.734 1.338 10.587 10.587 0 0 1-3.08.458m4.588-9.063a4.619 4.619 0 0 0-1.376-3.5 4.49 4.49 0 0 0-3.212-1.319 4.331 4.331 0 0 0-3.325 1.357 4.824 4.824 0 0 0-1.26 3.421 4.686 4.686 0 0 0 1.3 3.5 4.446 4.446 0 0 0 3.251 1.281 4.794 4.794 0 0 0 2.044-.4 4.08 4.08 0 0 0 1.436-1.09 4.284 4.284 0 0 0 .859-1.51 5.456 5.456 0 0 0 .285-1.741m-8.792 11.588h5.812v5.887a1.271 1.271 0 0 0 .21.841 1.042 1.042 0 0 0 .783.23h14.721a1.541 1.541 0 0 1 1.377.688 2.689 2.689 0 0 1 .458 1.529 2.393 2.393 0 0 1-.419 1.511 1.563 1.563 0 0 1-1.378.668h-16.4a4.352 4.352 0 0 1-3.117-1.034 3.861 3.861 0 0 1-1.089-2.942v-4.4a1.382 1.382 0 0 1-.709-.688 2.814 2.814 0 0 1-.248-1.261z" transform="translate(-191.02 -63.148)" style="fill:#fff"/>
            <path data-name="패스 445" d="M594.03 178.037a10.142 10.142 0 0 0 1.777 6.118 16.34 16.34 0 0 0 4.874 4.32 1.991 1.991 0 0 1 .939 1.453 2.762 2.762 0 0 1-.288 1.608 2.42 2.42 0 0 1-1.243 1.052 2.1 2.1 0 0 1-1.816-.209 17.1 17.1 0 0 1-4.168-2.831 15.088 15.088 0 0 1-2.561-3.1 14.764 14.764 0 0 1-2.79 3.347 16.375 16.375 0 0 1-4.018 2.771 2.173 2.173 0 0 1-1.874.191 2.422 2.422 0 0 1-1.49-2.678 2.143 2.143 0 0 1 1.071-1.453 17.151 17.151 0 0 0 4.951-4.4 8.826 8.826 0 0 0 1.7-5.276 1.225 1.225 0 0 1-.668-.632 2.621 2.621 0 0 1-.287-1.281v-1.069h5.89zm15.07 16.673v9.4a3.813 3.813 0 0 1-1.184 3 4.615 4.615 0 0 1-3.177 1.05h-13.311a4.464 4.464 0 0 1-3.135-1.05 3.726 3.726 0 0 1-1.146-2.888v-6.613a1.209 1.209 0 0 1-.669-.633 2.49 2.49 0 0 1-.288-1.242v-1.024H592v3.172h12.236v-.422a1.176 1.176 0 0 1-.612-.611 2.384 2.384 0 0 1-.266-1.146v-.993zm-4.858 7.149H592v1.3a1.625 1.625 0 0 0 .117.692c.076.149.3.226.686.226H603.4c.381 0 .616-.077.708-.226a1.418 1.418 0 0 0 .132-.692zm.383-23.63a1.391 1.391 0 0 1-.708-.689 2.8 2.8 0 0 1-.249-1.262v-1.033h5.813V191.3a1.7 1.7 0 0 1-.767 1.531 3.115 3.115 0 0 1-3.343.018 1.586 1.586 0 0 1-.746-1.432z" transform="translate(-209.477 -63.148)" style="fill:#fff"/>
            <path data-name="패스 446" d="M160.953 175.436h-11.948V208.1h11.948c9.865 0 17.025-6.844 17.025-16.272 0-9.807-6.843-16.4-17.025-16.393m11.258 16.35c0 6.865-4.563 11.307-11.413 11.307h-6.026v-22.65h6.028c7.06 0 11.413 4.268 11.415 11.344" transform="translate(-53.692 -63.217)" style="fill:#fff"/>
            <path data-name="패스 447" d="M219.031 191.193a9.025 9.025 0 0 0 3.529-7.379c0-5.248-4.211-8.381-11.263-8.378h-12.955V208.1h13.185c7.968 0 12.727-3.488 12.727-9.33 0-3.493-1.711-5.972-5.223-7.574m-9.886-2.352a2.26 2.26 0 0 0-1.864 1.891 2.911 2.911 0 0 0 .459 2.129 2.005 2.005 0 0 0 1.326.841 21.116 21.116 0 0 0 2.44.2c2.568.113 5.3.229 6.505 2.508a4.3 4.3 0 0 1-.271 4.385c-.91 1.316-2.693 2.113-5.309 2.265-.335.019-.679.031-1.05.031h-7.274v-22.65h6.593c4.341 0 6.1 1.247 6.1 3.894a4.321 4.321 0 0 1-1.651 3.589 6.7 6.7 0 0 1-3.812.75 12.232 12.232 0 0 0-2.186.164" transform="translate(-71.471 -63.217)" style="fill:#fff"/>
            <path data-name="사각형 87" transform="translate(177.318)" style="fill:#fff" d="M0 0h.978v82.872H0z"/>
            <g data-name="그룹 125" style="opacity:.9">
                <g data-name="그룹 124">
                    <g data-name="그룹 123" style="clip-path:url(#av3ohknogb)" transform="translate(236.242 28.391)">
                        <path data-name="패스 448" d="M401.279 51.4q-.465-.6-.98-1.157l-.026-.026a17.18 17.18 0 0 0-1.057-1.051c-.01-.008-.018-.018-.028-.027a22.847 22.847 0 0 0-.366-.324l-.031-.028a21.952 21.952 0 0 0-1.13-.9l-.122-.086a19.85 19.85 0 0 0-1.1-.735c-.062-.038-.123-.076-.187-.113a17.719 17.719 0 0 0-.329-.193l-.224-.124a17.145 17.145 0 0 0-.521-.276l-.272-.138-.3-.141-.3-.138c-.1-.045-.178-.081-.27-.12a18.909 18.909 0 0 0-.53-.214c-.084-.033-.17-.063-.255-.1a11.792 11.792 0 0 0-.373-.134 7.87 7.87 0 0 0-.246-.084 29.927 29.927 0 0 0-.58-.182c-.058-.018-.117-.033-.175-.049q-.235-.067-.47-.125c-.075-.021-.15-.038-.226-.057-.171-.041-.343-.08-.516-.116l-.132-.028a16.53 16.53 0 0 0-.642-.116l-.2-.031c-.172-.026-.343-.05-.516-.071l-.175-.01q-.334-.038-.67-.065c-.048 0-.095-.006-.143-.01a20.476 20.476 0 0 0-.562-.031l-.189-.006c-.233-.006-.464-.01-.7-.008a18.227 18.227 0 0 0-7.4 1.623 17.876 17.876 0 0 0-1.957 1.036 18.172 18.172 0 0 0-2.926 2.22 17.991 17.991 0 0 0-5.136 8.529l2.932.984a15.125 15.125 0 0 1 29.185-.361l2.937-.938a17.9 17.9 0 0 0-3.1-6.079" transform="translate(-369.324 -44.385)" style="fill:#fff"/>
                    </g>
                </g>
            </g>
            <g data-name="그룹 128" style="opacity:.7">
                <g data-name="그룹 127">
                    <g data-name="그룹 126" style="clip-path:url(#27c647xn2c)" transform="translate(233.437 25.457)">
                        <path data-name="패스 449" d="M396.64 43.065a38.92 38.92 0 0 0-.447-.275l-.233-.136c-.137-.08-.275-.157-.414-.234-.073-.041-.144-.081-.22-.12-.2-.109-.411-.217-.62-.321l-.093-.044a19.01 19.01 0 0 0-.562-.264l-.215-.095a11.88 11.88 0 0 0-.481-.2 7.721 7.721 0 0 0-.2-.082q-.336-.134-.676-.258l-.05-.016a24.41 24.41 0 0 0-.645-.217l-.209-.065a15.733 15.733 0 0 0-.524-.154l-.2-.056c-.24-.063-.477-.125-.718-.18l-.025-.005c-.232-.054-.466-.1-.7-.149l-.216-.039a20.82 20.82 0 0 0-.763-.126 24.84 24.84 0 0 0-.746-.1h-.014a20.274 20.274 0 0 0-.739-.067l-.225-.015a17.53 17.53 0 0 0-.563-.028l-.226-.008a21.97 21.97 0 0 0-.771-.008A21.105 21.105 0 0 0 364.94 55.2l2.8.943a17.991 17.991 0 0 1 5.134-8.529 18.177 18.177 0 0 1 12.279-4.881c.234 0 .467 0 .7.008l.191.007c.188.008.375.017.562.031.047 0 .095 0 .142.009.225.017.449.039.672.064l.172.022c.173.021.345.044.516.072a15.752 15.752 0 0 1 .843.147c.044.008.087.019.132.028.172.036.345.076.516.116.077.017.151.036.226.055.157.04.314.082.47.126l.175.049c.195.056.388.118.581.182l.247.084c.123.043.247.088.371.133.086.031.17.064.255.1q.267.1.53.214l.27.12c.1.045.2.091.3.139l.3.141c.1.048.181.091.272.138.177.089.35.182.522.276.075.041.15.081.223.124q.166.093.329.193a17.51 17.51 0 0 1 1.411.933q.584.426 1.129.9l.035.028q.183.16.363.323l.03.027q.549.5 1.056 1.052a.121.121 0 0 1 .024.026c.343.37.671.757.981 1.157l2.353-1.778a21.15 21.15 0 0 0-4.7-4.435 21.057 21.057 0 0 0-.516-.345c-.065-.043-.132-.083-.2-.125" transform="translate(-364.939 -39.798)" style="fill:#fff"/>
                    </g>
                </g>
            </g>
            <g data-name="그룹 131" style="opacity:.5">
                <g data-name="그룹 130">
                    <g data-name="그룹 129" style="clip-path:url(#lg3tkvufyd)" transform="translate(230.435 22.325)">
                        <path data-name="패스 450" d="m388.544 35.4-.085-.017c-.221-.045-.444-.084-.666-.123l-.226-.039c-.2-.032-.395-.061-.594-.089l-.322-.042-.531-.06-.42-.038a22.202 22.202 0 0 0-.462-.036c-.181-.013-.361-.019-.543-.028l-.361-.017a25.69 25.69 0 0 0-.922-.01 24.269 24.269 0 0 0-23.167 17.526l3 1.007a21.106 21.106 0 0 1 20.192-15.4c.26 0 .514 0 .77.008l.228.009c.189.008.375.017.563.03.075 0 .15.007.225.013.246.019.494.041.739.068h.015c.251.027.5.06.747.1l.215.034c.184.028.365.059.547.093.072.013.145.026.216.041.236.046.469.094.7.146l.025.005c.241.058.478.118.718.181l.2.057c.176.05.351.1.525.153l.209.065c.216.07.432.141.645.216l.049.017c.228.082.453.169.677.257l.2.083c.161.067.322.135.481.2a31.767 31.767 0 0 1 .777.359l.093.044c.209.1.417.212.621.321l.219.12q.209.116.414.235a24.235 24.235 0 0 1 .681.41c.065.042.132.083.2.125.175.113.347.228.519.345l.083.057 1.825-2.558a24.341 24.341 0 0 0-7.471-3.5q-.769-.21-1.555-.371" transform="translate(-360.246 -34.902)" style="fill:#fff"/>
                    </g>
                </g>
            </g>
            <g data-name="그룹 134" style="opacity:.3">
                <g data-name="그룹 133">
                    <g data-name="그룹 132" style="clip-path:url(#3ifqbu8iae)" transform="translate(227.589 19.348)">
                        <path data-name="패스 451" d="M370.179 32.925c-.285.136-.565.278-.844.423l-.087.045c-.262.137-.521.28-.779.425-.043.024-.085.051-.128.074a23.12 23.12 0 0 0-.886.537q-.35.221-.693.45c-.056.036-.111.074-.166.112-.225.154-.447.309-.667.468l-.165.122c-.218.161-.435.323-.65.491-.05.039-.1.08-.147.119q-.326.258-.644.525c-.035.029-.068.06-.1.09a27.33 27.33 0 0 0-2.631 2.574l-.136.148c-.145.166-.286.335-.426.5-.083.1-.165.194-.247.292-.125.154-.246.312-.368.468-.092.117-.185.234-.273.353-.113.15-.222.3-.331.453-.095.13-.189.262-.28.394s-.2.295-.3.444-.187.283-.279.427-.185.293-.274.44-.183.3-.273.455-.168.29-.251.438-.176.319-.261.48c-.079.145-.155.29-.229.437-.087.168-.168.335-.252.505l-.206.431c-.081.178-.159.358-.238.536-.062.14-.124.281-.182.422-.08.191-.155.385-.23.579-.051.134-.1.264-.155.4-.08.219-.157.439-.232.661-.038.112-.079.223-.116.336-.09.27-.172.545-.251.821l2.847.956a24.27 24.27 0 0 1 23.169-17.526c.308 0 .616 0 .921.01.122 0 .24.012.359.017.183.008.363.015.544.028.155.009.31.024.462.036l.42.038.529.06.324.042c.2.028.4.057.6.089l.225.038c.223.04.446.079.667.124l.083.018c.523.106 1.044.228 1.555.368l.807-2.865a27.524 27.524 0 0 0-7.518-.979c-.922.008-1.831.066-2.727.163a27.282 27.282 0 0 0-8.868 2.508l-.011.005" transform="translate(-355.796 -30.247)" style="fill:#fff"/>
                    </g>
                </g>
            </g>
            <g data-name="그룹 137" style="opacity:.2">
                <g data-name="그룹 136">
                    <g data-name="그룹 135" style="clip-path:url(#d0rrzm5rlf)" transform="translate(224.713 16.522)">
                        <path data-name="패스 452" d="M354.427 47.382c.037-.113.077-.224.116-.336.075-.221.151-.443.232-.661.05-.133.1-.265.155-.4.075-.194.15-.388.229-.579.059-.142.122-.281.184-.423.079-.179.157-.358.24-.537.067-.144.137-.287.2-.431.083-.169.165-.338.252-.506.073-.147.15-.29.229-.436s.172-.321.26-.478.166-.294.251-.439.181-.3.273-.453.181-.3.275-.442.184-.285.279-.426.2-.3.3-.445.185-.263.28-.394c.11-.15.219-.3.332-.452.087-.119.18-.235.272-.352.122-.157.244-.313.368-.468.08-.1.163-.194.246-.292.14-.168.282-.338.426-.5.045-.051.091-.1.136-.148a27.23 27.23 0 0 1 2.633-2.576l.1-.089a25.347 25.347 0 0 1 .79-.644q.322-.251.65-.491l.164-.123q.33-.238.667-.466l.166-.113c.229-.154.459-.3.694-.45l.155-.1c.24-.15.485-.294.731-.435l.129-.076c.258-.145.516-.288.779-.425l.087-.045q.418-.219.844-.423a.031.031 0 0 0 .011-.005 27.292 27.292 0 0 1 8.867-2.507l-.326-2.99A30.278 30.278 0 0 0 351.3 47.239l2.877.965c.079-.276.161-.55.25-.822" transform="translate(-351.3 -25.829)" style="fill:#fff"/>
                    </g>
                </g>
            </g>
            <path data-name="패스 453" d="M413.994 110.944c-.419-.088-.839-.176-1.266-.263q-2.591-.532-5.394-1.029a217.965 217.965 0 0 0-10.582-1.595q-2.922-.367-5.982-.674-4.007-.4-8.226-.671c-.512-.033-1.025-.063-1.541-.093q-3.862-.219-7.872-.311-.767-.018-1.538-.031-1.767-.028-3.554-.029-2.071 0-4.111.04c-.516.008-1.028.02-1.54.032q-4.031.1-7.923.336-.772.047-1.539.1-4.188.276-8.177.686c-7.717.785-14.8 1.9-20.989 3.157-.428.086-.849.174-1.266.26-1.813.382-3.545.774-5.185 1.174q2.528-.367 5.185-.7c.42-.052.842-.1 1.266-.155 6.52-.784 13.561-1.4 20.989-1.819q4.017-.228 8.177-.379l1.539-.052q3.908-.124 7.923-.176c.512-.007 1.025-.013 1.54-.018q2.045-.02 4.111-.02 1.784 0 3.554.015.771.006 1.538.016 3.989.046 7.872.165l1.541.051q4.181.144 8.226.366 3.034.17 5.982.379 5.46.388 10.582.916 2.752.287 5.394.608c.424.051.845.1 1.266.158q2.438.306 4.774.645-2.274-.553-4.774-1.087" transform="translate(-114.339 -38.285)" style="fill:#fff"/>
            <path data-name="패스 454" d="M347.752 73.315h8.228v13.046q.766-.035 1.539-.065V72.685a38.24 38.24 0 0 1 7.872-2.032v15.426a384.88 384.88 0 0 1 1.54-.021v-15.6a36.071 36.071 0 0 1 3.833-.209h.055a36.081 36.081 0 0 1 3.833.209v15.6q.772.009 1.539.021V70.653a38.219 38.219 0 0 1 7.872 2.032V86.3c.514.021 1.028.042 1.538.065V73.312h8.228v13.536a191.606 191.606 0 0 1 21.956 2.725V74.545l-7.224-2.756.324-3.116 1.293-12.467L394.588 61l-3.907 1.2-3 .924-1.988.612-.415.128L379 65.8h-16.417l-6.283-1.93-.417-.128-1.983-.612-3-.924L346.994 61l-15.59-4.8 1.296 12.473.323 3.116-7.223 2.756v15.028a191.648 191.648 0 0 1 21.957-2.725z" transform="translate(-117.397 -20.253)" style="fill:#fff"/>
            <path data-name="패스 455" d="M380.982 62.86a2.284 2.284 0 0 1-.107.236h-.628l-1.091-.358-.149-.049a1.787 1.787 0 0 1 .107-.512 1.31 1.31 0 0 1 1.215-.969.8.8 0 0 1 .184.042 1.215 1.215 0 0 1 .469 1.611m16.518-6.927a.273.273 0 0 0-.236.042c-.208.176-.014.746.432 1.269.392.464.85.738 1.1.675a.224.224 0 0 0 .088-.042c.207-.177.013-.745-.431-1.271a1.907 1.907 0 0 0-.948-.674m-5.778-.768a3.248 3.248 0 0 0-.168-.013 1.161 1.161 0 0 0-1.306.818c-.072.544.467 1.066 1.208 1.165a1.771 1.771 0 0 0 .317.013 1.112 1.112 0 0 0 1.155-.818c.074-.544-.467-1.066-1.208-1.166m11.325 5.694-.412.128a14.069 14.069 0 0 0-1.6-3.588 14.233 14.233 0 0 0-1.1-1.511c.117.3.138.594-.115.746-.174.1-.642-.264-.817-.419-.138-.122-.9-1.1-1.217-1.51-.349-.381-1.9-1.713-2.451-1.35-.569.373 1.163 1.7-.122 2.065a2.294 2.294 0 0 1-1.652-.419c-.908-.626-1.073-1.387-2.043-1.885-.533-.271-1.946-.336-2.251.344-.269.6.138.993.076 1.541-.082.729-1.231 1.4-2.222 1.256-.592-.086-1.115-.853-1.355-.994-1.415-.828-2.775.159-3.072 1.66-.15.763.024 1.2-.716 1.893-.508.473-1.388.982-1.955.5-.419-.357-.4-.787-.6-1-.116-.13-.24-.286-.759-.017-.832.432-.954 1.48-1.033 2.309a7.654 7.654 0 0 1-.029 1.553c-.292-.093-.6-.2-.938-.305l-.692-.228-1.157-.379a14.6 14.6 0 0 1 2.189-4.762 13.562 13.562 0 0 1 1.867-2.133 13.89 13.89 0 0 1 2.258-1.682 16.227 16.227 0 0 1 5.186-1.964 14.5 14.5 0 0 1 8.183.769 14.89 14.89 0 0 1 2.473 1.278 15.057 15.057 0 0 1 2.2 1.73A14.156 14.156 0 0 1 401 56.6a14.6 14.6 0 0 1 2.055 4.258m-25.769-2.554c-.184-.084-.567.364-.855 1s-.372 1.217-.186 1.3.567-.365.856-1 .369-1.218.185-1.3m4.893-3.547a.407.407 0 0 0-.366-.26 1.54 1.54 0 0 0-.948.283c-.6.38-.984.986-.858 1.352.07.2.287.287.566.258a1.767 1.767 0 0 0 .748-.283c.6-.381.986-.986.858-1.352m5.8-2.094c.014-.309-.306-.508-.775-.537a2.254 2.254 0 0 0-.562.039c-.758.146-1.387.606-1.4 1.026-.017.349.4.558.972.535a2.366 2.366 0 0 0 .365-.038c.755-.146 1.384-.606 1.4-1.025m6.115.014c.067-.193-.421-.526-1.084-.746a3.31 3.31 0 0 0-.846-.176c-.256-.014-.436.026-.469.125-.063.193.422.528 1.084.746a2.838 2.838 0 0 0 1.045.176c.148-.011.245-.054.269-.125m-8.717 4.482a1.5 1.5 0 0 0-.8.168 1.264 1.264 0 0 0-.669 1.647 1.141 1.141 0 0 0 1.084.571 1.511 1.511 0 0 0 .65-.168 1.265 1.265 0 0 0 .669-1.647 1.109 1.109 0 0 0-.935-.572" transform="translate(-135.062 -18.171)" style="fill:#fff"/>
            <path data-name="패스 456" d="M488.716 30.8h-6.649v18.174h6.649c5.491 0 9.476-3.809 9.476-9.055 0-5.459-3.809-9.124-9.476-9.124m6.266 9.1a5.948 5.948 0 0 1-6.351 6.292h-3.354V33.581h3.352c3.93 0 6.353 2.375 6.353 6.315" transform="translate(-173.708 -11.097)" style="fill:#fff"/>
            <path data-name="패스 457" d="M521.043 39.566a5.028 5.028 0 0 0 1.964-4.107c0-2.922-2.345-4.666-6.271-4.664h-7.209v18.179h7.338c4.435 0 7.083-1.942 7.083-5.193a4.368 4.368 0 0 0-2.905-4.215m-5.5-1.31a1.262 1.262 0 0 0-1.038 1.053 1.622 1.622 0 0 0 .257 1.186 1.116 1.116 0 0 0 .738.467 11.526 11.526 0 0 0 1.358.112c1.431.064 2.948.129 3.622 1.4a2.392 2.392 0 0 1-.151 2.44 3.664 3.664 0 0 1-2.955 1.26 9.725 9.725 0 0 1-.585.018h-4.046V33.585h3.657c2.417 0 3.393.694 3.393 2.169a2.4 2.4 0 0 1-.918 2 3.749 3.749 0 0 1-2.121.416 6.806 6.806 0 0 0-1.217.091" transform="translate(-183.603 -11.097)" style="fill:#fff"/>
            <path data-name="패스 458" d="m484.361 81.131-2.659-9.7h1.215l2.091 8.162 1.92-8.162h1.362l1.9 8.135 2.116-8.135h1.194l-2.752 9.7h-1.229l-1.906-8.306-1.944 8.306z" transform="translate(-173.576 -25.741)" style="fill:#fff"/>
            <path data-name="패스 459" d="M510.24 76.2a5.322 5.322 0 0 1-1.176 3.624 3.929 3.929 0 0 1-3.122 1.376 3.888 3.888 0 0 1-3.109-1.376 6.189 6.189 0 0 1 0-7.261 3.892 3.892 0 0 1 3.109-1.376 3.933 3.933 0 0 1 3.122 1.376 5.372 5.372 0 0 1 1.176 3.637m-1.19 0a4.431 4.431 0 0 0-.846-2.843 2.769 2.769 0 0 0-2.248-1.1 2.733 2.733 0 0 0-2.237 1.1 5.2 5.2 0 0 0 0 5.687 2.735 2.735 0 0 0 2.237 1.1 2.771 2.771 0 0 0 2.248-1.1 4.4 4.4 0 0 0 .846-2.844" transform="translate(-180.767 -25.652)" style="fill:#fff"/>
            <path data-name="패스 460" d="M517.7 81.131v-9.7h1.719l2.831 8.36 2.83-8.36h1.747v9.7h-1.137v-8.294l-2.911 8.294h-1.057l-2.9-8.253v8.253z" transform="translate(-186.549 -25.741)" style="fill:#fff"/>
            <path data-name="패스 461" d="M535.133 81.131v-9.7h5.053v1.085h-3.928v3.042h3.6v1.071h-3.6v3.439h3.928v1.058z" transform="translate(-192.83 -25.741)" style="fill:#fff"/>
            <path data-name="패스 462" d="M545.846 81.131v-9.7h1.4l4.247 7.976v-7.971h1.124v9.7h-1.324l-4.323-8.086v8.081z" transform="translate(-196.69 -25.741)" style="fill:#fff"/>
            <path data-name="패스 463" d="M559.679 70.154h1.469V71.6a1.9 1.9 0 0 1-.4 1.163 1.928 1.928 0 0 1-1.073.714v-.806a.873.873 0 0 0 .47-.377 1.137 1.137 0 0 0 .166-.6h-.636z" transform="translate(-201.675 -25.279)" style="fill:#fff"/>
            <path data-name="패스 464" d="m570.533 71.479-.146.991a6.832 6.832 0 0 0-1.7-.212 2.067 2.067 0 0 0-1.3.378 1.235 1.235 0 0 0-.442 1.011 1.27 1.27 0 0 0 .647 1.125 15.082 15.082 0 0 0 1.428.794 3.863 3.863 0 0 1 1.489 1.19 2.721 2.721 0 0 1 .5 1.613 2.814 2.814 0 0 1-.449 1.654 2.623 2.623 0 0 1-1.144.88 4.564 4.564 0 0 1-1.74.3 5.254 5.254 0 0 1-1.826-.358l.105-.992a5.881 5.881 0 0 0 1.879.291 2.159 2.159 0 0 0 1.408-.476 1.511 1.511 0 0 0 .548-1.217 1.437 1.437 0 0 0-.634-1.275 9.767 9.767 0 0 0-1.442-.8 3.809 3.809 0 0 1-1.487-1.1 2.39 2.39 0 0 1-.5-1.494 2.322 2.322 0 0 1 .832-1.925 3.169 3.169 0 0 1 2.05-.668 6.759 6.759 0 0 1 1.006.079 5.522 5.522 0 0 1 .926.212" transform="translate(-203.851 -25.652)" style="fill:#fff"/>
            <path data-name="패스 465" d="m489.031 96.373-.08 1.018a4.379 4.379 0 0 0-1.824-.318 3.406 3.406 0 0 0-2.58 1.124 4.094 4.094 0 0 0-.965 2.832 4.021 4.021 0 0 0 .965 2.8 3.309 3.309 0 0 0 2.539 1.111 5.68 5.68 0 0 0 1.907-.223l.065.991a5.486 5.486 0 0 1-1.985.3 4.484 4.484 0 0 1-3.424-1.348 5.184 5.184 0 0 1-1.284-3.7 5.442 5.442 0 0 1 .608-2.632 4.3 4.3 0 0 1 1.666-1.714 4.824 4.824 0 0 1 2.446-.614 4.585 4.585 0 0 1 1.945.372" transform="translate(-173.815 -34.593)" style="fill:#fff"/>
            <path data-name="패스 466" d="M495.494 105.946v-9.7h1.125v4.127h4.524v-4.124h1.124v9.7h-1.124v-4.5h-4.524v4.5z" transform="translate(-178.546 -34.682)" style="fill:#fff"/>
            <path data-name="패스 467" d="m515.685 105.944-.938-2.486h-4.525l-.94 2.486h-1.216l3.889-9.7h1.11l3.862 9.7zm-1.309-3.466-1.893-4.986-1.889 4.986z" transform="translate(-183.077 -34.682)" style="fill:#fff"/>
            <path data-name="패스 468" d="M523.929 105.946v-9.7h1.718l2.832 8.36 2.829-8.36h1.746v9.7h-1.137v-8.3l-2.911 8.3h-1.058l-2.9-8.254v8.254z" transform="translate(-188.792 -34.682)" style="fill:#fff"/>
            <path data-name="패스 469" d="M541.358 105.946v-9.7h2.607a3.3 3.3 0 0 1 2.366.807 2.757 2.757 0 0 1 .781 2.077 2.677 2.677 0 0 1-.781 2.077 3.357 3.357 0 0 1-2.366.8H542.5v3.941zm1.137-8.612v3.6h1.336a2.305 2.305 0 0 0 1.549-.477 1.636 1.636 0 0 0 .514-1.322 1.679 1.679 0 0 0-.528-1.335 2.3 2.3 0 0 0-1.535-.464z" transform="translate(-195.073 -34.682)" style="fill:#fff"/>
            <path data-name="사각형 93" transform="translate(353.746 61.568)" style="fill:#fff" d="M0 0h1.124v9.695H0z"/>
            <path data-name="패스 470" d="M566.03 101.015a5.318 5.318 0 0 1-1.176 3.624 3.93 3.93 0 0 1-3.122 1.375 3.889 3.889 0 0 1-3.109-1.375 6.189 6.189 0 0 1 0-7.262A3.892 3.892 0 0 1 561.732 96a3.933 3.933 0 0 1 3.122 1.376 5.376 5.376 0 0 1 1.176 3.638m-1.189 0a4.425 4.425 0 0 0-.847-2.845 2.767 2.767 0 0 0-2.247-1.1 2.729 2.729 0 0 0-2.236 1.1 5.2 5.2 0 0 0 0 5.688 2.73 2.73 0 0 0 2.236 1.1 2.768 2.768 0 0 0 2.247-1.1 4.391 4.391 0 0 0 .847-2.843" transform="translate(-200.87 -34.593)" style="fill:#fff"/>
            <path data-name="패스 471" d="M573.491 105.946v-9.7h1.4l4.246 7.977v-7.974h1.125v9.7h-1.323l-4.326-8.081v8.081z" transform="translate(-206.652 -34.682)" style="fill:#fff"/>
            <path data-name="패스 472" d="m591.561 96.293-.146.993a6.839 6.839 0 0 0-1.705-.212 2.068 2.068 0 0 0-1.3.377 1.238 1.238 0 0 0-.442 1.011 1.27 1.27 0 0 0 .648 1.126 15.505 15.505 0 0 0 1.427.794 3.833 3.833 0 0 1 1.489 1.19 2.727 2.727 0 0 1 .5 1.613 2.8 2.8 0 0 1-.45 1.654 2.617 2.617 0 0 1-1.144.879 4.541 4.541 0 0 1-1.74.3 5.237 5.237 0 0 1-1.825-.358l.1-.992a5.865 5.865 0 0 0 1.879.292 2.153 2.153 0 0 0 1.408-.476 1.512 1.512 0 0 0 .55-1.215 1.44 1.44 0 0 0-.636-1.277 9.9 9.9 0 0 0-1.44-.8 3.811 3.811 0 0 1-1.49-1.1 2.391 2.391 0 0 1-.495-1.495 2.319 2.319 0 0 1 .833-1.923 3.167 3.167 0 0 1 2.049-.674 6.886 6.886 0 0 1 1.006.079 5.626 5.626 0 0 1 .925.211" transform="translate(-211.428 -34.594)" style="fill:#fff"/>
            <path data-name="패스 473" d="M597.685 105.946v-9.7h1.124v4.127h4.525v-4.124h1.124v9.7h-1.124v-4.5h-4.525v4.5z" transform="translate(-215.369 -34.682)" style="fill:#fff"/>
            <path data-name="사각형 94" transform="translate(391.099 61.568)" style="fill:#fff" d="M0 0h1.124v9.695H0z"/>
            <path data-name="패스 474" d="M616.336 105.946v-9.7h2.608a3.294 3.294 0 0 1 2.366.807 2.756 2.756 0 0 1 .781 2.077 2.676 2.676 0 0 1-.781 2.077 3.355 3.355 0 0 1-2.366.8h-1.469v3.941zm1.138-8.612v3.6h1.335a2.307 2.307 0 0 0 1.549-.477 1.638 1.638 0 0 0 .514-1.322 1.682 1.682 0 0 0-.527-1.335 2.305 2.305 0 0 0-1.536-.464z" transform="translate(-222.091 -34.682)" style="fill:#fff"/>
            <path data-name="패스 475" d="M132.258 39.611h-15.035v41.1h15.035c12.414 0 21.422-8.61 21.422-20.474 0-12.34-8.612-20.63-21.422-20.628m14.165 20.576c0 8.642-5.738 14.227-14.36 14.227h-7.581v-28.5h7.577c8.884 0 14.362 5.369 14.363 14.273" transform="translate(-42.24 -14.273)" style="fill:#fff"/>
            <path data-name="패스 476" d="M205.338 59.441a11.361 11.361 0 0 0 4.444-9.286c0-6.605-5.3-10.547-14.176-10.545h-16.3v41.1H195.9c10.028 0 16.015-4.39 16.015-11.74 0-4.393-2.153-7.515-6.573-9.528M192.9 56.479a2.846 2.846 0 0 0-2.346 2.379 3.646 3.646 0 0 0 .578 2.681A2.534 2.534 0 0 0 192.8 62.6a27.46 27.46 0 0 0 3.07.251c3.232.143 6.665.289 8.188 3.159a5.419 5.419 0 0 1-.34 5.517c-1.145 1.657-3.39 2.657-6.679 2.85-.424.024-.855.036-1.324.036h-9.15l-.005-28.5h8.294c5.463 0 7.668 1.568 7.668 4.9a5.432 5.432 0 0 1-2.076 4.518c-1.249.9-3.052.922-4.8.942a15.652 15.652 0 0 0-2.751.206" transform="translate(-64.612 -14.273)" style="fill:#fff"/>
            <path data-name="패스 477" d="M57.819 98.355h-.173c-3.686 0-5-1.879-5.253-5.089-.224-2.9-.5-20.131-.4-33.038.061-6.925.226-12.608.564-14.167.509-2.346 2.515-3.1 4.881-3.1a25.752 25.752 0 0 1 7.882 1.693 28.627 28.627 0 0 1 5.716 2.746 27.424 27.424 0 0 1 3.99 3.04c16.447 15.2 9.449 47.486-17.207 47.915" transform="translate(-18.728 -15.482)" style="fill:#fff"/>
            <path data-name="패스 478" d="M20.183 48.815a24.24 24.24 0 0 0-8.5-5.073 22.789 22.789 0 0 0-6.905-1.469c-2.058 0-3.812.649-4.25 2.7-.863 3.9-.457 37.489-.157 41.38.217 2.852 1.411 4.516 4.767 4.454 23.346-.375 29.477-28.679 15.047-41.993" transform="translate(-.002 -15.233)" style="fill:#fff"/>
            <path data-name="패스 479" d="M68.717 31.526a29.288 29.288 0 0 0-5.74-2.741 25.43 25.43 0 0 0-8.152-1.74c-4.018 0-5.3 2.032-5.678 3.738-.349 1.59-.514 7.325-.576 14.309-2.438-.212-3.354-1.665-3.533-4.018-.263-3.531-.629-34.029.132-37.565.418-1.861 2-2.467 3.881-2.467a20.674 20.674 0 0 1 6.273 1.345 22.2 22.2 0 0 1 7.722 4.6c6.839 6.32 8.584 16.353 5.673 24.544" transform="translate(-16.112 -.375)" style="fill:#fff"/>
        </g>
    </g>
</svg>
