<svg xmlns="http://www.w3.org/2000/svg" width="490" height="247" viewBox="0 0 490 247">
    <defs>
        <clipPath id="n8gnndb94a">
            <path data-name="사각형 1922" transform="translate(0 833)" style="fill:#fff;stroke:#707070" d="M0 0h490v247H0z"/>
        </clipPath>
        <clipPath id="an103axqtb">
            <path data-name="사각형 67" style="fill:none" d="M0 0h400v144.766H0z"/>
        </clipPath>
        <clipPath id="kvvwy69rmc">
            <path data-name="패스 374" d="M1.767 44.963c-.85 3.9-.453 37.417-.146 41.295.21 2.851 1.412 4.515 4.753 4.446 23.3-.375 29.417-28.619 15.022-41.912a24.2 24.2 0 0 0-8.5-5.06 22.679 22.679 0 0 0-6.884-1.468c-2.05 0-3.8.649-4.25 2.7" transform="translate(-1.255 -42.264)" style="fill:none"/>
        </clipPath>
        <clipPath id="10pky8adwe">
            <path data-name="패스 375" d="M46.421 3.5c-.768 3.53-.4 33.961-.134 37.49.2 2.579 1.284 4.086 4.318 4.044 21.163-.354 26.719-26 13.654-38.066a22.174 22.174 0 0 0-7.711-4.586A20.4 20.4 0 0 0 50.3 1.038c-1.878 0-3.463.608-3.874 2.462" transform="translate(-45.961 -1.038)" style="fill:none"/>
        </clipPath>
        <clipPath id="adxl65q04g">
            <path data-name="패스 376" d="M53.817 46.052c-.982 4.445-.508 42.676-.168 47.111.262 3.258 1.61 5.136 5.414 5.081 26.6-.425 33.592-32.659 17.17-47.826a27.8 27.8 0 0 0-9.689-5.765 25.743 25.743 0 0 0-7.86-1.684c-2.351 0-4.36.746-4.867 3.083" transform="translate(-53.231 -42.969)" style="fill:none"/>
        </clipPath>
        <linearGradient id="vm7mlu68kd" x1=".502" y1=".812" x2=".497" y2="-.007" gradientUnits="objectBoundingBox">
            <stop offset="0" stop-color="#ea6000"/>
            <stop offset=".1" stop-color="#ea6000"/>
            <stop offset=".257" stop-color="#e75a01"/>
            <stop offset=".462" stop-color="#de4904"/>
            <stop offset=".694" stop-color="#d12e0a"/>
            <stop offset=".944" stop-color="#be0912"/>
            <stop offset="1" stop-color="#ba0015"/>
        </linearGradient>
        <linearGradient id="ni6k509t0f" x1=".497" y1="-.007" x2=".502" y2=".812" gradientUnits="objectBoundingBox">
            <stop offset="0" stop-color="#00a0e1"/>
            <stop offset=".54" stop-color="#0070ba"/>
            <stop offset="1" stop-color="#004598"/>
        </linearGradient>
        <linearGradient id="bmf5yr6cyh" x1=".497" y1=".027" x2=".502" y2=".813" gradientUnits="objectBoundingBox">
            <stop offset="0" stop-color="#8cb808"/>
            <stop offset=".138" stop-color="#86b50a"/>
            <stop offset=".318" stop-color="#75ae10"/>
            <stop offset=".523" stop-color="#5aa31b"/>
            <stop offset=".744" stop-color="#349329"/>
            <stop offset=".978" stop-color="#057f3c"/>
            <stop offset="1" stop-color="#007d3e"/>
        </linearGradient>
    </defs>
    <g data-name="그룹 328" transform="translate(0 -833)" style="clip-path:url(#n8gnndb94a)">
        <g data-name="그룹 83">
            <g data-name="그룹 82" style="clip-path:url(#an103axqtb)" transform="translate(45 884.291)">
                <path data-name="패스 362" d="M12.224 181.124v.305a30.446 30.446 0 0 0 .188 3.51 14.105 14.105 0 0 0 .8 3.284 17.584 17.584 0 0 0 1.7 3.281 27.7 27.7 0 0 0 2.882 3.623 1.873 1.873 0 0 1 .475 1.508 2.758 2.758 0 0 1-.59 1.47 2.331 2.331 0 0 1-1.336.818 1.844 1.844 0 0 1-1.641-.592 15.088 15.088 0 0 1-3.092-3.68 31.471 31.471 0 0 1-1.716-3.3q-.345.8-.878 1.773t-1.143 1.926a20.555 20.555 0 0 1-1.394 1.888 10.471 10.471 0 0 1-1.507 1.509 1.875 1.875 0 0 1-1.6.5 2.573 2.573 0 0 1-1.411-.724 2.389 2.389 0 0 1-.688-1.429 2.08 2.08 0 0 1 .573-1.662 27.531 27.531 0 0 0 2.917-3.664 17.416 17.416 0 0 0 1.7-3.282 13.4 13.4 0 0 0 .8-3.206 28.842 28.842 0 0 0 .19-3.433v-.419H3.408a1.469 1.469 0 0 1-1.317-.668 2.793 2.793 0 0 1 .02-3.035 1.58 1.58 0 0 1 1.413-.686h12.515a1.509 1.509 0 0 1 1.336.686 2.97 2.97 0 0 1 .5 1.528 2.772 2.772 0 0 1-.421 1.507 1.428 1.428 0 0 1-1.3.668zm8.012 3.548v-6.449a1.384 1.384 0 0 1-.706-.686 2.822 2.822 0 0 1-.247-1.261v-1.03h5.648v30.947a1.584 1.584 0 0 1-.746 1.452 3.035 3.035 0 0 1-1.621.457 2.939 2.939 0 0 1-1.6-.457 1.522 1.522 0 0 1-.726-1.374v-17.213H16.88a1.326 1.326 0 0 1-1.185-.665 2.791 2.791 0 0 1-.418-1.508 2.714 2.714 0 0 1 .363-1.528 1.334 1.334 0 0 1 1.24-.686zm6.488-9.426h4.769v30.91a1.625 1.625 0 0 1-.763 1.45 2.955 2.955 0 0 1-1.641.5 2.706 2.706 0 0 1-1.621-.439 1.659 1.659 0 0 1-.744-1.507z" transform="translate(-.454 -63.372)" style="fill:#006e31"/>
                <path data-name="패스 363" d="M61.215 181.515a1.569 1.569 0 0 1-1.374-.65 2.467 2.467 0 0 1-.457-1.45 2.545 2.545 0 0 1 .457-1.468 1.556 1.556 0 0 1 1.374-.668h6.106v26.139a1.318 1.318 0 0 1 .857.648 2.109 2.109 0 0 1 .325 1.108v.991h-7.059v-.991a1.9 1.9 0 0 1 .343-1.108 1.588 1.588 0 0 1 .8-.648v-21.9z" transform="translate(-21.474 -64.108)" style="fill:#006e31"/>
                <path data-name="패스 364" d="M101.751 182.4a6.1 6.1 0 0 1 1.372 1.987 6.844 6.844 0 0 1 .688 3.051 6.4 6.4 0 0 1-.554 2.672 7.325 7.325 0 0 1-1.506 2.174 9.037 9.037 0 0 1-2.176 1.6 10.133 10.133 0 0 1-2.594.955v2.9h6.867a1.711 1.711 0 0 1 1.47.7 2.506 2.506 0 0 1 .516 1.508 2.551 2.551 0 0 1-.5 1.527 1.676 1.676 0 0 1-1.45.686h-18.39a1.712 1.712 0 0 1-1.488-.686 2.567 2.567 0 0 1 0-3.036 1.7 1.7 0 0 1 1.488-.7h6.639v-2.9a10.044 10.044 0 0 1-2.614-.974 8.636 8.636 0 0 1-2.155-1.622 6.525 6.525 0 0 1-2.023-4.81 7.042 7.042 0 0 1 .668-3.051A5.534 5.534 0 0 1 87.4 182.4h-2.212a1.418 1.418 0 0 1-1.3-.664 2.709 2.709 0 0 1-.421-1.471 2.792 2.792 0 0 1 .421-1.487 1.4 1.4 0 0 1 1.3-.687H91.9v-3.205h5.191v3.205h6.87a1.419 1.419 0 0 1 1.277.687 2.716 2.716 0 0 1 .439 1.487 2.636 2.636 0 0 1-.439 1.471 1.433 1.433 0 0 1-1.277.664zM99 186.45a3.925 3.925 0 0 0-1.277-3.014 4.467 4.467 0 0 0-3.15-1.181 4.144 4.144 0 0 0-4.388 4.235 3.9 3.9 0 0 0 1.259 3.069 4.51 4.51 0 0 0 3.129 1.128 4.373 4.373 0 0 0 3.205-1.2A4.083 4.083 0 0 0 99 186.45m8.778-8.356a1.4 1.4 0 0 1-.707-.688 2.809 2.809 0 0 1-.248-1.26v-1.031h5.8v30.874a1.66 1.66 0 0 1-.764 1.487 3.116 3.116 0 0 1-3.339.019 1.589 1.589 0 0 1-.744-1.432z" transform="translate(-30.185 -63.243)" style="fill:#006e31"/>
                <path data-name="패스 365" d="M266.93 197.645v8.547a1.613 1.613 0 0 1-.765 1.469 3.09 3.09 0 0 1-1.678.477 2.993 2.993 0 0 1-1.659-.477 1.623 1.623 0 0 1-.746-1.469v-8.547h-7.632a1.353 1.353 0 0 1-1.221-.688 2.893 2.893 0 0 1-.419-1.528 3.014 3.014 0 0 1 .4-1.507 1.4 1.4 0 0 1 1.317-.7h20.493a1.216 1.216 0 0 1 1.163.7 2.961 2.961 0 0 1 .326 1.507 3.1 3.1 0 0 1-.383 1.528 1.153 1.153 0 0 1-1.03.688zm6.105-10.707a7.791 7.791 0 0 1-2.023 2.542 8.435 8.435 0 0 1-2.939 1.6 11.661 11.661 0 0 1-3.55.532 11.229 11.229 0 0 1-3.6-.57 8.889 8.889 0 0 1-2.959-1.643 7.713 7.713 0 0 1-1.984-2.575 7.608 7.608 0 0 1-.723-3.339 7.5 7.5 0 0 1 .723-3.32 7.585 7.585 0 0 1 2.02-2.553 9.115 9.115 0 0 1 2.937-1.66 10.7 10.7 0 0 1 3.586-.591 11.114 11.114 0 0 1 3.512.551 9.15 9.15 0 0 1 2.977 1.623 7.787 7.787 0 0 1 2.023 2.538 7.451 7.451 0 0 1 .764 3.414 7.528 7.528 0 0 1-.764 3.452m-5.4-6.236a4.886 4.886 0 0 0-3.111-1.031 4.95 4.95 0 0 0-3.129 1.01 3.705 3.705 0 0 0 0 5.63 5.351 5.351 0 0 0 6.24-.019 3.624 3.624 0 0 0 0-5.59m9.979-2.481a1.392 1.392 0 0 1-.706-.688 2.81 2.81 0 0 1-.248-1.26v-1.031h5.8v30.911a1.615 1.615 0 0 1-.765 1.469 3.091 3.091 0 0 1-1.678.476 3 3 0 0 1-1.659-.476 1.551 1.551 0 0 1-.746-1.39z" transform="translate(-91.421 -63.372)" style="fill:#006e31"/>
                <path data-name="패스 366" d="M323.962 176.5v13.888a3.92 3.92 0 0 1-1.143 3.035 4.567 4.567 0 0 1-3.206 1.051H312.1a4.416 4.416 0 0 1-3.128-1.032 3.807 3.807 0 0 1-1.108-2.935v-11.028a1.367 1.367 0 0 1-.705-.686 2.81 2.81 0 0 1-.248-1.259V176.5zm-11.713 20.263h5.8v5.877a1.252 1.252 0 0 0 .211.839 1.041 1.041 0 0 0 .783.229h14.692a1.535 1.535 0 0 1 1.373.687 2.7 2.7 0 0 1 .46 1.526 2.418 2.418 0 0 1-.42 1.508 1.56 1.56 0 0 1-1.373.666H317.4a4.346 4.346 0 0 1-3.111-1.031 3.853 3.853 0 0 1-1.088-2.937v-4.388a1.376 1.376 0 0 1-.705-.687 2.8 2.8 0 0 1-.247-1.258zm6.867-15.874h-6.411v8.316a1.122 1.122 0 0 0 .153.726.948.948 0 0 0 .65.152h4.692a1.114 1.114 0 0 0 .725-.17.964.964 0 0 0 .191-.709zm10.725-2.672a1.381 1.381 0 0 1-.707-.688 2.784 2.784 0 0 1-.248-1.26v-1.031h5.8v21.682a1.867 1.867 0 0 1-.765 1.641 2.92 2.92 0 0 1-3.337.017 1.793 1.793 0 0 1-.743-1.583z" transform="translate(-110.983 -63.372)" style="fill:#006e31"/>
                <path data-name="패스 367" d="M386.657 199.88a1.628 1.628 0 0 1 1.413.708 2.584 2.584 0 0 1 .494 1.506 2.7 2.7 0 0 1-.457 1.526 1.576 1.576 0 0 1-1.411.688h-27.551a1.662 1.662 0 0 1-1.469-.688 2.422 2.422 0 0 1-.439-1.526 2.589 2.589 0 0 1 .494-1.506 1.627 1.627 0 0 1 1.414-.708zm-11.181-22.78v3.622a9.1 9.1 0 0 0 .688 3.454 12.282 12.282 0 0 0 1.946 3.225 16.943 16.943 0 0 0 3.071 2.73 17.235 17.235 0 0 0 3.95 2.038 1.884 1.884 0 0 1 1.2 1.166 2.384 2.384 0 0 1 .059 1.544 2.292 2.292 0 0 1-1.031 1.224 2.246 2.246 0 0 1-1.907.076 16.178 16.178 0 0 1-3.623-1.47 21.382 21.382 0 0 1-3.054-2.042 19.738 19.738 0 0 1-2.366-2.139 10.549 10.549 0 0 1-1.486-1.944 15.8 15.8 0 0 1-1.606 2.043 17.261 17.261 0 0 1-2.363 2.117 23.582 23.582 0 0 1-3 1.945 17.906 17.906 0 0 1-3.6 1.491 2.329 2.329 0 0 1-1.947-.076 2.3 2.3 0 0 1-1.03-1.186 2.248 2.248 0 0 1 .036-1.582 2.083 2.083 0 0 1 1.3-1.2 16.738 16.738 0 0 0 7.288-5 9.861 9.861 0 0 0 2.364-6.029v-1.028a1.222 1.222 0 0 1-.668-.629 2.628 2.628 0 0 1-.285-1.278V177.1z" transform="translate(-129.183 -64.043)" style="fill:#006e31"/>
                <path data-name="패스 368" d="M433.147 188.819a15.646 15.646 0 0 1-1.165 1.6q-.687.8-1.528 1.622a13.276 13.276 0 0 1-1.716 1.431 1.829 1.829 0 0 1-1.564.326 2.319 2.319 0 0 1-1.3-.859 2.253 2.253 0 0 1-.5-1.469 2.171 2.171 0 0 1 .877-1.623 20.165 20.165 0 0 0 3.377-3.776 9.6 9.6 0 0 0 1.584-3.969h-3.893a1.425 1.425 0 0 1-1.3-.668 2.886 2.886 0 0 1 .02-3.033 1.449 1.449 0 0 1 1.315-.687h4.008v-3.129h4.923v3.129h3.893a1.388 1.388 0 0 1 1.24.687 3.043 3.043 0 0 1 .477 1.526 2.556 2.556 0 0 1-.384 1.507 1.422 1.422 0 0 1-1.3.668h-3.779a6.844 6.844 0 0 0 1.489 3.586 34.28 34.28 0 0 0 3.472 3.816 2.58 2.58 0 0 1 .8 1.66 2.073 2.073 0 0 1-.419 1.432 2.133 2.133 0 0 1-1.2.84 1.994 1.994 0 0 1-1.621-.269 7.867 7.867 0 0 1-1.68-1.26 18.178 18.178 0 0 1-1.526-1.641 17.543 17.543 0 0 1-1.26-1.546 5.307 5.307 0 0 1-.686-1.163 8.113 8.113 0 0 1-.667 1.258m21.923 14.845a4.012 4.012 0 0 1-1.183 3.11 4.448 4.448 0 0 1-3.129 1.089h-13.32a5.242 5.242 0 0 1-3.325-1.059 3.539 3.539 0 0 1-1.355-2.94v-5a1.216 1.216 0 0 1-.668-.628 2.614 2.614 0 0 1-.284-1.279v-1.069h23.277zm-4.848-3.51h-12.616v2.559a1.018 1.018 0 0 0 .17.7 1.1 1.1 0 0 0 .742.174h10.762a1.194 1.194 0 0 0 .763-.174.956.956 0 0 0 .19-.7zm-2.327-17.974h2.822v-7.174h4.734v17.365a1.622 1.622 0 0 1-.744 1.47 3.23 3.23 0 0 1-1.622.513 2.991 2.991 0 0 1-1.642-.456 1.55 1.55 0 0 1-.726-1.411v-6.032h-2.822v6.069a1.508 1.508 0 0 1-.744 1.374 2.954 2.954 0 0 1-1.583.456 2.922 2.922 0 0 1-1.6-.456 1.55 1.55 0 0 1-.725-1.411v-14.5a1.376 1.376 0 0 1-.706-.686 2.809 2.809 0 0 1-.248-1.261v-1.031h5.609z" transform="translate(-153.826 -63.134)" style="fill:#006e31"/>
                <path data-name="패스 369" d="M496.036 176.735a1.5 1.5 0 0 1 1.333.687 2.6 2.6 0 0 1 .461 1.487 2.672 2.672 0 0 1-.44 1.507 1.431 1.431 0 0 1-1.277.667h-1.833v12.784h2.1a1.48 1.48 0 0 1 1.3.686 2.641 2.641 0 0 1 .456 1.49 2.473 2.473 0 0 1-.4 1.509 1.552 1.552 0 0 1-1.392.666h-17.366a1.555 1.555 0 0 1-1.371-.666 2.58 2.58 0 0 1-.461-1.509 2.7 2.7 0 0 1 .439-1.49 1.463 1.463 0 0 1 1.317-.686h2.137v-12.784h-1.869a1.457 1.457 0 0 1-1.336-.667 2.545 2.545 0 0 1-.384-1.507 2.89 2.89 0 0 1 .5-1.487 1.5 1.5 0 0 1 1.335-.687zm-6.523 4.348h-3.7v12.785h3.7zm11.6-2.861a1.41 1.41 0 0 1-.707-.688 2.81 2.81 0 0 1-.248-1.26v-1.031h5.8v30.72a1.792 1.792 0 0 1-.764 1.565 3.108 3.108 0 0 1-1.679.571 2.643 2.643 0 0 1-1.66-.476 1.835 1.835 0 0 1-.744-1.622z" transform="translate(-172.545 -63.372)" style="fill:#006e31"/>
                <path data-name="패스 370" d="M540.789 194.247a10.633 10.633 0 0 1-3.357-.554 8.8 8.8 0 0 1-3.014-1.7 8.535 8.535 0 0 1-2.213-2.843 8.874 8.874 0 0 1-.84-3.989 8.985 8.985 0 0 1 .8-3.871 8.746 8.746 0 0 1 2.1-2.846 9.68 9.68 0 0 1 3.034-1.753 10.31 10.31 0 0 1 3.492-.61 9.818 9.818 0 0 1 5.724 1.831 9.244 9.244 0 0 1 2.12 2.137 8.817 8.817 0 0 1 1.316 2.825h4.234v-4.655a1.4 1.4 0 0 1-.707-.686 2.847 2.847 0 0 1-.248-1.261v-1.031h5.8v21.791a1.691 1.691 0 0 1-.765 1.526 3.1 3.1 0 0 1-3.336.017 1.58 1.58 0 0 1-.746-1.431v-9.842h-4.2a8.305 8.305 0 0 1-1.278 2.956 9.7 9.7 0 0 1-2.118 2.193 9.267 9.267 0 0 1-2.728 1.335 10.557 10.557 0 0 1-3.073.457m4.578-9.045a4.612 4.612 0 0 0-1.373-3.491 4.484 4.484 0 0 0-3.205-1.316 4.324 4.324 0 0 0-3.319 1.355 4.814 4.814 0 0 0-1.258 3.414 4.677 4.677 0 0 0 1.3 3.493 4.436 4.436 0 0 0 3.244 1.279 4.788 4.788 0 0 0 2.04-.4 4.069 4.069 0 0 0 1.433-1.088 4.286 4.286 0 0 0 .857-1.507 5.448 5.448 0 0 0 .285-1.737m-8.775 11.565h5.8v5.877a1.269 1.269 0 0 0 .209.839 1.04 1.04 0 0 0 .781.229h14.692a1.538 1.538 0 0 1 1.375.687 2.686 2.686 0 0 1 .458 1.526 2.4 2.4 0 0 1-.419 1.508 1.56 1.56 0 0 1-1.375.666h-16.37a4.343 4.343 0 0 1-3.11-1.031 3.854 3.854 0 0 1-1.087-2.937v-4.388a1.383 1.383 0 0 1-.707-.687 2.81 2.81 0 0 1-.247-1.258z" transform="translate(-192.152 -63.371)" style="fill:#006e31"/>
                <path data-name="패스 371" d="M595.259 178.031a10.117 10.117 0 0 0 1.773 6.105 16.3 16.3 0 0 0 4.864 4.311 1.986 1.986 0 0 1 .936 1.45 2.748 2.748 0 0 1-.287 1.6 2.411 2.411 0 0 1-1.24 1.049 2.1 2.1 0 0 1-1.812-.209 17.05 17.05 0 0 1-4.16-2.825 15.045 15.045 0 0 1-2.556-3.09 14.711 14.711 0 0 1-2.785 3.341 16.347 16.347 0 0 1-4.01 2.765 2.169 2.169 0 0 1-1.87.19 2.416 2.416 0 0 1-1.487-2.672 2.135 2.135 0 0 1 1.069-1.45 17.116 17.116 0 0 0 4.94-4.389 8.807 8.807 0 0 0 1.7-5.265 1.22 1.22 0 0 1-.667-.631 2.613 2.613 0 0 1-.287-1.279v-1.062h5.878zm15.035 16.639v9.385a3.8 3.8 0 0 1-1.182 3 4.6 4.6 0 0 1-3.17 1.048h-13.28a4.455 4.455 0 0 1-3.129-1.048 3.719 3.719 0 0 1-1.144-2.882v-6.6a1.209 1.209 0 0 1-.667-.632 2.486 2.486 0 0 1-.288-1.24v-1.031h5.8v3.166h12.212v-.421a1.174 1.174 0 0 1-.611-.61 2.377 2.377 0 0 1-.266-1.143v-.991zm-4.848 7.135h-12.211v1.3a1.627 1.627 0 0 0 .116.69c.076.149.3.226.686.226h10.572c.38 0 .615-.077.706-.226a1.4 1.4 0 0 0 .133-.69zm.383-23.582a1.385 1.385 0 0 1-.707-.688 2.792 2.792 0 0 1-.248-1.26v-1.031h5.8v16.027a1.7 1.7 0 0 1-.765 1.528 3.109 3.109 0 0 1-3.336.019 1.583 1.583 0 0 1-.744-1.429z" transform="translate(-210.675 -63.372)" style="fill:#006e31"/>
                <path data-name="패스 372" d="M162.184 175.435H150.26v32.6h11.924c9.845 0 16.99-6.83 16.99-16.239 0-9.788-6.829-16.364-16.99-16.36m11.235 16.318c0 6.852-4.554 11.284-11.391 11.284h-6.014v-22.606h6.012c7.046 0 11.39 4.26 11.392 11.321" transform="translate(-54.337 -63.441)" style="fill:#006e31"/>
                <path data-name="패스 373" d="M220.244 191.16a9.007 9.007 0 0 0 3.522-7.364c0-5.238-4.2-8.364-11.241-8.362H199.6v32.6h13.158c7.952 0 12.7-3.481 12.7-9.311 0-3.486-1.707-5.961-5.212-7.559m-9.866-2.347a2.256 2.256 0 0 0-1.86 1.888 2.905 2.905 0 0 0 .458 2.125 2 2 0 0 0 1.323.839 21.07 21.07 0 0 0 2.435.2c2.562.113 5.285.229 6.492 2.5a4.293 4.293 0 0 1-.27 4.376c-.908 1.314-2.688 2.109-5.3 2.261-.334.019-.677.031-1.048.031h-7.26v-22.6h6.58c4.332 0 6.083 1.244 6.083 3.886a4.313 4.313 0 0 1-1.648 3.582 6.691 6.691 0 0 1-3.8.748 12.227 12.227 0 0 0-2.181.164" transform="translate(-72.178 -63.441)" style="fill:#006e31"/>
            </g>
        </g>
        <g data-name="그룹 85">
            <g data-name="그룹 84" style="clip-path:url(#kvvwy69rmc)" transform="translate(45.801 911.272)">
                <path data-name="사각형 68" transform="rotate(-89.454 24.084 24.656)" style="fill:url(#vm7mlu68kd)" d="M0 0h48.839v35.336H0z"/>
            </g>
        </g>
        <g data-name="그룹 87">
            <g data-name="그룹 86" style="clip-path:url(#10pky8adwe)" transform="translate(74.341 884.954)">
                <path data-name="사각형 69" transform="rotate(-89.454 21.864 22.385)" style="fill:url(#ni6k509t0f)" d="M0 0h44.339v32.09H0z"/>
            </g>
        </g>
        <g data-name="그룹 89">
            <g data-name="그룹 88" style="clip-path:url(#adxl65q04g)" transform="translate(78.981 911.721)">
                <path data-name="사각형 70" transform="rotate(-89.454 27.465 28.129)" style="fill:url(#bmf5yr6cyh)" d="M0 0h55.707v40.346H0z"/>
            </g>
        </g>
        <g data-name="그룹 91">
            <g data-name="그룹 90" style="clip-path:url(#an103axqtb)" transform="translate(45 884.291)">
                <path data-name="패스 377" d="M133.482 39.611h-15v41.02h15c12.389 0 21.379-8.593 21.379-20.433 0-12.316-8.594-20.588-21.379-20.586m14.136 20.534c0 8.625-5.727 14.2-14.33 14.2h-7.566V45.9h7.562c8.866 0 14.333 5.358 14.334 14.245" transform="translate(-42.844 -14.324)" style="fill:#006e31"/>
                <path data-name="패스 378" d="M206.541 59.4a11.338 11.338 0 0 0 4.435-9.267c0-6.591-5.291-10.526-14.147-10.524h-16.267v41.017h16.556c10.008 0 15.983-4.382 15.983-11.717 0-4.384-2.149-7.5-6.56-9.509m-12.414-2.956a2.841 2.841 0 0 0-2.341 2.374 3.638 3.638 0 0 0 .576 2.676 2.527 2.527 0 0 0 1.666 1.058 27.4 27.4 0 0 0 3.064.251c3.226.143 6.651.289 8.171 3.152a5.408 5.408 0 0 1-.339 5.506c-1.143 1.654-3.383 2.652-6.666 2.845a23.1 23.1 0 0 1-1.321.036h-9.131L187.8 45.9h8.277c5.452 0 7.653 1.566 7.653 4.89a5.422 5.422 0 0 1-2.072 4.51c-1.247.9-3.046.919-4.787.94a15.624 15.624 0 0 0-2.745.206" transform="translate(-65.295 -14.323)" style="fill:#006e31"/>
                <path data-name="사각형 71" transform="translate(177.763)" style="fill:#006e31" d="M0 0h.976v82.705H0z"/>
                <path data-name="패스 379" d="M402.47 51.386q-.464-.6-.978-1.154l-.026-.026a17.696 17.696 0 0 0-1.055-1.049c-.01-.008-.018-.018-.027-.027a22.716 22.716 0 0 0-.365-.323l-.031-.028c-.366-.312-.74-.61-1.127-.894-.041-.027-.081-.057-.122-.086a18.11 18.11 0 0 0-1.1-.733c-.061-.038-.122-.076-.186-.112-.109-.066-.218-.129-.328-.193l-.223-.124a17.09 17.09 0 0 0-.52-.276l-.271-.137-.3-.141c-.1-.047-.2-.093-.3-.137s-.178-.08-.269-.119a17.693 17.693 0 0 0-.529-.214c-.084-.033-.169-.063-.255-.1a9.668 9.668 0 0 0-.372-.133 22.848 22.848 0 0 0-.824-.265c-.058-.018-.117-.033-.175-.049q-.235-.067-.469-.124c-.075-.021-.149-.038-.226-.057-.171-.041-.343-.08-.515-.116l-.132-.028c-.211-.043-.425-.08-.641-.116l-.204-.025c-.172-.026-.343-.05-.514-.071l-.175-.022q-.333-.038-.668-.064c-.048 0-.094-.006-.142-.01a20.402 20.402 0 0 0-.561-.031l-.189-.006c-.232-.006-.463-.01-.7-.008a18.191 18.191 0 0 0-7.381 1.62 17.862 17.862 0 0 0-1.953 1.034 18.138 18.138 0 0 0-2.92 2.215 17.956 17.956 0 0 0-5.125 8.512l2.926.982a15.094 15.094 0 0 1 29.127-.361l2.931-.936a17.87 17.87 0 0 0-3.093-6.067" transform="translate(-134.009 -16.05)" style="fill:#c01"/>
                <path data-name="패스 380" d="M397.83 43.058a38.92 38.92 0 0 0-.447-.275l-.232-.136c-.137-.08-.275-.157-.413-.234-.073-.041-.144-.081-.219-.12-.2-.109-.411-.216-.619-.32l-.093-.044a21.887 21.887 0 0 0-.561-.264l-.214-.094c-.158-.07-.319-.137-.48-.2a7.721 7.721 0 0 0-.2-.082q-.335-.134-.675-.257l-.05-.016a24.319 24.319 0 0 0-.644-.216l-.209-.064a19.51 19.51 0 0 0-.523-.154l-.2-.056a22.092 22.092 0 0 0-.717-.18l-.025-.005c-.231-.054-.465-.1-.7-.149l-.215-.039a25.933 25.933 0 0 0-1.506-.226h-.015c-.246-.027-.49-.049-.737-.067l-.225-.015a17.468 17.468 0 0 0-.562-.028l-.226-.008a21.914 21.914 0 0 0-.77-.008 21.063 21.063 0 0 0-20.152 15.369l2.8.941a17.954 17.954 0 0 1 5.124-8.512 18.139 18.139 0 0 1 12.254-4.871c.234 0 .466 0 .7.008l.19.007c.188.008.375.017.561.031.047 0 .095 0 .142.008q.337.027.67.064l.172.022c.173.021.344.044.515.072a14.419 14.419 0 0 1 .842.147c.044.008.086.019.132.028a18.224 18.224 0 0 1 1.209.297l.175.049c.194.056.388.118.58.181l.246.084c.123.043.247.087.37.133.086.031.17.064.255.1.177.068.354.14.529.213l.269.119c.1.045.2.091.3.139l.3.141c.1.048.181.091.271.137.177.089.35.181.521.275.075.041.15.081.223.124a10.065 10.065 0 0 1 .513.306c.379.231.746.474 1.1.733l.12.086q.582.425 1.127.894l.034.028q.183.16.363.322l.029.027q.548.5 1.054 1.049a.129.129 0 0 1 .024.026c.343.37.67.756.979 1.154l2.348-1.775a21.1 21.1 0 0 0-4.69-4.427 21.994 21.994 0 0 0-.515-.345c-.065-.043-.132-.083-.2-.124" transform="translate(-132.423 -14.392)" style="fill:#e64800"/>
                <path data-name="패스 381" d="m389.741 35.4-.084-.017a25.068 25.068 0 0 0-.665-.123l-.226-.039c-.2-.032-.394-.061-.592-.089l-.322-.042-.529-.06-.419-.038a22.104 22.104 0 0 0-.461-.036c-.18-.013-.36-.019-.541-.027l-.36-.017a25.635 25.635 0 0 0-.921-.01A24.22 24.22 0 0 0 361.5 52.393l3 1a21.064 21.064 0 0 1 20.152-15.37c.259 0 .513 0 .769.008l.227.009c.188.008.374.017.562.03.075 0 .15.007.225.013.246.019.493.041.737.068h.015c.251.027.5.06.746.1l.214.034a15.932 15.932 0 0 1 .761.134c.235.046.468.094.7.146l.025.005c.241.057.478.117.717.181l.2.057c.176.05.351.1.524.153l.209.065c.215.07.432.141.644.216l.049.017c.227.082.452.169.675.257l.2.082c.161.066.321.135.48.2.071.033.143.063.214.094.188.086.374.174.561.264l.093.044c.209.1.416.211.62.32l.218.119q.209.116.414.234a19.714 19.714 0 0 1 .679.41c.065.042.131.082.2.125.175.112.347.227.518.344l.083.057 1.821-2.553a24.291 24.291 0 0 0-7.456-3.493q-.768-.21-1.552-.37" transform="translate(-130.726 -12.621)" style="fill:#ffaf00"/>
                <path data-name="패스 382" d="M371.4 32.918c-.285.136-.564.277-.842.422l-.087.045c-.262.137-.52.28-.778.425l-.128.074c-.247.142-.489.287-.73.436a2.85 2.85 0 0 0-.154.1q-.349.22-.692.449l-.166.112q-.337.23-.666.467l-.165.121c-.218.161-.434.322-.649.49-.05.039-.1.08-.147.119q-.326.258-.642.523l-.1.09a27.257 27.257 0 0 0-2.626 2.569l-.135.148c-.144.165-.285.334-.425.5-.083.1-.165.193-.246.292-.124.153-.246.311-.368.467-.092.117-.185.234-.273.352-.112.149-.222.3-.331.452-.094.13-.189.261-.28.393s-.2.294-.3.443-.186.283-.278.426-.185.292-.273.439-.183.3-.273.454-.168.29-.25.437-.176.319-.26.479c-.078.144-.155.289-.229.436-.086.167-.168.335-.251.5l-.206.43c-.081.178-.159.357-.238.535-.062.14-.124.28-.182.421-.08.191-.154.384-.23.577-.05.134-.1.264-.154.4-.08.218-.156.439-.231.66-.038.112-.079.222-.116.335-.089.269-.171.544-.251.819l2.841.954a24.221 24.221 0 0 1 23.122-17.491c.307 0 .615 0 .919.01.121 0 .239.011.359.017.183.008.363.015.543.027.155.009.309.024.461.036l.419.038.528.06.323.042c.2.028.4.057.594.089l.225.038c.223.04.445.079.666.124l.083.018c.522.106 1.042.227 1.553.367l.8-2.859a27.473 27.473 0 0 0-7.5-.977c-.92.008-1.827.066-2.721.163a27.227 27.227 0 0 0-8.85 2.5l-.011.005" transform="translate(-129.116 -10.938)" style="fill:#5ea81e"/>
                <path data-name="패스 383" d="M355.675 47.338c.036-.113.077-.223.116-.335.075-.221.151-.442.231-.659.05-.133.1-.264.154-.4.075-.194.15-.387.229-.578.059-.142.121-.28.183-.422.079-.179.156-.357.239-.536.066-.144.137-.286.2-.43.083-.169.165-.338.252-.5.073-.147.149-.29.229-.435s.172-.32.26-.478.165-.293.25-.439.181-.3.273-.452.181-.295.275-.441.184-.284.278-.425.2-.3.3-.444.185-.262.28-.393c.109-.15.218-.3.331-.451.087-.118.18-.235.272-.352.122-.157.243-.313.368-.467.08-.1.163-.194.246-.291.14-.168.281-.338.425-.5l.135-.147a27.157 27.157 0 0 1 2.628-2.571l.1-.089a25.262 25.262 0 0 1 .789-.643q.322-.251.649-.49l.164-.123q.329-.237.666-.465l.166-.113c.229-.154.458-.3.692-.449l.154-.1a23 23 0 0 1 .73-.434l.128-.076c.258-.145.515-.287.778-.425l.087-.045q.418-.218.842-.423a.035.035 0 0 0 .011-.005 27.237 27.237 0 0 1 8.849-2.5l-.326-2.984A30.217 30.217 0 0 0 352.554 47.2l2.871.963c.079-.276.16-.549.25-.82" transform="translate(-127.491 -9.34)" style="fill:#00a2cd"/>
                <path data-name="패스 384" d="M415.054 110.933c-.418-.088-.838-.176-1.263-.262q-2.585-.531-5.383-1.027a217.315 217.315 0 0 0-10.561-1.591q-2.916-.367-5.97-.672-4-.4-8.21-.67c-.511-.033-1.023-.063-1.538-.093q-3.854-.218-7.857-.311-.766-.018-1.535-.031-1.764-.028-3.547-.029-2.066 0-4.1.04c-.514.008-1.026.02-1.537.032q-4.023.1-7.908.336-.77.047-1.536.1-4.18.276-8.16.684c-7.7.784-14.774 1.9-20.946 3.151-.427.086-.847.174-1.263.26a168.12 168.12 0 0 0-5.174 1.172q2.523-.367 5.174-.7c.419-.052.84-.1 1.263-.155 6.507-.783 13.534-1.4 20.946-1.815q4.009-.228 8.16-.379l1.536-.052q3.9-.124 7.908-.176.767-.011 1.537-.018 2.041-.02 4.1-.02 1.782 0 3.547.015.77.006 1.535.016 3.981.046 7.857.165l1.538.05q4.173.144 8.21.365 3.028.169 5.97.378 5.449.387 10.561.914 2.746.286 5.383.607c.423.05.843.1 1.263.158q2.433.305 4.764.643-2.27-.552-4.764-1.085" transform="translate(-115.199 -38.421)" style="fill:#246e37"/>
                <path data-name="패스 385" d="M348.962 73.28h8.212V86.3q.765-.034 1.536-.065V72.651a38.162 38.162 0 0 1 7.857-2.028v15.4c.509-.008 1.023-.015 1.537-.021V70.431a36 36 0 0 1 3.825-.208h.054a36.007 36.007 0 0 1 3.825.208V86c.513.006 1.024.013 1.536.021v-15.4a38.141 38.141 0 0 1 7.857 2.028v13.585l1.535.065V73.277h8.212v13.509a191.247 191.247 0 0 1 21.912 2.719v-15l-7.21-2.751.323-3.11 1.29-12.442-15.563 4.791-3.9 1.2-2.992.922-1.984.611-.414.128-6.268 1.929h-16.379l-6.263-1.93-.416-.128-1.983-.611-2.992-.922-3.9-1.2-15.562-4.792 1.29 12.442.323 3.11-7.211 2.751v15a191.265 191.265 0 0 1 21.913-2.719z" transform="translate(-118.267 -20.325)" style="fill:#246e37"/>
                <path data-name="패스 386" d="M382.224 62.834a2.213 2.213 0 0 1-.107.236h-.627l-1.088-.357-.149-.049a1.782 1.782 0 0 1 .107-.511 1.307 1.307 0 0 1 1.212-.967.8.8 0 0 1 .184.041 1.212 1.212 0 0 1 .468 1.607m16.489-6.912a.272.272 0 0 0-.235.042c-.208.176-.014.744.431 1.267.391.463.848.736 1.093.674a.222.222 0 0 0 .087-.041c.207-.177.013-.744-.43-1.268a1.9 1.9 0 0 0-.946-.672m-5.766-.766a3.298 3.298 0 0 0-.167-.013 1.159 1.159 0 0 0-1.3.816c-.072.543.466 1.064 1.206 1.163a1.768 1.768 0 0 0 .317.013 1.11 1.11 0 0 0 1.153-.816c.073-.543-.466-1.064-1.205-1.164m11.3 5.682-.411.128a14.04 14.04 0 0 0-1.6-3.581 14.213 14.213 0 0 0-1.1-1.508c.117.3.138.593-.115.745-.173.1-.64-.263-.815-.418-.137-.121-.9-1.094-1.215-1.507-.349-.38-1.9-1.71-2.446-1.348-.568.372 1.161 1.7-.122 2.061a2.29 2.29 0 0 1-1.646-.426c-.906-.624-1.071-1.384-2.039-1.881-.532-.271-1.943-.336-2.247.343-.268.594.138.991.076 1.538-.082.727-1.229 1.4-2.218 1.253-.591-.086-1.113-.851-1.352-.992-1.412-.827-2.769.159-3.066 1.657-.149.761.024 1.2-.714 1.889-.507.472-1.385.98-1.951.5-.418-.356-.4-.785-.6-1-.116-.13-.239-.285-.758-.017-.83.431-.952 1.477-1.031 2.3a7.635 7.635 0 0 1-.029 1.55c-.292-.093-.6-.2-.936-.3-.222-.074-.453-.149-.691-.227l-1.155-.379a14.576 14.576 0 0 1 2.185-4.753 13.525 13.525 0 0 1 1.863-2.128 13.862 13.862 0 0 1 2.254-1.678 16.192 16.192 0 0 1 5.175-1.96 14.468 14.468 0 0 1 8.166.767 14.839 14.839 0 0 1 2.469 1.275 15.015 15.015 0 0 1 2.192 1.726 14.12 14.12 0 0 1 1.825 2.125 14.572 14.572 0 0 1 2.05 4.249m-25.717-2.549c-.184-.084-.566.363-.853 1s-.371 1.215-.186 1.3.566-.365.854-1 .368-1.215.185-1.3m4.884-3.54a.407.407 0 0 0-.365-.259 1.536 1.536 0 0 0-.946.283c-.6.379-.982.984-.857 1.35.07.2.287.286.565.258a1.764 1.764 0 0 0 .746-.282c.6-.38.984-.984.857-1.349m5.789-2.089c.013-.308-.306-.507-.773-.536a2.25 2.25 0 0 0-.561.039c-.756.146-1.384.6-1.4 1.024-.017.348.4.557.97.534a2.353 2.353 0 0 0 .364-.038c.754-.146 1.382-.6 1.4-1.023m6.1.014c.066-.193-.42-.525-1.081-.744a3.3 3.3 0 0 0-.844-.176c-.256-.014-.435.026-.468.125-.063.193.421.527 1.082.744a2.832 2.832 0 0 0 1.043.176c.147-.011.244-.054.268-.125m-8.7 4.473a1.494 1.494 0 0 0-.8.168 1.262 1.262 0 0 0-.668 1.644 1.139 1.139 0 0 0 1.081.57 1.506 1.506 0 0 0 .649-.167 1.262 1.262 0 0 0 .668-1.644 1.107 1.107 0 0 0-.933-.571" transform="translate(-135.995 -18.235)" style="fill:#246e37"/>
                <path data-name="패스 387" d="M489.956 30.795h-6.635v18.143h6.635c5.48 0 9.458-3.8 9.458-9.037 0-5.448-3.8-9.106-9.458-9.106m6.254 9.083a5.936 5.936 0 0 1-6.339 6.28h-3.347V33.576h3.346c3.922 0 6.34 2.37 6.34 6.3" transform="translate(-174.778 -11.136)" style="fill:#006e31"/>
                <path data-name="패스 388" d="M522.274 39.548a5.02 5.02 0 0 0 1.96-4.1c0-2.917-2.34-4.657-6.259-4.656h-7.195v18.145h7.32c4.426 0 7.069-1.939 7.069-5.183a4.358 4.358 0 0 0-2.9-4.206m-5.493-1.308a1.259 1.259 0 0 0-1.036 1.051 1.619 1.619 0 0 0 .26 1.183 1.113 1.113 0 0 0 .736.466 11.375 11.375 0 0 0 1.355.112c1.427.064 2.942.128 3.614 1.395a2.389 2.389 0 0 1-.151 2.435 3.657 3.657 0 0 1-2.949 1.257 9.652 9.652 0 0 1-.583.019h-4.038V33.576h3.661c2.412 0 3.386.693 3.386 2.165a2.4 2.4 0 0 1-.917 1.993 3.74 3.74 0 0 1-2.117.416 6.848 6.848 0 0 0-1.214.091" transform="translate(-184.709 -11.136)" style="fill:#006e31"/>
                <path data-name="패스 389" d="m485.61 81.111-2.653-9.676h1.213l2.086 8.146 1.916-8.146h1.359l1.9 8.119 2.111-8.119h1.19l-2.747 9.676h-1.226l-1.9-8.289-1.94 8.289z" transform="translate(-174.647 -25.832)" style="fill:#3c3939"/>
                <path data-name="패스 390" d="M511.478 76.19a5.311 5.311 0 0 1-1.174 3.617 3.921 3.921 0 0 1-3.116 1.373 3.881 3.881 0 0 1-3.1-1.373 6.176 6.176 0 0 1 0-7.247 3.885 3.885 0 0 1 3.1-1.373 3.925 3.925 0 0 1 3.112 1.373 5.361 5.361 0 0 1 1.174 3.63m-1.187 0a4.423 4.423 0 0 0-.844-2.838 2.763 2.763 0 0 0-2.243-1.1 2.725 2.725 0 0 0-2.232 1.1 5.19 5.19 0 0 0 0 5.676 2.727 2.727 0 0 0 2.232 1.1 2.765 2.765 0 0 0 2.243-1.1 4.389 4.389 0 0 0 .844-2.838" transform="translate(-181.863 -25.743)" style="fill:#3c3939"/>
                <path data-name="패스 391" d="M518.958 81.111v-9.676h1.715l2.825 8.344 2.824-8.344h1.743v9.676h-1.135v-8.277l-2.906 8.277h-1.055l-2.891-8.236v8.236z" transform="translate(-187.665 -25.832)" style="fill:#3c3939"/>
                <path data-name="패스 392" d="M536.388 81.111v-9.676h5.043v1.083h-3.92v3.036h3.589v1.069h-3.59v3.433h3.92v1.056z" transform="translate(-193.968 -25.832)" style="fill:#3c3939"/>
                <path data-name="패스 393" d="M547.1 81.111v-9.676h1.4l4.238 7.96v-7.96h1.122v9.676h-1.321l-4.316-8.065v8.065z" transform="translate(-197.842 -25.832)" style="fill:#3c3939"/>
                <path data-name="패스 394" d="M560.933 70.154h1.467v1.44a1.9 1.9 0 0 1-.4 1.161 1.923 1.923 0 0 1-1.071.712v-.8a.876.876 0 0 0 .469-.377 1.135 1.135 0 0 0 .165-.6h-.635z" transform="translate(-202.845 -25.369)" style="fill:#3c3939"/>
                <path data-name="패스 395" d="m571.777 71.478-.146.99a6.828 6.828 0 0 0-1.7-.212 2.062 2.062 0 0 0-1.3.377 1.232 1.232 0 0 0-.442 1.009 1.269 1.269 0 0 0 .646 1.123 15.225 15.225 0 0 0 1.425.792 3.839 3.839 0 0 1 1.486 1.188 2.714 2.714 0 0 1 .5 1.609 2.806 2.806 0 0 1-.449 1.651 2.618 2.618 0 0 1-1.141.878 4.557 4.557 0 0 1-1.736.3 5.23 5.23 0 0 1-1.823-.357l.105-.99a5.871 5.871 0 0 0 1.876.291 2.154 2.154 0 0 0 1.406-.476 1.508 1.508 0 0 0 .547-1.214 1.433 1.433 0 0 0-.633-1.273 9.618 9.618 0 0 0-1.439-.8 3.808 3.808 0 0 1-1.485-1.1 2.384 2.384 0 0 1-.494-1.491 2.317 2.317 0 0 1 .831-1.922 3.163 3.163 0 0 1 2.045-.666 6.737 6.737 0 0 1 1 .079 5.532 5.532 0 0 1 .925.211" transform="translate(-205.029 -25.743)" style="fill:#3c3939"/>
                <path data-name="패스 396" d="m490.271 96.371-.08 1.016a4.373 4.373 0 0 0-1.821-.317 3.4 3.4 0 0 0-2.575 1.122 4.086 4.086 0 0 0-.963 2.826 4.013 4.013 0 0 0 .963 2.8 3.3 3.3 0 0 0 2.534 1.108 5.664 5.664 0 0 0 1.9-.223l.065.989a5.476 5.476 0 0 1-1.981.3 4.474 4.474 0 0 1-3.417-1.345 5.173 5.173 0 0 1-1.281-3.7 5.432 5.432 0 0 1 .607-2.627 4.289 4.289 0 0 1 1.663-1.711A4.813 4.813 0 0 1 488.33 96a4.577 4.577 0 0 1 1.941.371" transform="translate(-174.886 -34.716)" style="fill:#3c3939"/>
                <path data-name="패스 397" d="M496.748 105.926v-9.678h1.122v4.119h4.515v-4.119h1.122v9.677h-1.122v-4.49h-4.515v4.49z" transform="translate(-179.634 -34.805)" style="fill:#3c3939"/>
                <path data-name="패스 398" d="m516.925 105.924-.936-2.481h-4.516l-.938 2.481h-1.214l3.881-9.677h1.108l3.854 9.677zm-1.307-3.459-1.889-4.976-1.886 4.976z" transform="translate(-184.181 -34.805)" style="fill:#3c3939"/>
                <path data-name="패스 399" d="M525.183 105.926v-9.678h1.717l2.826 8.343 2.824-8.343h1.743v9.677h-1.134v-8.278l-2.906 8.279h-1.055l-2.89-8.238v8.238z" transform="translate(-189.917 -34.805)" style="fill:#3c3939"/>
                <path data-name="패스 400" d="M542.612 105.926v-9.678h2.6a3.29 3.29 0 0 1 2.362.806 2.753 2.753 0 0 1 .779 2.073 2.673 2.673 0 0 1-.779 2.073 3.352 3.352 0 0 1-2.362.793h-1.467v3.933zm1.135-8.594v3.59h1.333a2.3 2.3 0 0 0 1.546-.476 1.633 1.633 0 0 0 .513-1.32 1.675 1.675 0 0 0-.527-1.332 2.293 2.293 0 0 0-1.532-.463z" transform="translate(-196.219 -34.805)" style="fill:#3c3939"/>
                <path data-name="사각형 72" transform="translate(353.839 61.444)" style="fill:#3c3939" d="M0 0h1.122v9.676H0z"/>
                <path data-name="패스 401" d="M567.267 101a5.308 5.308 0 0 1-1.174 3.616 3.921 3.921 0 0 1-3.116 1.373 3.881 3.881 0 0 1-3.1-1.373 6.177 6.177 0 0 1 0-7.248 3.884 3.884 0 0 1 3.1-1.373 3.924 3.924 0 0 1 3.116 1.373 5.367 5.367 0 0 1 1.174 3.632m-1.187 0a4.417 4.417 0 0 0-.845-2.84 2.762 2.762 0 0 0-2.243-1.1 2.724 2.724 0 0 0-2.231 1.1 5.189 5.189 0 0 0 0 5.677 2.725 2.725 0 0 0 2.231 1.1 2.763 2.763 0 0 0 2.243-1.1 4.381 4.381 0 0 0 .845-2.837" transform="translate(-202.037 -34.716)" style="fill:#3c3939"/>
                <path data-name="패스 402" d="M574.745 105.926v-9.678h1.4l4.237 7.961v-7.961h1.124v9.677h-1.321l-4.317-8.065v8.065z" transform="translate(-207.839 -34.805)" style="fill:#3c3939"/>
                <path data-name="패스 403" d="m592.806 96.292-.146.991a6.825 6.825 0 0 0-1.7-.212 2.063 2.063 0 0 0-1.3.377 1.235 1.235 0 0 0-.442 1.009 1.268 1.268 0 0 0 .647 1.124 15.508 15.508 0 0 0 1.424.793 3.819 3.819 0 0 1 1.486 1.187 2.72 2.72 0 0 1 .5 1.61 2.8 2.8 0 0 1-.449 1.65 2.615 2.615 0 0 1-1.142.877 4.528 4.528 0 0 1-1.736.3 5.226 5.226 0 0 1-1.821-.357l.1-.99a5.856 5.856 0 0 0 1.876.291 2.149 2.149 0 0 0 1.406-.476 1.509 1.509 0 0 0 .549-1.213 1.437 1.437 0 0 0-.635-1.274 9.9 9.9 0 0 0-1.438-.8 3.8 3.8 0 0 1-1.487-1.1 2.384 2.384 0 0 1-.498-1.49 2.314 2.314 0 0 1 .831-1.92A3.16 3.16 0 0 1 590.88 96a6.861 6.861 0 0 1 1 .079 5.622 5.622 0 0 1 .923.211" transform="translate(-212.633 -34.716)" style="fill:#3c3939"/>
                <path data-name="패스 404" d="M598.939 105.926v-9.678h1.122v4.119h4.516v-4.119h1.123v9.677h-1.122v-4.49h-4.518v4.49z" transform="translate(-216.588 -34.805)" style="fill:#3c3939"/>
                <path data-name="사각형 73" transform="translate(391.118 61.444)" style="fill:#3c3939" d="M0 0h1.122v9.676H0z"/>
                <path data-name="패스 405" d="M617.59 105.926v-9.678h2.6a3.287 3.287 0 0 1 2.361.806 2.751 2.751 0 0 1 .779 2.073 2.671 2.671 0 0 1-.779 2.073 3.347 3.347 0 0 1-2.361.793h-1.466v3.933zm1.136-8.594v3.59h1.332a2.3 2.3 0 0 0 1.546-.476 1.635 1.635 0 0 0 .513-1.32 1.679 1.679 0 0 0-.526-1.332 2.3 2.3 0 0 0-1.533-.463z" transform="translate(-223.333 -34.805)" style="fill:#3c3939"/>
            </g>
        </g>
    </g>
</svg>
