<svg xmlns="http://www.w3.org/2000/svg" width="288.672" height="104.475" viewBox="0 0 288.672 104.475">
    <defs>
        <clipPath id="45rg5qunba">
            <path data-name="사각형 67" style="fill:none" d="M0 0h288.672v104.475H0z"/>
        </clipPath>
        <clipPath id="7gz627v0ub">
            <path data-name="패스 374" d="M1.625 44.212c-.614 2.815-.327 27-.105 29.8.152 2.058 1.019 3.258 3.43 3.209 16.817-.271 21.23-20.653 10.841-30.247a17.464 17.464 0 0 0-6.131-3.65 16.367 16.367 0 0 0-4.968-1.06c-1.48 0-2.745.469-3.067 1.948" transform="translate(-1.255 -42.264)" style="fill:none"/>
        </clipPath>
        <clipPath id="99isfc9ezd">
            <path data-name="패스 375" d="M46.293 2.815c-.554 2.547-.29 24.509-.1 27.056.145 1.861.926 2.949 3.116 2.918 15.277-.256 19.291-18.763 9.857-27.472A16 16 0 0 0 53.6 2.008a14.724 14.724 0 0 0-4.512-.97c-1.355 0-2.5.439-2.8 1.777" transform="translate(-45.961 -1.038)" style="fill:none"/>
        </clipPath>
        <clipPath id="ls475zg3wf">
            <path data-name="패스 376" d="M53.654 45.194c-.709 3.208-.367 30.8-.121 34 .189 2.351 1.162 3.707 3.907 3.667 19.2-.307 24.242-23.569 12.391-34.515a20.062 20.062 0 0 0-6.993-4.161 18.578 18.578 0 0 0-5.672-1.215c-1.7 0-3.147.539-3.512 2.225" transform="translate(-53.231 -42.969)" style="fill:none"/>
        </clipPath>
        <linearGradient id="zl081sz8ic" x1=".502" y1=".812" x2=".497" y2="-.007" gradientUnits="objectBoundingBox">
            <stop offset="0" stop-color="#ea6000"/>
            <stop offset=".1" stop-color="#ea6000"/>
            <stop offset=".257" stop-color="#e75a01"/>
            <stop offset=".462" stop-color="#de4904"/>
            <stop offset=".694" stop-color="#d12e0a"/>
            <stop offset=".944" stop-color="#be0912"/>
            <stop offset="1" stop-color="#ba0015"/>
        </linearGradient>
        <linearGradient id="ux2ha9erbe" x1=".497" y1="-.007" x2=".502" y2=".812" gradientUnits="objectBoundingBox">
            <stop offset="0" stop-color="#00a0e1"/>
            <stop offset=".54" stop-color="#0070ba"/>
            <stop offset="1" stop-color="#004598"/>
        </linearGradient>
        <linearGradient id="x468vf0gcg" x1=".497" y1=".027" x2=".502" y2=".813" gradientUnits="objectBoundingBox">
            <stop offset="0" stop-color="#8cb808"/>
            <stop offset=".138" stop-color="#86b50a"/>
            <stop offset=".318" stop-color="#75ae10"/>
            <stop offset=".523" stop-color="#5aa31b"/>
            <stop offset=".744" stop-color="#349329"/>
            <stop offset=".978" stop-color="#057f3c"/>
            <stop offset="1" stop-color="#007d3e"/>
        </linearGradient>
    </defs>
    <g data-name="그룹 83">
        <g data-name="그룹 82" style="clip-path:url(#45rg5qunba)">
            <path data-name="패스 362" d="M9.172 179.488v.22a21.972 21.972 0 0 0 .136 2.533 10.179 10.179 0 0 0 .58 2.37 12.69 12.69 0 0 0 1.225 2.368 19.994 19.994 0 0 0 2.08 2.615 1.352 1.352 0 0 1 .343 1.089 1.991 1.991 0 0 1-.426 1.061 1.682 1.682 0 0 1-.964.591 1.331 1.331 0 0 1-1.184-.428 10.889 10.889 0 0 1-2.231-2.656 22.713 22.713 0 0 1-1.238-2.382q-.249.577-.633 1.28t-.826 1.39a14.835 14.835 0 0 1-1.008 1.361 7.556 7.556 0 0 1-1.087 1.089 1.353 1.353 0 0 1-1.156.358 1.857 1.857 0 0 1-1.018-.522 1.724 1.724 0 0 1-.5-1.031 1.5 1.5 0 0 1 .413-1.2 19.869 19.869 0 0 0 2.105-2.644 12.569 12.569 0 0 0 1.226-2.368 9.67 9.67 0 0 0 .579-2.314 20.815 20.815 0 0 0 .137-2.477v-.3H2.809a1.06 1.06 0 0 1-.95-.482 2.016 2.016 0 0 1 .014-2.191 1.14 1.14 0 0 1 1.02-.495h9.032a1.089 1.089 0 0 1 .964.495 2.143 2.143 0 0 1 .358 1.1 2 2 0 0 1-.3 1.088 1.03 1.03 0 0 1-.937.482zm5.782 2.561v-4.654a1 1 0 0 1-.51-.5 2.036 2.036 0 0 1-.178-.91v-.743h4.076v22.338a1.143 1.143 0 0 1-.538 1.048 2.19 2.19 0 0 1-1.17.33 2.121 2.121 0 0 1-1.156-.33 1.1 1.1 0 0 1-.524-.992v-12.422h-2.423a.957.957 0 0 1-.856-.48 2.014 2.014 0 0 1-.3-1.088 1.959 1.959 0 0 1 .262-1.1.962.962 0 0 1 .9-.495zm4.683-6.8h3.442v22.307a1.173 1.173 0 0 1-.551 1.047 2.133 2.133 0 0 1-1.184.357 1.953 1.953 0 0 1-1.17-.317 1.2 1.2 0 0 1-.537-1.088z" transform="translate(-.677 -94.509)" style="fill:#006e31"/>
            <path data-name="패스 363" d="M60.7 180.336a1.132 1.132 0 0 1-.992-.469 1.781 1.781 0 0 1-.33-1.046 1.837 1.837 0 0 1 .33-1.059 1.123 1.123 0 0 1 .992-.482h4.407v18.864a.951.951 0 0 1 .619.468 1.522 1.522 0 0 1 .234.8v.715h-5.09v-.715a1.375 1.375 0 0 1 .247-.8 1.146 1.146 0 0 1 .578-.468v-15.808z" transform="translate(-32.025 -95.606)" style="fill:#006e31"/>
            <path data-name="패스 364" d="M96.663 180.311a4.4 4.4 0 0 1 .99 1.434 4.939 4.939 0 0 1 .5 2.2 4.617 4.617 0 0 1-.4 1.928 5.286 5.286 0 0 1-1.087 1.569 6.522 6.522 0 0 1-1.571 1.158 7.313 7.313 0 0 1-1.872.689v2.093h4.956a1.235 1.235 0 0 1 1.061.508 1.809 1.809 0 0 1 .372 1.089 1.841 1.841 0 0 1-.358 1.1 1.21 1.21 0 0 1-1.046.495H84.931a1.236 1.236 0 0 1-1.074-.495 1.853 1.853 0 0 1 0-2.191 1.226 1.226 0 0 1 1.074-.508h4.791v-2.093a7.249 7.249 0 0 1-1.887-.7 6.233 6.233 0 0 1-1.555-1.171 4.709 4.709 0 0 1-1.46-3.471 5.082 5.082 0 0 1 .482-2.2 3.994 3.994 0 0 1 1.006-1.434h-1.6a1.024 1.024 0 0 1-.935-.479 1.955 1.955 0 0 1-.3-1.062 2.015 2.015 0 0 1 .3-1.073 1.014 1.014 0 0 1 .935-.5h4.847v-2.313H93.3v2.316h4.958a1.024 1.024 0 0 1 .921.5 1.96 1.96 0 0 1 .317 1.073 1.9 1.9 0 0 1-.317 1.062 1.034 1.034 0 0 1-.921.479zm-1.984 2.921a2.832 2.832 0 0 0-.921-2.175 3.223 3.223 0 0 0-2.273-.852 2.991 2.991 0 0 0-3.166 3.056 2.817 2.817 0 0 0 .909 2.215 3.254 3.254 0 0 0 2.258.814 3.156 3.156 0 0 0 2.313-.868 2.947 2.947 0 0 0 .881-2.189m6.335-6.031a1.009 1.009 0 0 1-.51-.5 2.028 2.028 0 0 1-.179-.909v-.744h4.187v22.281a1.2 1.2 0 0 1-.551 1.073 2.249 2.249 0 0 1-2.409.013 1.147 1.147 0 0 1-.537-1.033z" transform="translate(-45.015 -94.316)" style="fill:#006e31"/>
            <path data-name="패스 365" d="M263 191.411v6.168a1.164 1.164 0 0 1-.552 1.06 2.23 2.23 0 0 1-1.211.344 2.16 2.16 0 0 1-1.2-.344 1.171 1.171 0 0 1-.538-1.06v-6.168h-5.508a.977.977 0 0 1-.881-.5 2.087 2.087 0 0 1-.3-1.1 2.175 2.175 0 0 1 .288-1.087 1.008 1.008 0 0 1 .95-.507h14.789a.878.878 0 0 1 .839.507 2.137 2.137 0 0 1 .235 1.087 2.236 2.236 0 0 1-.276 1.1.832.832 0 0 1-.743.5zm4.406-7.727a5.623 5.623 0 0 1-1.46 1.835 6.087 6.087 0 0 1-2.121 1.155 8.415 8.415 0 0 1-2.562.384 8.1 8.1 0 0 1-2.6-.411 6.415 6.415 0 0 1-2.135-1.185 5.566 5.566 0 0 1-1.428-1.862 5.49 5.49 0 0 1-.522-2.41 5.41 5.41 0 0 1 .522-2.4 5.474 5.474 0 0 1 1.46-1.843 6.579 6.579 0 0 1 2.12-1.2 7.719 7.719 0 0 1 2.588-.427 8.021 8.021 0 0 1 2.534.4 6.6 6.6 0 0 1 2.148 1.171 5.62 5.62 0 0 1 1.46 1.831 5.377 5.377 0 0 1 .551 2.464 5.433 5.433 0 0 1-.551 2.492m-3.9-4.5a3.526 3.526 0 0 0-2.245-.744 3.572 3.572 0 0 0-2.258.729 2.674 2.674 0 0 0 0 4.063 3.862 3.862 0 0 0 4.5-.014 2.615 2.615 0 0 0 0-4.034m7.2-1.79a1 1 0 0 1-.51-.5 2.028 2.028 0 0 1-.179-.909v-.744h4.187v22.308a1.166 1.166 0 0 1-.552 1.06 2.231 2.231 0 0 1-1.211.343 2.162 2.162 0 0 1-1.2-.343 1.119 1.119 0 0 1-.538-1z" transform="translate(-136.339 -94.508)" style="fill:#006e31"/>
            <path data-name="패스 366" d="M319.215 176.154v10.023a2.829 2.829 0 0 1-.825 2.19 3.3 3.3 0 0 1-2.314.758h-5.425a3.187 3.187 0 0 1-2.258-.745 2.748 2.748 0 0 1-.8-2.118V178.3a.986.986 0 0 1-.509-.495 2.028 2.028 0 0 1-.179-.909v-.743zm-8.453 14.623h4.185v4.241a.9.9 0 0 0 .152.605.751.751 0 0 0 .565.165h10.6a1.108 1.108 0 0 1 .991.5 1.951 1.951 0 0 1 .332 1.1 1.745 1.745 0 0 1-.3 1.088 1.126 1.126 0 0 1-.991.481H314.48a3.137 3.137 0 0 1-2.245-.744 2.78 2.78 0 0 1-.785-2.12v-3.166a.993.993 0 0 1-.509-.5 2.024 2.024 0 0 1-.178-.908zm4.956-11.456h-4.626v6a.81.81 0 0 0 .111.524.684.684 0 0 0 .469.11h3.386a.8.8 0 0 0 .523-.123.7.7 0 0 0 .138-.511zm7.74-1.928a1 1 0 0 1-.51-.5 2.009 2.009 0 0 1-.179-.909v-.744h4.186v15.643a1.347 1.347 0 0 1-.552 1.184 2.108 2.108 0 0 1-2.409.012 1.294 1.294 0 0 1-.536-1.142z" transform="translate(-165.513 -94.508)" style="fill:#006e31"/>
            <path data-name="패스 367" d="M378.468 193.54a1.175 1.175 0 0 1 1.02.511 1.865 1.865 0 0 1 .357 1.087 1.946 1.946 0 0 1-.33 1.1 1.138 1.138 0 0 1-1.019.5h-19.883a1.2 1.2 0 0 1-1.06-.5 1.748 1.748 0 0 1-.317-1.1 1.868 1.868 0 0 1 .357-1.087 1.174 1.174 0 0 1 1.021-.511zM370.4 177.1v2.614a6.566 6.566 0 0 0 .5 2.493 8.863 8.863 0 0 0 1.4 2.327 12.227 12.227 0 0 0 2.216 1.97 12.437 12.437 0 0 0 2.85 1.471 1.36 1.36 0 0 1 .866.842 1.721 1.721 0 0 1 .043 1.114 1.654 1.654 0 0 1-.744.883 1.621 1.621 0 0 1-1.377.055 11.677 11.677 0 0 1-2.615-1.061 15.434 15.434 0 0 1-2.2-1.473 14.249 14.249 0 0 1-1.708-1.544 7.613 7.613 0 0 1-1.073-1.4 11.4 11.4 0 0 1-1.159 1.474 12.456 12.456 0 0 1-1.705 1.528 17.019 17.019 0 0 1-2.164 1.4 12.923 12.923 0 0 1-2.6 1.076 1.681 1.681 0 0 1-1.405-.055 1.66 1.66 0 0 1-.743-.856 1.623 1.623 0 0 1 .026-1.142 1.5 1.5 0 0 1 .938-.868 12.079 12.079 0 0 0 5.26-3.608 7.116 7.116 0 0 0 1.706-4.351v-.742a.882.882 0 0 1-.482-.454 1.9 1.9 0 0 1-.205-.922v-.771z" transform="translate(-192.654 -95.51)" style="fill:#006e31"/>
            <path data-name="패스 368" d="M430.985 184.858a11.29 11.29 0 0 1-.841 1.158q-.5.579-1.1 1.17a9.581 9.581 0 0 1-1.238 1.033 1.32 1.32 0 0 1-1.129.235 1.673 1.673 0 0 1-.936-.62 1.626 1.626 0 0 1-.359-1.06 1.567 1.567 0 0 1 .633-1.172 14.551 14.551 0 0 0 2.437-2.725 6.931 6.931 0 0 0 1.143-2.865h-2.809a1.029 1.029 0 0 1-.936-.482 2.083 2.083 0 0 1 .014-2.189 1.046 1.046 0 0 1 .949-.5h2.887v-2.258h3.553v2.258h2.809a1 1 0 0 1 .9.5 2.2 2.2 0 0 1 .344 1.1 1.844 1.844 0 0 1-.277 1.088 1.026 1.026 0 0 1-.935.482h-2.727a4.94 4.94 0 0 0 1.075 2.588 24.739 24.739 0 0 0 2.506 2.754 1.862 1.862 0 0 1 .578 1.2 1.5 1.5 0 0 1-.3 1.033 1.54 1.54 0 0 1-.868.606 1.439 1.439 0 0 1-1.17-.194 5.676 5.676 0 0 1-1.212-.909 13.115 13.115 0 0 1-1.1-1.184 12.664 12.664 0 0 1-.909-1.115 3.831 3.831 0 0 1-.495-.839 5.854 5.854 0 0 1-.481.908m15.821 10.713a2.9 2.9 0 0 1-.854 2.245 3.21 3.21 0 0 1-2.258.786h-9.613a3.783 3.783 0 0 1-2.41-.771 2.554 2.554 0 0 1-.978-2.122v-3.61a.877.877 0 0 1-.482-.453 1.887 1.887 0 0 1-.205-.923v-.771h16.8zm-3.5-2.533h-9.114v1.847a.735.735 0 0 0 .123.508.8.8 0 0 0 .536.125h7.767a.862.862 0 0 0 .551-.125.69.69 0 0 0 .137-.508zm-1.679-12.971h2.037v-5.178h3.417v12.532a1.17 1.17 0 0 1-.537 1.061 2.331 2.331 0 0 1-1.171.37 2.159 2.159 0 0 1-1.185-.329 1.118 1.118 0 0 1-.524-1.018v-4.353h-2.037v4.38a1.088 1.088 0 0 1-.537.991 2.132 2.132 0 0 1-1.143.329 2.108 2.108 0 0 1-1.157-.329 1.119 1.119 0 0 1-.523-1.018v-10.467a.994.994 0 0 1-.51-.5 2.028 2.028 0 0 1-.179-.91v-.744h4.048z" transform="translate(-229.405 -94.154)" style="fill:#006e31"/>
            <path data-name="패스 369" d="M490.778 176.32a1.08 1.08 0 0 1 .962.5 1.877 1.877 0 0 1 .333 1.073 1.929 1.929 0 0 1-.318 1.087 1.033 1.033 0 0 1-.921.481h-1.323v9.226h1.514a1.068 1.068 0 0 1 .938.495 1.906 1.906 0 0 1 .329 1.075 1.785 1.785 0 0 1-.289 1.089 1.12 1.12 0 0 1-1 .481h-12.535a1.123 1.123 0 0 1-.99-.481 1.862 1.862 0 0 1-.333-1.089 1.952 1.952 0 0 1 .317-1.075 1.056 1.056 0 0 1 .95-.495h1.542v-9.226h-1.349a1.052 1.052 0 0 1-.964-.481 1.837 1.837 0 0 1-.277-1.087 2.086 2.086 0 0 1 .359-1.073 1.081 1.081 0 0 1 .963-.5zm-4.708 3.138h-2.67v9.227h2.672zm8.37-2.064a1.017 1.017 0 0 1-.51-.5 2.028 2.028 0 0 1-.179-.909v-.744h4.187v22.17a1.294 1.294 0 0 1-.551 1.13 2.243 2.243 0 0 1-1.212.412 1.907 1.907 0 0 1-1.2-.343 1.324 1.324 0 0 1-.537-1.171z" transform="translate(-257.322 -94.508)" style="fill:#006e31"/>
            <path data-name="패스 370" d="M538.166 188.958a7.673 7.673 0 0 1-2.422-.4 6.351 6.351 0 0 1-2.175-1.224 6.16 6.16 0 0 1-1.6-2.052 6.4 6.4 0 0 1-.606-2.879 6.485 6.485 0 0 1 .577-2.794 6.312 6.312 0 0 1 1.515-2.054 6.987 6.987 0 0 1 2.189-1.265 7.44 7.44 0 0 1 2.52-.44 7.085 7.085 0 0 1 4.131 1.321 6.672 6.672 0 0 1 1.53 1.542 6.363 6.363 0 0 1 .95 2.039h3.056v-3.359a1.007 1.007 0 0 1-.51-.5 2.055 2.055 0 0 1-.179-.91v-.744h4.187v15.726a1.221 1.221 0 0 1-.552 1.1 2.238 2.238 0 0 1-2.408.012 1.14 1.14 0 0 1-.538-1.032v-7.1H544.8a5.994 5.994 0 0 1-.922 2.134 7 7 0 0 1-1.528 1.583 6.687 6.687 0 0 1-1.969.963 7.619 7.619 0 0 1-2.218.33m3.3-6.527a3.328 3.328 0 0 0-.991-2.519 3.236 3.236 0 0 0-2.313-.95 3.121 3.121 0 0 0-2.4.978 3.474 3.474 0 0 0-.908 2.464 3.375 3.375 0 0 0 .935 2.521 3.2 3.2 0 0 0 2.341.923 3.456 3.456 0 0 0 1.472-.289 2.937 2.937 0 0 0 1.034-.785 3.093 3.093 0 0 0 .619-1.088 3.931 3.931 0 0 0 .206-1.254m-6.333 8.346h4.186v4.241a.916.916 0 0 0 .151.605.751.751 0 0 0 .564.165h10.6a1.11 1.11 0 0 1 .992.5 1.938 1.938 0 0 1 .33 1.1 1.731 1.731 0 0 1-.3 1.088 1.125 1.125 0 0 1-.992.481h-11.801a3.134 3.134 0 0 1-2.245-.744 2.781 2.781 0 0 1-.785-2.119v-3.167a1 1 0 0 1-.51-.5 2.027 2.027 0 0 1-.178-.908z" transform="translate(-286.562 -94.508)" style="fill:#006e31"/>
            <path data-name="패스 371" d="M591.732 177.255a7.3 7.3 0 0 0 1.28 4.406 11.765 11.765 0 0 0 3.511 3.111 1.433 1.433 0 0 1 .676 1.046 1.983 1.983 0 0 1-.207 1.158 1.74 1.74 0 0 1-.895.757 1.515 1.515 0 0 1-1.308-.151 12.306 12.306 0 0 1-3-2.039 10.858 10.858 0 0 1-1.845-2.23 10.616 10.616 0 0 1-2.01 2.411 11.8 11.8 0 0 1-2.894 2 1.565 1.565 0 0 1-1.35.137 1.744 1.744 0 0 1-1.073-1.928 1.541 1.541 0 0 1 .772-1.046 12.352 12.352 0 0 0 3.565-3.167 6.356 6.356 0 0 0 1.226-3.8.88.88 0 0 1-.481-.455 1.885 1.885 0 0 1-.207-.923v-.77h4.242zm10.85 12.008v6.773a2.743 2.743 0 0 1-.853 2.163 3.322 3.322 0 0 1-2.287.756h-9.584a3.215 3.215 0 0 1-2.258-.756 2.684 2.684 0 0 1-.826-2.08v-4.763a.872.872 0 0 1-.481-.456 1.794 1.794 0 0 1-.208-.895v-.741h4.186v2.285h8.813v-.3a.847.847 0 0 1-.441-.44 1.715 1.715 0 0 1-.192-.825v-.715zm-3.5 5.149h-8.813v.936a1.174 1.174 0 0 0 .083.5c.055.107.22.163.495.163h7.629c.275 0 .444-.056.51-.163a1.011 1.011 0 0 0 .1-.5zm.276-17.019a1 1 0 0 1-.51-.5 2.015 2.015 0 0 1-.179-.909v-.744h4.186v11.57a1.224 1.224 0 0 1-.552 1.1 2.244 2.244 0 0 1-2.408.013 1.142 1.142 0 0 1-.537-1.032z" transform="translate(-314.185 -94.508)" style="fill:#006e31"/>
            <path data-name="패스 372" d="M158.865 175.435h-8.605v23.526h8.605c7.1 0 12.262-4.929 12.262-11.719 0-7.064-4.929-11.81-12.262-11.806m8.108 11.776c0 4.945-3.286 8.143-8.22 8.143h-4.34v-16.314h4.339c5.085 0 8.22 3.074 8.221 8.17" transform="translate(-81.034 -94.611)" style="fill:#006e31"/>
            <path data-name="패스 373" d="M214.5 186.784a6.5 6.5 0 0 0 2.542-5.314c0-3.78-3.033-6.036-8.112-6.034h-9.33v23.523h9.5c5.739 0 9.166-2.512 9.166-6.719 0-2.516-1.232-4.3-3.762-5.455m-7.12-1.694a1.628 1.628 0 0 0-1.342 1.362 2.1 2.1 0 0 0 .331 1.534 1.444 1.444 0 0 0 .955.606 15.206 15.206 0 0 0 1.758.145c1.849.082 3.814.165 4.685 1.806a3.1 3.1 0 0 1-.195 3.158c-.655.948-1.94 1.522-3.823 1.631-.241.014-.489.022-.756.022h-5.247v-16.313h4.75c3.126 0 4.39.9 4.39 2.8a3.112 3.112 0 0 1-1.189 2.585 4.829 4.829 0 0 1-2.746.54 8.823 8.823 0 0 0-1.574.118" transform="translate(-107.642 -94.611)" style="fill:#006e31"/>
        </g>
    </g>
    <g data-name="그룹 85">
        <g data-name="그룹 84" style="clip-path:url(#7gz627v0ub)" transform="translate(.578 19.471)">
            <path data-name="사각형 68" transform="rotate(-89.454 17.38 17.794)" style="fill:url(#zl081sz8ic)" d="M0 0h35.246v25.501H0z"/>
        </g>
    </g>
    <g data-name="그룹 87">
        <g data-name="그룹 86" style="clip-path:url(#99isfc9ezd)" transform="translate(21.175 .478)">
            <path data-name="사각형 69" transform="rotate(-89.454 15.78 16.155)" style="fill:url(#ux2ha9erbe)" d="M0 0h31.998v23.158H0z"/>
        </g>
    </g>
    <g data-name="그룹 89">
        <g data-name="그룹 88" style="clip-path:url(#ls475zg3wf)" transform="translate(24.524 19.796)">
            <path data-name="사각형 70" transform="rotate(-89.454 19.822 20.3)" style="fill:url(#x468vf0gcg)" d="M0 0h40.203v29.117H0z"/>
        </g>
    </g>
    <g data-name="그룹 91">
        <g data-name="그룹 90" style="clip-path:url(#45rg5qunba)">
            <path data-name="패스 377" d="M129.306 39.611h-10.828v29.6h10.828c8.941 0 15.429-6.2 15.429-14.746 0-8.888-6.2-14.858-15.429-14.857m10.2 14.819c0 6.224-4.133 10.247-10.342 10.247h-5.46V44.15h5.458c6.4 0 10.344 3.867 10.345 10.28" transform="translate(-63.895 -21.362)" style="fill:#006e31"/>
            <path data-name="패스 378" d="M199.31 53.892a8.182 8.182 0 0 0 3.2-6.688c0-4.756-3.818-7.6-10.21-7.595h-11.738v29.6h11.948c7.222 0 11.535-3.162 11.535-8.456 0-3.164-1.551-5.413-4.734-6.863m-8.959-2.134a2.051 2.051 0 0 0-1.689 1.713 2.625 2.625 0 0 0 .416 1.931 1.824 1.824 0 0 0 1.2.763 19.776 19.776 0 0 0 2.211.181c2.328.1 4.8.208 5.9 2.274a3.9 3.9 0 0 1-.245 3.974c-.825 1.194-2.442 1.914-4.811 2.053a16.96 16.96 0 0 1-.954.026h-6.59V44.144h5.974c3.935 0 5.523 1.13 5.523 3.529a3.913 3.913 0 0 1-1.5 3.254 6.1 6.1 0 0 1-3.454.678 11.276 11.276 0 0 0-1.981.148" transform="translate(-97.376 -21.361)" style="fill:#006e31"/>
            <path data-name="사각형 71" transform="translate(128.288)" style="fill:#006e31" d="M0 0h.704v59.687H0z"/>
            <path data-name="패스 379" d="M393.594 49.437q-.335-.431-.706-.833l-.018-.018c-.242-.262-.5-.516-.761-.757l-.02-.02a15.112 15.112 0 0 0-.264-.233l-.023-.02c-.264-.225-.534-.44-.814-.645l-.088-.062a12.182 12.182 0 0 0-.795-.529c-.044-.027-.088-.055-.135-.081a13.425 13.425 0 0 0-.237-.139l-.161-.089a13.293 13.293 0 0 0-.375-.2l-.2-.1-.216-.1-.219-.1-.194-.086c-.126-.053-.253-.1-.382-.154l-.184-.069c-.088-.034-.178-.065-.269-.1a15.54 15.54 0 0 0-.595-.191c-.042-.013-.084-.023-.126-.035q-.169-.048-.339-.09a15.328 15.328 0 0 0-.534-.125l-.095-.02a13.102 13.102 0 0 0-.463-.084l-.141-.022c-.124-.018-.247-.036-.371-.051l-.126-.016q-.24-.028-.482-.047l-.1-.007c-.134-.01-.27-.017-.4-.023h-.136c-.168 0-.334-.007-.5-.006a13.128 13.128 0 0 0-5.327 1.169 12.89 12.89 0 0 0-1.41.746 13.091 13.091 0 0 0-2.107 1.6 12.959 12.959 0 0 0-3.7 6.143l2.112.709a10.893 10.893 0 0 1 21.02-.26l2.115-.675a12.9 12.9 0 0 0-2.232-4.378" transform="translate(-199.851 -23.936)" style="fill:#c01"/>
            <path data-name="패스 380" d="m389.025 42.151-.322-.2-.168-.1c-.1-.058-.2-.113-.3-.169-.052-.029-.1-.059-.158-.087-.147-.078-.3-.156-.447-.231l-.067-.032-.4-.19-.163-.064c-.114-.05-.23-.1-.346-.146l-.146-.059q-.242-.1-.487-.186l-.036-.012c-.153-.054-.31-.106-.465-.156l-.151-.047a12.559 12.559 0 0 0-.378-.111l-.147-.041a16.28 16.28 0 0 0-.517-.13h-.018a13.684 13.684 0 0 0-.505-.107l-.155-.028a13.502 13.502 0 0 0-.394-.067l-.156-.024a11.75 11.75 0 0 0-.537-.07h-.011a15.681 15.681 0 0 0-.532-.048l-.162-.011c-.135-.009-.27-.016-.405-.02l-.163-.006c-.185 0-.369-.008-.556-.006a15.2 15.2 0 0 0-14.543 11.091l2.02.679a12.957 12.957 0 0 1 3.7-6.143 13.09 13.09 0 0 1 8.844-3.515c.169 0 .336 0 .5.006l.137.005c.135.006.27.012.4.023l.1.006q.243.019.484.047l.124.016c.125.015.248.032.371.052l.141.022c.155.025.309.052.463.083l.095.02a11.702 11.702 0 0 1 .534.124c.113.029.226.059.339.091l.126.035c.14.041.28.085.418.131l.178.06c.089.031.178.063.267.1l.184.069c.128.049.255.1.382.154l.194.086c.073.032.147.066.219.1l.216.1c.072.033.131.066.2.1.128.064.252.131.376.2a8.301 8.301 0 0 1 .531.31c.273.167.538.342.8.529l.087.062q.42.307.813.645l.025.02q.132.115.262.233l.021.019q.4.363.761.757a.093.093 0 0 1 .017.019c.247.267.483.545.707.833l1.695-1.281a15.226 15.226 0 0 0-3.384-3.195 13.38 13.38 0 0 0-.372-.249c-.047-.031-.095-.06-.142-.09" transform="translate(-197.486 -21.463)" style="fill:#e64800"/>
            <path data-name="패스 381" d="m381.881 35.26-.061-.012a15.57 15.57 0 0 0-.48-.088l-.163-.028a18.304 18.304 0 0 0-.428-.064l-.232-.03-.382-.043-.3-.027-.333-.026c-.13-.009-.26-.014-.391-.02l-.26-.012a18.351 18.351 0 0 0-.664-.007A17.479 17.479 0 0 0 361.5 47.524l2.163.725a15.2 15.2 0 0 1 14.543-11.092c.187 0 .37 0 .555.006l.164.006c.136.006.27.012.405.022.054 0 .108.005.162.009.177.014.356.029.532.049h.011c.181.019.359.043.538.07l.155.024c.133.02.263.042.394.067l.155.029c.17.033.338.068.505.105h.018c.174.041.345.085.517.13l.146.041.378.11.151.047c.155.05.311.1.465.156l.036.012c.164.059.326.122.487.185l.147.059c.116.048.232.1.346.147l.155.068c.135.062.27.125.4.19l.067.032c.151.075.3.152.447.231l.158.086.3.169a10.756 10.756 0 0 1 .49.3c.047.03.095.059.141.09.126.081.25.164.374.248l.06.041 1.314-1.842A17.53 17.53 0 0 0 383 35.525q-.554-.151-1.12-.267" transform="translate(-194.955 -18.822)" style="fill:#ffaf00"/>
            <path data-name="패스 382" d="M367.409 32.175c-.205.1-.407.2-.608.3l-.063.033c-.189.1-.375.2-.561.306-.031.018-.061.036-.093.053a14.09 14.09 0 0 0-.638.384q-.252.159-.5.324l-.12.081q-.243.166-.481.337l-.119.088c-.157.116-.313.233-.468.354l-.106.086q-.235.186-.463.378l-.075.065a19.673 19.673 0 0 0-1.895 1.854l-.1.107c-.1.119-.206.241-.307.362-.06.071-.119.14-.177.211-.09.111-.177.224-.265.337l-.2.254c-.081.108-.16.217-.239.326-.068.094-.136.188-.2.284s-.146.212-.217.32-.135.2-.2.307-.133.211-.2.317-.132.217-.2.328-.121.209-.181.315-.127.23-.188.346-.112.209-.165.315-.121.241-.181.364c-.049.1-.1.206-.149.311-.059.129-.115.258-.171.386-.045.1-.089.2-.131.3-.058.138-.111.277-.166.416-.036.1-.076.191-.111.287-.058.158-.113.317-.167.476-.028.081-.057.16-.083.242-.064.194-.123.393-.181.591l2.05.689a17.48 17.48 0 0 1 16.687-12.623c.222 0 .444 0 .663.007.088 0 .173.008.259.012.132.006.262.011.392.02.112.006.223.017.333.026l.3.027.381.043.233.03c.144.02.286.041.428.064l.162.027c.161.029.321.057.481.089l.06.013c.377.076.752.164 1.12.265l.581-2.063a19.826 19.826 0 0 0-5.415-.7c-.664.006-1.319.047-1.964.117a19.649 19.649 0 0 0-6.387 1.806h-.008" transform="translate(-192.555 -16.312)" style="fill:#5ea81e"/>
            <path data-name="패스 383" d="M354.806 41.351c.026-.082.056-.161.083-.242.054-.159.109-.319.167-.476.036-.1.075-.191.111-.286.054-.14.108-.28.165-.417l.132-.3c.057-.129.113-.258.173-.387.048-.1.1-.206.147-.31.06-.122.119-.244.182-.364s.108-.209.165-.314.124-.231.188-.345.119-.211.181-.317.13-.218.2-.326.13-.213.2-.318.133-.205.2-.307.142-.215.216-.32l.2-.284a12.333 12.333 0 0 1 .439-.58c.088-.113.176-.226.265-.337.058-.071.117-.14.177-.21.1-.121.2-.244.307-.362l.1-.106a19.6 19.6 0 0 1 1.9-1.855l.074-.064c.152-.129.307-.254.464-.379l.106-.085q.232-.181.469-.353l.118-.088q.238-.171.481-.335l.12-.082c.165-.111.331-.219.5-.324l.111-.069c.173-.108.349-.211.527-.313l.093-.055c.186-.1.371-.207.561-.306l.063-.032q.3-.158.608-.3h.008a19.657 19.657 0 0 1 6.386-1.806l-.235-2.154a21.807 21.807 0 0 0-18.59 15.42l2.072.695c.057-.2.116-.4.18-.592" transform="translate(-190.13 -13.929)" style="fill:#00a2cd"/>
            <path data-name="패스 384" d="M388.2 109.629c-.3-.064-.6-.127-.912-.189q-1.866-.384-3.885-.741c-2.4-.422-4.946-.812-7.621-1.149q-2.1-.265-4.309-.485-2.887-.288-5.925-.483c-.369-.024-.739-.045-1.11-.067q-2.781-.158-5.67-.224-.553-.013-1.108-.022-1.273-.02-2.56-.021-1.491 0-2.961.029c-.371.006-.74.014-1.109.023q-2.9.073-5.707.242-.556.034-1.108.07-3.016.2-5.889.494c-5.558.566-10.662 1.368-15.117 2.274a120.795 120.795 0 0 0-4.646 1.034q1.821-.265 3.734-.5c.3-.037.606-.076.912-.112 4.7-.565 9.767-1.008 15.117-1.31q2.893-.164 5.889-.273l1.108-.038q2.815-.089 5.707-.127l1.109-.013q1.473-.015 2.961-.014 1.286 0 2.56.011.556 0 1.108.012 2.873.033 5.67.119l1.11.036q3.012.1 5.925.264 2.185.122 4.309.273 3.932.279 7.621.66 1.982.207 3.885.438c.305.036.609.074.912.114q1.756.22 3.438.464-1.638-.4-3.438-.783" transform="translate(-171.799 -57.298)" style="fill:#246e37"/>
            <path data-name="패스 385" d="M342.863 68.527h5.922v9.4l1.108-.047v-9.8a27.541 27.541 0 0 1 5.67-1.464v11.105l1.109-.015V66.472a25.979 25.979 0 0 1 2.761-.15h.039a25.985 25.985 0 0 1 2.761.15v11.234l1.108.015V66.61a27.526 27.526 0 0 1 5.67 1.464v9.8l1.108.047v-9.4h5.922v9.747a138.019 138.019 0 0 1 15.814 1.963V69.413l-5.2-1.985.233-2.244.931-8.979L376.6 59.66l-2.814.866-2.159.665-1.432.441-.3.092-4.523 1.392h-11.827l-4.523-1.392-.3-.092-1.431-.441-2.159-.665-2.814-.866-11.229-3.46.931 8.979.233 2.244-5.2 1.985v10.829a138.033 138.033 0 0 1 15.814-1.963z" transform="translate(-176.376 -30.311)" style="fill:#246e37"/>
            <path data-name="패스 386" d="M380.512 59.38a1.6 1.6 0 0 1-.077.17h-.452l-.785-.258-.107-.035a1.287 1.287 0 0 1 .077-.369.944.944 0 0 1 .875-.7.576.576 0 0 1 .133.03.875.875 0 0 1 .338 1.16m11.9-4.988a.2.2 0 0 0-.169.03c-.15.127-.01.537.311.914.282.334.612.531.789.487a.16.16 0 0 0 .063-.03c.149-.128.01-.537-.31-.915a1.372 1.372 0 0 0-.683-.485m-4.161-.553c-.041 0-.081-.007-.121-.009a.836.836 0 0 0-.94.589c-.052.392.336.768.87.839a1.276 1.276 0 0 0 .229.01.8.8 0 0 0 .832-.589c.053-.392-.336-.768-.87-.84m8.157 4.1-.3.092a10.133 10.133 0 0 0-1.155-2.584 10.262 10.262 0 0 0-.792-1.088c.084.217.1.428-.083.538-.125.076-.462-.19-.588-.3-.1-.088-.646-.789-.877-1.087-.252-.274-1.371-1.234-1.765-.973-.41.269.838 1.227-.088 1.487a1.652 1.652 0 0 1-1.188-.307c-.654-.451-.773-1-1.471-1.358-.384-.2-1.4-.242-1.622.248-.193.429.1.715.055 1.11-.059.525-.887 1.007-1.6.9-.427-.062-.8-.614-.976-.716a1.483 1.483 0 0 0-2.213 1.2c-.108.549.017.867-.516 1.363-.366.341-1 .707-1.408.358-.3-.257-.292-.567-.432-.722-.083-.094-.173-.206-.547-.012-.6.311-.687 1.066-.744 1.663a5.509 5.509 0 0 1-.021 1.119c-.211-.067-.435-.141-.675-.22l-.5-.164-.833-.273a10.52 10.52 0 0 1 1.577-3.43 9.762 9.762 0 0 1 1.344-1.536 10 10 0 0 1 1.627-1.211 11.685 11.685 0 0 1 3.735-1.414 10.441 10.441 0 0 1 5.893.554 10.708 10.708 0 0 1 1.782.92 10.834 10.834 0 0 1 1.582 1.246 10.19 10.19 0 0 1 1.317 1.534 10.516 10.516 0 0 1 1.48 3.066m-18.56-1.84c-.133-.06-.409.262-.616.72s-.268.877-.135.938.409-.263.616-.721.266-.877.134-.937m3.524-2.555a.294.294 0 0 0-.264-.187 1.109 1.109 0 0 0-.683.2c-.432.274-.709.71-.618.974.051.147.207.206.408.186a1.272 1.272 0 0 0 .539-.2c.433-.274.71-.71.618-.973m4.178-1.508c.01-.223-.221-.366-.558-.387a1.624 1.624 0 0 0-.4.028c-.546.106-1 .436-1.011.739-.012.251.287.4.7.385a1.7 1.7 0 0 0 .263-.028c.544-.106 1-.436 1.011-.738m4.4.01c.048-.139-.3-.379-.78-.537a2.384 2.384 0 0 0-.609-.127c-.185-.01-.314.019-.338.09-.046.139.3.38.781.537a2.044 2.044 0 0 0 .753.127c.106-.008.176-.039.193-.09m-6.278 3.228a1.079 1.079 0 0 0-.575.121.911.911 0 0 0-.482 1.186.822.822 0 0 0 .78.411 1.087 1.087 0 0 0 .468-.121.911.911 0 0 0 .482-1.186.8.8 0 0 0-.673-.412" transform="translate(-202.814 -27.194)" style="fill:#246e37"/>
            <path data-name="패스 387" d="M488.11 30.8h-4.789v13.088h4.789a6.46 6.46 0 0 0 6.825-6.522c0-3.932-2.743-6.571-6.825-6.571m4.513 6.555a4.284 4.284 0 0 1-4.575 4.532h-2.415V32.8h2.415a4.213 4.213 0 0 1 4.576 4.548" transform="translate(-260.652 -16.608)" style="fill:#006e31"/>
            <path data-name="패스 388" d="M519.075 37.112a3.623 3.623 0 0 0 1.415-2.958c0-2.1-1.689-3.361-4.517-3.36h-5.192v13.093h5.285c3.194 0 5.1-1.4 5.1-3.74a3.145 3.145 0 0 0-2.093-3.035m-3.964-.944a.908.908 0 0 0-.748.758 1.168 1.168 0 0 0 .185.854.8.8 0 0 0 .531.336 8.208 8.208 0 0 0 .978.081c1.03.047 2.123.093 2.608 1.007a1.724 1.724 0 0 1-.109 1.758 2.639 2.639 0 0 1-2.128.907 6.962 6.962 0 0 1-.421.013h-2.914v-9.081h2.642c1.74 0 2.444.5 2.444 1.562a1.73 1.73 0 0 1-.662 1.438 2.7 2.7 0 0 1-1.528.3 4.942 4.942 0 0 0-.876.066" transform="translate(-275.461 -16.607)" style="fill:#006e31"/>
            <path data-name="패스 389" d="m484.872 78.418-1.915-6.983h.875l1.506 5.879 1.383-5.879h.981l1.371 5.859 1.524-5.859h.859l-1.982 6.983h-.885l-1.372-5.982-1.4 5.982z" transform="translate(-260.456 -38.524)" style="fill:#3c3939"/>
            <path data-name="패스 390" d="M509.094 74.8a3.833 3.833 0 0 1-.847 2.61 2.83 2.83 0 0 1-2.247.99 2.8 2.8 0 0 1-2.239-.991 4.457 4.457 0 0 1 0-5.23 2.8 2.8 0 0 1 2.239-.992 2.833 2.833 0 0 1 2.249.991 3.869 3.869 0 0 1 .847 2.62m-.857 0a3.191 3.191 0 0 0-.609-2.048 1.994 1.994 0 0 0-1.619-.791 1.967 1.967 0 0 0-1.611.791 3.746 3.746 0 0 0 0 4.1 1.968 1.968 0 0 0 1.611.791 2 2 0 0 0 1.619-.791 3.168 3.168 0 0 0 .609-2.048" transform="translate(-271.217 -38.391)" style="fill:#3c3939"/>
            <path data-name="패스 391" d="M518.958 78.418v-6.983h1.242l2.039 6.021 2.038-6.021h1.258v6.983h-.819v-5.974l-2.1 5.974h-.761l-2.086-5.944v5.944z" transform="translate(-279.871 -38.524)" style="fill:#3c3939"/>
            <path data-name="패스 392" d="M536.388 78.418v-6.983h3.639v.781H537.2v2.191h2.591v.772H537.2v2.477h2.829v.762z" transform="translate(-289.271 -38.524)" style="fill:#3c3939"/>
            <path data-name="패스 393" d="M547.1 78.418v-6.983h1.01l3.059 5.745v-5.745h.809v6.983h-.954l-3.115-5.82v5.82z" transform="translate(-295.048 -38.524)" style="fill:#3c3939"/>
            <path data-name="패스 394" d="M560.933 70.154h1.058v1.039a1.371 1.371 0 0 1-.285.838 1.387 1.387 0 0 1-.773.514v-.58a.632.632 0 0 0 .339-.272.819.819 0 0 0 .119-.434h-.458z" transform="translate(-302.508 -37.834)" style="fill:#3c3939"/>
            <path data-name="패스 395" d="m570.44 71.4-.106.714a4.928 4.928 0 0 0-1.228-.153 1.488 1.488 0 0 0-.938.272.889.889 0 0 0-.319.728.916.916 0 0 0 .466.81 10.988 10.988 0 0 0 1.029.572 2.771 2.771 0 0 1 1.072.857 1.959 1.959 0 0 1 .357 1.161 2.025 2.025 0 0 1-.324 1.191 1.89 1.89 0 0 1-.824.633 3.289 3.289 0 0 1-1.253.214 3.775 3.775 0 0 1-1.315-.258l.076-.715a4.238 4.238 0 0 0 1.354.21 1.555 1.555 0 0 0 1.014-.343 1.088 1.088 0 0 0 .395-.876 1.034 1.034 0 0 0-.457-.919 6.942 6.942 0 0 0-1.039-.577 2.748 2.748 0 0 1-1.072-.791 1.721 1.721 0 0 1-.357-1.076 1.672 1.672 0 0 1 .6-1.387 2.283 2.283 0 0 1 1.476-.481 4.862 4.862 0 0 1 .724.057 3.992 3.992 0 0 1 .668.152" transform="translate(-305.765 -38.391)" style="fill:#3c3939"/>
            <path data-name="패스 396" d="m488.419 96.268-.058.733a3.156 3.156 0 0 0-1.314-.229 2.454 2.454 0 0 0-1.858.809 2.949 2.949 0 0 0-.695 2.04 2.9 2.9 0 0 0 .695 2.019 2.383 2.383 0 0 0 1.829.8 4.088 4.088 0 0 0 1.373-.161l.047.714a3.952 3.952 0 0 1-1.43.219 3.229 3.229 0 0 1-2.466-.971 3.733 3.733 0 0 1-.925-2.667 3.92 3.92 0 0 1 .438-1.9 3.1 3.1 0 0 1 1.2-1.235 3.473 3.473 0 0 1 1.763-.439 3.3 3.3 0 0 1 1.4.268" transform="translate(-260.813 -51.772)" style="fill:#3c3939"/>
            <path data-name="패스 397" d="M496.748 103.232v-6.984h.81v2.972h3.259v-2.972h.81v6.984h-.81v-3.24h-3.259v3.24z" transform="translate(-267.894 -51.906)" style="fill:#3c3939"/>
            <path data-name="패스 398" d="m514.808 103.23-.676-1.791h-3.259l-.677 1.791h-.876l2.8-6.983h.8l2.782 6.983zm-.943-2.5-1.365-3.586-1.361 3.591z" transform="translate(-274.674 -51.905)" style="fill:#3c3939"/>
            <path data-name="패스 399" d="M525.183 103.232v-6.984h1.237l2.039 6.021 2.038-6.021h1.258v6.984h-.819v-5.974l-2.1 5.974h-.762l-2.086-5.945v5.945z" transform="translate(-283.228 -51.906)" style="fill:#3c3939"/>
            <path data-name="패스 400" d="M542.612 103.232v-6.984h1.878a2.374 2.374 0 0 1 1.7.581 1.986 1.986 0 0 1 .562 1.5 1.929 1.929 0 0 1-.562 1.5 2.419 2.419 0 0 1-1.7.573h-1.059v2.838zm.819-6.2v2.591h.962a1.66 1.66 0 0 0 1.116-.343 1.178 1.178 0 0 0 .37-.952 1.209 1.209 0 0 0-.38-.961 1.655 1.655 0 0 0-1.106-.334z" transform="translate(-292.628 -51.906)" style="fill:#3c3939"/>
            <path data-name="사각형 72" transform="translate(255.358 44.343)" style="fill:#3c3939" d="M0 0h.809v6.983H0z"/>
            <path data-name="패스 401" d="M564.883 99.611a3.831 3.831 0 0 1-.847 2.61 2.83 2.83 0 0 1-2.249.991 2.8 2.8 0 0 1-2.239-.991 4.458 4.458 0 0 1 0-5.23 2.8 2.8 0 0 1 2.239-.991 2.832 2.832 0 0 1 2.249.991 3.873 3.873 0 0 1 .847 2.62m-.857 0a3.188 3.188 0 0 0-.609-2.049 1.993 1.993 0 0 0-1.619-.791 1.966 1.966 0 0 0-1.61.791 3.745 3.745 0 0 0 0 4.1 1.967 1.967 0 0 0 1.61.791 1.994 1.994 0 0 0 1.619-.791 3.162 3.162 0 0 0 .609-2.048" transform="translate(-301.304 -51.772)" style="fill:#3c3939"/>
            <path data-name="패스 402" d="M574.745 103.232v-6.984h1.01l3.058 5.745v-5.745h.811v6.984h-.954l-3.115-5.821v5.821z" transform="translate(-309.957 -51.906)" style="fill:#3c3939"/>
            <path data-name="패스 403" d="m591.469 96.211-.106.715a4.926 4.926 0 0 0-1.228-.153 1.489 1.489 0 0 0-.938.272.891.891 0 0 0-.319.728.915.915 0 0 0 .467.811 11.193 11.193 0 0 0 1.027.572 2.757 2.757 0 0 1 1.073.857 1.963 1.963 0 0 1 .358 1.162 2.017 2.017 0 0 1-.324 1.191 1.887 1.887 0 0 1-.824.633 3.268 3.268 0 0 1-1.253.215 3.771 3.771 0 0 1-1.314-.258l.076-.715a4.226 4.226 0 0 0 1.354.21 1.551 1.551 0 0 0 1.014-.343 1.089 1.089 0 0 0 .4-.875 1.037 1.037 0 0 0-.458-.92 7.139 7.139 0 0 0-1.037-.576 2.743 2.743 0 0 1-1.073-.791 1.72 1.72 0 0 1-.364-1.077 1.67 1.67 0 0 1 .6-1.385 2.28 2.28 0 0 1 1.479-.484 4.952 4.952 0 0 1 .724.057 4.055 4.055 0 0 1 .666.152" transform="translate(-317.106 -51.773)" style="fill:#3c3939"/>
            <path data-name="패스 404" d="M598.939 103.232v-6.984h.809v2.972h3.259v-2.972h.809v6.984h-.809v-3.24h-3.259v3.24z" transform="translate(-323.004 -51.906)" style="fill:#3c3939"/>
            <path data-name="사각형 73" transform="translate(282.261 44.343)" style="fill:#3c3939" d="M0 0h.809v6.983H0z"/>
            <path data-name="패스 405" d="M617.59 103.232v-6.984h1.878a2.372 2.372 0 0 1 1.7.581 1.985 1.985 0 0 1 .562 1.5 1.927 1.927 0 0 1-.562 1.5 2.416 2.416 0 0 1-1.7.573h-1.058v2.838zm.82-6.2v2.591h.961a1.661 1.661 0 0 0 1.116-.343 1.18 1.18 0 0 0 .37-.952 1.212 1.212 0 0 0-.38-.961 1.659 1.659 0 0 0-1.107-.334z" transform="translate(-333.063 -51.906)" style="fill:#3c3939"/>
        </g>
    </g>
</svg>
