<svg xmlns="http://www.w3.org/2000/svg" width="490" height="105.453" viewBox="0 0 490 105.453">
    <defs>
        <clipPath id="h46k2gdnga">
            <path data-name="사각형 3" style="fill:none" d="M0 0h490v105.453H0z"/>
        </clipPath>
    </defs>
    <g data-name="그룹 2" style="clip-path:url(#h46k2gdnga)">
        <path data-name="패스 1" d="m28.2 16.538-.032.023-.109 1.531z" transform="translate(17.464 10.292)" style="fill:#fff"/>
        <path data-name="패스 2" d="m19.063 20.772-.863-7.941s.148-3.019 3.019-3.241S38.452 7.307 38.3 16.144c-.282 3.884-.43 5.886-.506 6.921-2.427 1.27-4.293 3.767-5.44 7.236a.1.1 0 0 1-.195-.01 10.8 10.8 0 0 0-3.289-6.527 11.138 11.138 0 0 0-9.812-2.992M32.3 34.895c-1.262 9.306-3.378 26.376-3.378 26.376h5.464l3.357-37.079C34.96 25.951 33 29.786 32.3 34.895m-14.26 41.4H40v-3.686H18.044zM23.5 62.23l-3.676 9.5h18.392l-3.748-9.5zm4.74-37.746a10.174 10.174 0 0 0-9.074-2.755L23.5 61.271h4.46s3.462-26.864 3.478-27.048c.245-2.679-.281-7.213-3.2-9.739" transform="translate(11.23 5.742)" style="fill:#fff"/>
        <path data-name="패스 3" d="M0 29.028C9.186-.739 46.907-9.179 69.2 12.019c16.17 15.524 17.9 41.237 3.246 58.348A39.78 39.78 0 0 1 55.5 81.946a47.141 47.141 0 0 0 8.261-5.8C81.645 60.633 82.821 32.235 65.5 15.9 44.946-3.546 12.083 3.815 0 29.028" transform="translate(0 .147)" style="fill:#fff"/>
        <path data-name="패스 4" d="M27.468 0C54.993.556 74.107 27.432 66.81 53.231A41.105 41.105 0 0 1 53.2 74a43.8 43.8 0 0 0 13.24-27.142C68.749 23.357 51.349 2.412 27.468 0" transform="translate(17.095)" style="fill:#fff"/>
        <path data-name="패스 5" d="M8.133 54.086H5.6v.208a.449.449 0 0 0 .31.451v5.7a.434.434 0 0 0-.282.43v.18h1.766v-.18a.434.434 0 0 0-.292-.43v-1.88h.985a2.86 2.86 0 0 0 1.968-.621 2.065 2.065 0 0 0 .683-1.609 2.138 2.138 0 0 0-.683-1.627 2.785 2.785 0 0 0-1.921-.621M7.1 55.168h.777c1.116 0 1.658.381 1.658 1.166 0 .758-.558 1.141-1.658 1.141H7.1z" transform="translate(3.486 33.66)" style="fill:#fff"/>
        <path data-name="패스 6" d="m11.448 58.439 1.807 2.58.024.034h1.462v-.117c0-.208-.1-.479-.552-.608l-1.457-1.989a2.281 2.281 0 0 0 1-.466 2.195 2.195 0 0 0 .01-3.194 2.881 2.881 0 0 0-1.921-.592H9.287v.208a.45.45 0 0 0 .31.451v5.7a.427.427 0 0 0-.282.43v.18h1.765v-.18a.434.434 0 0 0-.292-.43v-2zm.115-3.271c1.486 0 1.66.629 1.66 1.1 0 .75-.511 1.085-1.66 1.085h-.775v-2.185z" transform="translate(5.78 33.66)" style="fill:#fff"/>
        <path data-name="패스 7" d="M20.068 57.619a3.663 3.663 0 0 0-1.024-2.554 3.435 3.435 0 0 0-2.528-1.053 3.375 3.375 0 0 0-2.507 1.053 3.663 3.663 0 0 0 0 5.106 3.329 3.329 0 0 0 2.508 1.045 3.43 3.43 0 0 0 2.528-1.043 3.663 3.663 0 0 0 1.024-2.554m-3.551 2.507a2.161 2.161 0 0 1-1.663-.722 2.59 2.59 0 0 1-.688-1.785 2.62 2.62 0 0 1 .689-1.785 2.155 2.155 0 0 1 1.661-.722 2.23 2.23 0 0 1 1.681.722 2.654 2.654 0 0 1 .68 1.785A2.622 2.622 0 0 1 18.2 59.4a2.236 2.236 0 0 1-1.682.722" transform="translate(8.074 33.615)" style="fill:#fff"/>
        <path data-name="패스 8" d="M18.175 54.745v5.7a.428.428 0 0 0-.282.43v.18h1.72v-.18a.434.434 0 0 0-.282-.43v-4.793L21 60.671a.61.61 0 0 0 .594.474.6.6 0 0 0 .6-.475l1.71-5.028v4.8a.435.435 0 0 0-.282.43v.18h1.71v-.18a.434.434 0 0 0-.282-.43v-5.7a.448.448 0 0 0 .31-.449v-.209h-2.044l-1.708 5.24-1.726-5.24h-2.017v.216a.448.448 0 0 0 .31.449" transform="translate(11.118 33.66)" style="fill:#fff"/>
        <path data-name="패스 9" d="M27.376 54.23a.506.506 0 0 0 .083.29l-1.551 2.674-1.551-2.674a.491.491 0 0 0 .083-.29v-.144H22.8v.154a.5.5 0 0 0 .391.506l2.114 3.606v2.09a.434.434 0 0 0-.282.43v.18h1.765v-.18a.434.434 0 0 0-.292-.43v-2.09l2.132-3.606a.5.5 0 0 0 .383-.506v-.154h-1.635z" transform="translate(14.191 33.66)" style="fill:#fff"/>
        <path data-name="패스 10" d="M31.979 54.013a3.382 3.382 0 0 0-2.508 1.053 3.665 3.665 0 0 0 0 5.106 3.331 3.331 0 0 0 2.508 1.045 3.429 3.429 0 0 0 2.526-1.043 3.693 3.693 0 0 0 0-5.107 3.434 3.434 0 0 0-2.526-1.053m0 6.113a2.185 2.185 0 0 1-1.663-.722 2.581 2.581 0 0 1-.689-1.785 2.617 2.617 0 0 1 .689-1.785 2.185 2.185 0 0 1 1.663-.722 2.235 2.235 0 0 1 1.681.722 2.654 2.654 0 0 1 .68 1.785 2.618 2.618 0 0 1-.68 1.785 2.235 2.235 0 0 1-1.681.722" transform="translate(17.697 33.615)" style="fill:#fff"/>
        <path data-name="패스 11" d="M37.781 54.707a2.788 2.788 0 0 0-1.921-.621h-2.531v.208a.45.45 0 0 0 .31.451v5.7a.425.425 0 0 0-.282.43v.18h1.765v-.18a.434.434 0 0 0-.292-.43v-1.88h.985a2.858 2.858 0 0 0 1.966-.621 2.06 2.06 0 0 0 .683-1.609 2.138 2.138 0 0 0-.683-1.627m-2.951.461h.775c1.115 0 1.658.381 1.658 1.166 0 .758-.558 1.141-1.658 1.141h-.775z" transform="translate(20.742 33.66)" style="fill:#fff"/>
        <path data-name="패스 12" d="M41.269 59.971H38.7c-.127 0-.174-.045-.174-.165v-1.723h2.714a.532.532 0 0 0 .529-.537.521.521 0 0 0-.529-.526h-2.716v-1.851h2.726a.437.437 0 0 0 .419.263h.18v-1.345h-4.835v.208a.447.447 0 0 0 .31.449v5.5c0 .529.307.81.884.81h3.65v-1.337h-.17a.424.424 0 0 0-.419.255" transform="translate(23.036 33.661)" style="fill:#fff"/>
        <path data-name="패스 13" d="M44.941 54.086v.18a.441.441 0 0 0 .282.44v4.26l-2.534-4.838-.023-.042H40.65v.208a.45.45 0 0 0 .31.451v5.7a.427.427 0 0 0-.282.43v.18h1.765v-.18a.434.434 0 0 0-.292-.43V55.5l2.8 5.063c.219.389.472.579.772.579a.478.478 0 0 0 .125-.011c.37-.071.556-.384.556-.928v-5.5a.441.441 0 0 0 .282-.44v-.18z" transform="translate(25.299 33.66)" style="fill:#fff"/>
        <path data-name="패스 14" d="m13.8 63.127-.414-.149c-.688-.23-1.051-.509-1.051-.806 0-.394.365-.659.907-.659a1.87 1.87 0 0 1 1.2.555.423.423 0 0 0 .423.365h.154v-1.464h-.148a.367.367 0 0 0-.227.068 2.131 2.131 0 0 0-1.4-.464 2.081 2.081 0 0 0-1.376.474 1.5 1.5 0 0 0-.574 1.184c0 .464.214 1.1 1.239 1.481.271.105.524.2.771.292a3.981 3.981 0 0 1 .686.342.554.554 0 0 1 .279.47.648.648 0 0 1-.281.534 1.252 1.252 0 0 1-.753.216 1.5 1.5 0 0 1-.821-.255 1.694 1.694 0 0 1-.466-.488.451.451 0 0 0-.388-.213.468.468 0 0 0-.469.469.521.521 0 0 0 .05.219 2.064 2.064 0 0 0 .74.85 2.452 2.452 0 0 0 1.368.365 2.185 2.185 0 0 0 1.46-.49 1.569 1.569 0 0 0 .6-1.214c0-.759-.477-1.293-1.5-1.684" transform="translate(6.902 37.698)" style="fill:#fff"/>
        <path data-name="패스 15" d="M14.109 60.8a.381.381 0 0 0 .232.37v4.689a.366.366 0 0 0-.232.362v.162h1.478v-.162a.366.366 0 0 0-.232-.362v-4.693a.381.381 0 0 0 .232-.37v-.164h-1.478z" transform="translate(8.781 37.734)" style="fill:#fff"/>
        <path data-name="패스 16" d="M18.96 60.8a.381.381 0 0 0 .232.37v3.426l-2.054-3.916-.023-.044h-1.676v.187a.377.377 0 0 0 .253.378v4.658a.366.366 0 0 0-.232.362v.162h1.478v-.162a.367.367 0 0 0-.24-.362v-3.994l2.271 4.106c.183.324.4.482.647.482a.483.483 0 0 0 .105-.008c.311-.06.469-.321.469-.775v-4.5a.379.379 0 0 0 .23-.37v-.164h-1.46z" transform="translate(9.608 37.734)" style="fill:#fff"/>
        <path data-name="패스 17" d="M23.474 65.118a.543.543 0 0 0-.284.1 2.437 2.437 0 0 1-1.345.376 1.844 1.844 0 0 1-1.355-.581 2.065 2.065 0 0 1-.553-1.447 2.092 2.092 0 0 1 .553-1.47 1.8 1.8 0 0 1 1.355-.589 2.431 2.431 0 0 1 1.416.435.37.37 0 0 0 .118.23.413.413 0 0 0 .3.12h.156v-1.443h-.148a.342.342 0 0 0-.279.112 2.988 2.988 0 0 0-1.559-.389 2.82 2.82 0 0 0-2.062.855 2.876 2.876 0 0 0-.861 2.135 2.928 2.928 0 0 0 2.923 2.951 3.027 3.027 0 0 0 1.888-.571.457.457 0 0 0 .187-.376.451.451 0 0 0-.454-.448" transform="translate(11.781 37.697)" style="fill:#fff"/>
        <path data-name="패스 18" d="M25.965 65.463h-2.1c-.1 0-.13-.031-.13-.122v-1.4h2.215a.451.451 0 0 0 .448-.454.442.442 0 0 0-.448-.446h-2.214V61.55h2.215a.367.367 0 0 0 .352.217h.162v-1.134h-4v.185a.381.381 0 0 0 .253.38v4.5c0 .31.128.68.74.68h3.011v-1.125h-.156a.361.361 0 0 0-.352.209" transform="translate(13.984 37.735)" style="fill:#fff"/>
        <path data-name="패스 19" d="M30.344 65.492h-1.806l1.4-1.385a2.48 2.48 0 0 0 .868-1.726 1.718 1.718 0 0 0-.547-1.285 2.08 2.08 0 0 0-2.766.008 1.884 1.884 0 0 0-.54.975 1.121 1.121 0 0 0-.031.221.486.486 0 0 0 .492.492.481.481 0 0 0 .35-.143.492.492 0 0 0 .136-.249.941.941 0 0 1 .915-.889.866.866 0 0 1 .982.9 2.03 2.03 0 0 1-.74 1.228l-1.895 1.9a.6.6 0 0 0-.237.449.525.525 0 0 0 .018.118c.055.2.255.307.594.307h3.318v-1.138H30.7a.369.369 0 0 0-.352.217" transform="translate(16.755 37.698)" style="fill:#fff"/>
        <path data-name="패스 20" d="M32.087 60.573c-1.353 0-2.129 1.089-2.129 2.99 0 1.875.775 2.951 2.129 2.951s2.107-1.076 2.107-2.951c0-1.9-.767-2.99-2.107-2.99m0 5.016c-.74 0-1.115-.681-1.115-2.026 0-1.385.365-2.059 1.115-2.059.73 0 1.1.693 1.1 2.059 0 1.345-.37 2.026-1.1 2.026" transform="translate(18.644 37.698)" style="fill:#fff"/>
        <path data-name="패스 21" d="M35.179 60.573c-1.353 0-2.129 1.089-2.129 2.99 0 1.875.775 2.951 2.129 2.951s2.107-1.076 2.107-2.951c0-1.9-.767-2.99-2.107-2.99m0 5.016c-.74 0-1.116-.681-1.116-2.026 0-1.385.367-2.059 1.116-2.059.73 0 1.1.693 1.1 2.059 0 1.345-.37 2.026-1.1 2.026" transform="translate(20.569 37.698)" style="fill:#fff"/>
        <path data-name="패스 22" d="M38.343 62.471a1.7 1.7 0 0 0-.861.247l.247-1.17h1.741a.371.371 0 0 0 .36.219h.156v-1.134h-3.024l-.545 2.467a1.192 1.192 0 0 0-.032.273.449.449 0 0 0 .273.462.7.7 0 0 0 .766-.177A1.177 1.177 0 0 1 39 63.67a1.129 1.129 0 0 1-.013 1.561 1.117 1.117 0 0 1-.826.328 1.08 1.08 0 0 1-.787-.32 1.448 1.448 0 0 1-.29-.389.484.484 0 0 0-.448-.29.5.5 0 0 0-.492.49.776.776 0 0 0 .154.409 2.264 2.264 0 0 0 .451.527 2.115 2.115 0 0 0 1.411.49 2.19 2.19 0 0 0 1.544-.578 1.96 1.96 0 0 0 .623-1.424 1.993 1.993 0 0 0-.607-1.431 1.865 1.865 0 0 0-1.381-.571" transform="translate(22.495 37.735)" style="fill:#fff"/>
        <path data-name="사각형 1" transform="translate(108.256)" style="fill:#fff" d="M0 0h.709v105.453H0z"/>
        <path data-name="패스 23" d="M90.049 12.259v4.135h-2.187a1.262 1.262 0 0 0-.9.372 1.36 1.36 0 0 0-.365.915 1.248 1.248 0 0 0 1.262 1.261h2.187v11.531a1.286 1.286 0 0 0 .389.938 1.238 1.238 0 0 0 .97.42 1.316 1.316 0 0 0 .967-.417 1.289 1.289 0 0 0 .393-.941V10.818h-3.326v.333a1.122 1.122 0 0 0 .61 1.108" transform="translate(53.895 6.733)" style="fill:#fff"/>
        <path data-name="패스 24" d="M92.824 31.831a1.42 1.42 0 0 0 1.384-1.384V10.818h-2.769v19.629a1.421 1.421 0 0 0 1.385 1.384" transform="translate(56.907 6.733)" style="fill:#fff"/>
        <path data-name="패스 25" d="M84.28 19.524a15.029 15.029 0 0 1-2.554 3.55 1.483 1.483 0 0 0-.417 1.016 1.254 1.254 0 0 0 1.163 1.31.413.413 0 0 1 .07.011.629.629 0 0 0 .1.013 1.281 1.281 0 0 0 .816-.315 13.587 13.587 0 0 0 3.128-4.286c.029-.067.065-.144.1-.23s.084-.18.13-.284c.045.109.088.2.128.292l.068.153a13.081 13.081 0 0 0 3.13 4.285 1.3 1.3 0 0 0 .837.289h.135a1.384 1.384 0 0 0 .863-.449 1.348 1.348 0 0 0 .287-.836 1.592 1.592 0 0 0-.417-1.016 14.443 14.443 0 0 1-2.576-3.55 11.621 11.621 0 0 1-1.09-5.389v-.133h2.5a1.247 1.247 0 0 0 1.261-1.261 1.356 1.356 0 0 0-.368-.918 1.252 1.252 0 0 0-.892-.368H82.84a1.256 1.256 0 0 0-.894.368 1.281 1.281 0 0 0-.393.918 1.2 1.2 0 0 0 .393.917 1.229 1.229 0 0 0 .894.344h2.554v.182a11.325 11.325 0 0 1-1.115 5.389" transform="translate(50.603 7.099)" style="fill:#fff"/>
        <path data-name="패스 26" d="M95.806 27.289a1.8 1.8 0 0 0-.714 1.337 1.3 1.3 0 0 0 .037.274l.015.067c.157.579.753.871 1.772.871h10.677V26.46h-.331a1.046 1.046 0 0 0-1.038.709h-6.455l4.887-4.841c1.851-1.825 2.79-3.681 2.79-5.516a5.448 5.448 0 0 0-1.739-4.074 6.622 6.622 0 0 0-8.8.024 5.943 5.943 0 0 0-1.71 3.1 3.058 3.058 0 0 0-.1.68 1.415 1.415 0 0 0 1.431 1.433 1.443 1.443 0 0 0 1.408-1.124 3.281 3.281 0 0 1 3.167-3.057c2.088 0 3.386 1.194 3.386 3.117 0 1.111-.832 2.5-2.469 4.145z" transform="translate(59.181 6.893)" style="fill:#fff"/>
        <path data-name="패스 27" d="M111.53 11.075c-4.314 0-6.788 3.5-6.788 9.6 0 6.024 2.474 9.479 6.788 9.479 4.332 0 6.717-3.366 6.717-9.479 0-6.191-2.385-9.6-6.717-9.6m3.778 9.6c0 4.518-1.272 6.811-3.778 6.811-2.539 0-3.826-2.292-3.826-6.811 0-4.648 1.251-6.908 3.826-6.908 2.507 0 3.778 2.325 3.778 6.908" transform="translate(65.186 6.893)" style="fill:#fff"/>
        <path data-name="패스 28" d="M115.588 27.8h14.27v2.677a1.456 1.456 0 0 0 1.433 1.408 1.426 1.426 0 0 0 1.407-1.408v-19.6h-3.451v.333a1.122 1.122 0 0 0 .612 1.108V25.23h-6.431v-2.018a5.8 5.8 0 0 0 2.685-1.35 4.975 4.975 0 0 0 1.244-5.73 5.916 5.916 0 0 0-.516-.852h.9a1.253 1.253 0 0 0 .892-.368 1.174 1.174 0 0 0 .344-.87 1.225 1.225 0 0 0-.344-.892 1.253 1.253 0 0 0-.892-.368h-4.121v-2.054h-3.06v2.054h-4.291a1.25 1.25 0 0 0-1.236 1.261 1.268 1.268 0 0 0 1.236 1.238h.871a3.959 3.959 0 0 0-.485.827 4.625 4.625 0 0 0-.449 2.02 4.968 4.968 0 0 0 1.668 3.733 5.842 5.842 0 0 0 2.711 1.376v1.993h-5a1.286 1.286 0 1 0 0 2.571m3.438-9.674a2.528 2.528 0 0 1 .876-1.942A2.962 2.962 0 0 1 122 15.4a3.076 3.076 0 0 1 2.117.784 2.584 2.584 0 0 1 .852 1.942 2.515 2.515 0 0 1-.852 1.918 3 3 0 0 1-2.117.808 2.886 2.886 0 0 1-2.094-.81 2.422 2.422 0 0 1-.876-1.916" transform="translate(71.135 6.677)" style="fill:#fff"/>
        <path data-name="패스 29" d="M91.968 32.033H81.445v.7a1.726 1.726 0 0 0 1.278 1.746V57.3c0 2.114 1.173 3.185 3.486 3.185h5.758a14.159 14.159 0 0 0 10.469-4 13.683 13.683 0 0 0 4.04-10.133 13.834 13.834 0 0 0-14.508-14.319m9.909 14.322a9.554 9.554 0 0 1-2.807 7.288 10.821 10.821 0 0 1-7.781 2.7H88.2c-.616 0-.879-.251-.879-.842v-19.32h3.965a10.816 10.816 0 0 1 7.781 2.735 9.994 9.994 0 0 1 2.807 7.438" transform="translate(50.687 19.936)" style="fill:#fff"/>
        <path data-name="패스 30" d="M117.117 45.513a5.8 5.8 0 0 0 2.021-1.608 6.275 6.275 0 0 0 1.433-4.1 7.148 7.148 0 0 0-1.314-4.507c-1.7-2.262-4.338-3.269-8.569-3.269H98.773v.7a1.727 1.727 0 0 0 1.28 1.746V57.3c0 2.114 1.173 3.185 3.486 3.185h7.45c3.316 0 5.737-.563 7.4-1.721a7.842 7.842 0 0 0 3.35-6.5 6.9 6.9 0 0 0-1.506-4.439 7.455 7.455 0 0 0-3.113-2.312m.019 6.562a3.927 3.927 0 0 1-2.309 3.679 12.222 12.222 0 0 1-4.666.586h-4.629c-.617 0-.879-.251-.879-.842v-7.764h5.508a10.479 10.479 0 0 1 4.655.693h.01a3.762 3.762 0 0 1 2.31 3.644m-12.482-8.341v-7.547h5.543c5.081 0 5.733 2.038 5.733 3.813 0 2.691-1.608 3.74-5.733 3.74z" transform="translate(61.471 19.936)" style="fill:#fff"/>
        <path data-name="패스 31" d="M138.3 50.593h-15.2c-.626 0-.918-.3-.918-.954v-4.2h-5.427v.55a1.768 1.768 0 0 0 .939 1.731v2.935c0 2.612 1.389 3.937 4.126 3.937h16.48a2 2 0 0 0 0-4" transform="translate(72.661 28.279)" style="fill:#fff"/>
        <path data-name="패스 32" d="M131.247 31.337h-5.579v.55a1.78 1.78 0 0 0 .861 1.686c-.075 1.595-1.017 3.289-2.8 5.034a16.316 16.316 0 0 1-6.371 3.727 2.192 2.192 0 0 0-1.3.982 1.954 1.954 0 0 0 1.506 2.857h.188a3.568 3.568 0 0 0 .881-.12 21.049 21.049 0 0 0 6.634-3.486 14.448 14.448 0 0 0 3.777-3.921 15.484 15.484 0 0 0 3.767 3.918 20.452 20.452 0 0 0 6.681 3.491 3.229 3.229 0 0 0 .837.118h.2a1.7 1.7 0 0 0 1.5-1.037 2.022 2.022 0 0 0 .242-.944 1.762 1.762 0 0 0-.245-.873 2.191 2.191 0 0 0-1.3-.985 17.626 17.626 0 0 1-6.407-3.725 9.017 9.017 0 0 1-3.07-6.682z" transform="translate(72.098 19.503)" style="fill:#fff"/>
        <path data-name="패스 33" d="M143.086 43.654h-11.039v-4.779h-5.391v.552a1.769 1.769 0 0 0 .941 1.731v2.5h-11.076a1.989 1.989 0 0 0-1.447.584 2.123 2.123 0 0 0-.571 1.434 1.963 1.963 0 0 0 .571 1.4 1.892 1.892 0 0 0 1.447.623h26.564a2.007 2.007 0 0 0 1.441-.615 1.974 1.974 0 0 0 .578-1.4 1.974 1.974 0 0 0-2.018-2.018" transform="translate(71.261 24.194)" style="fill:#fff"/>
        <path data-name="패스 34" d="M153.255 40.631h-2.21v-9.294h-5.2v.55a1.768 1.768 0 0 0 .941 1.731v28a2.016 2.016 0 0 0 .608 1.471 1.95 1.95 0 0 0 1.522.66 2.064 2.064 0 0 0 1.517-.654 2.028 2.028 0 0 0 .615-1.478V44.629h2.21v16.947a2.168 2.168 0 1 0 4.337 0V31.337h-4.337z" transform="translate(90.765 19.503)" style="fill:#fff"/>
        <path data-name="패스 35" d="M150.892 34.359h-4.943V31.2h-4.639v3.16h-5.169a1.88 1.88 0 0 0-1.373.584 2.024 2.024 0 0 0-.571 1.4 2 2 0 0 0 1.944 1.944h.8a8.682 8.682 0 0 0-1.188 2.012 8.427 8.427 0 0 0-.73 3.459 9.085 9.085 0 0 0 2.534 6.293 8.231 8.231 0 0 0 12.028 0 9.121 9.121 0 0 0 1.8-9.745 8.676 8.676 0 0 0-1.189-2.017h.689a2 2 0 0 0 1.942-1.944 2.029 2.029 0 0 0-.578-1.4 1.873 1.873 0 0 0-1.364-.578m-3.073 9.28c0 2.787-1.913 5.057-4.265 5.057a4.012 4.012 0 0 1-3.065-1.481 5.92 5.92 0 0 1 0-7.155 4.014 4.014 0 0 1 3.063-1.478c2.352 0 4.265 2.27 4.265 5.057" transform="translate(83.518 19.417)" style="fill:#fff"/>
        <path data-name="패스 36" d="M183.36 54.811h-11.04v-4.882h4.567c2.737 0 4.126-1.325 4.126-3.937v-13.8h-5.391v.552a1.769 1.769 0 0 0 .941 1.731v2.761H163.59v-5.041h-5.39v.552a1.764 1.764 0 0 0 .939 1.729v11.515c0 2.612 1.389 3.937 4.126 3.937h4.6v4.882h-11.071a2 2 0 0 0-1.447.584 2.117 2.117 0 0 0-.571 1.434 1.957 1.957 0 0 0 .571 1.4 1.888 1.888 0 0 0 1.447.621h26.566a2 2 0 0 0 1.439-.615 1.962 1.962 0 0 0 .578-1.4 1.974 1.974 0 0 0-2.017-2.018M163.59 41.2h12.972v3.777c0 .651-.292.954-.917.954h-11.138c-.625 0-.917-.3-.917-.954z" transform="translate(96.325 20.037)" style="fill:#fff"/>
        <path data-name="패스 37" d="M178.507 44.228a1.769 1.769 0 0 0 .941 1.731v5.793c0 2.614 1.387 3.937 4.126 3.937h13.018c2.738 0 4.126-1.324 4.126-3.937v-8.076h-22.21zm17.76 3.259v3.438c0 .652-.292.956-.917.956h-10.535c-.625 0-.917-.3-.917-.956v-3.438z" transform="translate(111.094 27.182)" style="fill:#fff"/>
        <path data-name="패스 38" d="M197.491 32.09a1.765 1.765 0 0 0 .941 1.729v6.186h-5.461a7.482 7.482 0 0 0-1.382-2.249h1.449a1.854 1.854 0 0 0 1.327-.578 1.745 1.745 0 0 0 .54-1.29 1.811 1.811 0 0 0-.54-1.327 1.857 1.857 0 0 0-1.327-.578h-5.508v-2.97h-4.789v2.972H176.9a1.77 1.77 0 0 0-1.29.578 1.857 1.857 0 0 0-.578 1.327 1.745 1.745 0 0 0 .54 1.29 1.781 1.781 0 0 0 1.327.578h1.715a8.123 8.123 0 0 0-1.2 1.825 7.445 7.445 0 0 0-.655 3 7.344 7.344 0 0 0 2.43 5.436 8.85 8.85 0 0 0 11.825 0 7.476 7.476 0 0 0 2.322-4.205h5.1v4.643a2.225 2.225 0 0 0 4.45 0V31.539h-5.391zm-8.465 10.385a3.936 3.936 0 0 1-3.928 4 3.7 3.7 0 0 1-2.774-1.191 3.842 3.842 0 0 1-1.153-2.812 3.96 3.96 0 0 1 1.153-2.849 3.752 3.752 0 0 1 2.774-1.153 3.841 3.841 0 0 1 2.81 1.152 3.945 3.945 0 0 1 1.118 2.85" transform="translate(108.929 19.301)" style="fill:#fff"/>
        <path data-name="패스 39" d="M227.419 45.9h-26.566a1.962 1.962 0 0 0-1.4.578 2.009 2.009 0 0 0-.616 1.441 1.88 1.88 0 0 0 .616 1.441 1.972 1.972 0 0 0 1.4.578h26.566a2.013 2.013 0 0 0 1.441-.615 1.975 1.975 0 0 0 .578-1.4 1.976 1.976 0 0 0-2.018-2.018" transform="translate(123.745 28.568)" style="fill:#fff"/>
        <path data-name="패스 40" d="M202.407 45.677a1.981 1.981 0 0 0-1.4.578 2.007 2.007 0 0 0-.615 1.441 1.957 1.957 0 0 0 .571 1.4 1.889 1.889 0 0 0 1.447.623h21.561a2.007 2.007 0 0 0 1.441-.615 1.976 1.976 0 0 0 .578-1.4 1.974 1.974 0 0 0-2.018-2.018h-2.724v-9.293h2.2a2 2 0 0 0 1.439-.613 1.972 1.972 0 0 0 .578-1.4 1.973 1.973 0 0 0-2.017-2.017h-20.514a1.966 1.966 0 0 0-1.4.578 2.006 2.006 0 0 0-.615 1.439 1.961 1.961 0 0 0 .571 1.4 1.888 1.888 0 0 0 1.447.621h2.2v9.285zm7.135-9.285h7.328v9.285h-7.328z" transform="translate(124.712 20.138)" style="fill:#fff"/>
        <path data-name="패스 41" d="M247.556 54.842h-11.04V50.75h7.352a1.974 1.974 0 0 0 1.4-.578 1.838 1.838 0 0 0 .539-1.364 1.93 1.93 0 0 0-.539-1.4 1.969 1.969 0 0 0-1.4-.578H228.7c-.626 0-.918-.3-.918-.956v-2.425h17.422V32.265h-20.262a1.888 1.888 0 0 0-1.4.539 2.088 2.088 0 0 0 0 2.883 1.894 1.894 0 0 0 1.4.576h15.818v3.264h-17.422v7.286c0 2.614 1.387 3.937 4.124 3.937h4.606v4.092H220.99a2 2 0 0 0-1.447.584 2.125 2.125 0 0 0-.571 1.434 1.965 1.965 0 0 0 .573 1.4 1.893 1.893 0 0 0 1.446.621h26.566a2.013 2.013 0 0 0 1.443-.618 1.976 1.976 0 0 0 .578-1.4 1.976 1.976 0 0 0-2.018-2.018" transform="translate(136.277 20.08)" style="fill:#fff"/>
        <path data-name="패스 42" d="M240.2 32.792a1.768 1.768 0 0 0 .941 1.729V49.16c0 2.612 1.389 3.937 4.126 3.937h7.752c2.737 0 4.126-1.325 4.126-3.937V32.242H240.2zm12.531 3.447v11.9c0 .652-.292.956-.917.956h-5.344c-.626 0-.918-.3-.918-.956v-11.9z" transform="translate(149.487 20.066)" style="fill:#fff"/>
        <path data-name="패스 43" d="M253.094 31.886a1.768 1.768 0 0 0 .941 1.731v27.919a2.283 2.283 0 0 0 2.244 2.206 2.235 2.235 0 0 0 2.206-2.206v-30.2h-5.391z" transform="translate(157.513 19.503)" style="fill:#fff"/>
        <path data-name="패스 44" d="M291.615 55.112h-11.039v-4.08a10.7 10.7 0 0 0 5.436-2.614 9.3 9.3 0 0 0 3.18-6.939c0-5.388-4.872-9.77-10.86-9.77s-10.862 4.382-10.862 9.77a9.3 9.3 0 0 0 3.183 6.942 11.711 11.711 0 0 0 5.472 2.646v4.046h-11.076a1.988 1.988 0 0 0-1.445.586 2.114 2.114 0 0 0-.571 1.433 1.954 1.954 0 0 0 .571 1.4 1.888 1.888 0 0 0 1.445.623h26.566a2.007 2.007 0 0 0 1.441-.615 1.966 1.966 0 0 0 .578-1.4 1.974 1.974 0 0 0-2.018-2.018m-6.872-13.634a5.372 5.372 0 0 1-1.823 4.048 7.082 7.082 0 0 1-9.176 0 5.4 5.4 0 0 1 0-8.092 7.082 7.082 0 0 1 9.173 0 5.367 5.367 0 0 1 1.822 4.046" transform="translate(163.698 19.733)" style="fill:#fff"/>
        <path data-name="패스 45" d="M306.964 50.478h-15.2c-.625 0-.917-.3-.917-.954v-3.9h-5.428v.552a1.769 1.769 0 0 0 .941 1.731v2.633c0 2.612 1.387 3.937 4.126 3.937h16.48a2 2 0 0 0 0-4" transform="translate(177.63 28.394)" style="fill:#fff"/>
        <path data-name="패스 46" d="M313.186 42.484a2.121 2.121 0 0 0-1.433-.571h-26.566a1.969 1.969 0 0 0-1.4.578 2.007 2.007 0 0 0-.615 1.441 1.884 1.884 0 0 0 .615 1.441 1.976 1.976 0 0 0 1.4.578h26.566a2.006 2.006 0 0 0 1.439-.615 1.969 1.969 0 0 0 .578-1.4 2.126 2.126 0 0 0-.584-1.447" transform="translate(176.23 26.085)" style="fill:#fff"/>
        <path data-name="패스 47" d="M286.7 41.555a1.888 1.888 0 0 0-1.4.54 1.994 1.994 0 0 0-.576 1.441 1.944 1.944 0 0 0 .576 1.441 1.888 1.888 0 0 0 1.4.54h21.636a1.984 1.984 0 0 0 1.441-.578 1.888 1.888 0 0 0 .54-1.4 1.859 1.859 0 0 0-1.981-1.981H305.5v-5.749h2.31a1.994 1.994 0 0 0 1.441-.578 1.881 1.881 0 0 0 .539-1.4 1.857 1.857 0 0 0-1.979-1.981H287.23a1.882 1.882 0 0 0-1.4.54 1.989 1.989 0 0 0-.578 1.441 1.943 1.943 0 0 0 .578 1.441 1.882 1.882 0 0 0 1.4.54h2.309v5.746zm7.249-5.746h7.177v5.746h-7.177z" transform="translate(177.197 19.82)" style="fill:#fff"/>
        <path data-name="사각형 2" transform="translate(355.285 17.023)" style="fill:#f15a22" d="M0 0h133.229v23.485H0z"/>
        <path data-name="패스 48" d="m232.733 24.393-4.192-4.753 4.285-4.8c.522-.114.777-.362.777-.756v-.194h-2.979v.191a.608.608 0 0 0 .191.467l-4.272 4.809V14.8a.688.688 0 0 0 .49-.683v-.227h-2.81v.224a.676.676 0 0 0 .475.683v9.776a.656.656 0 0 0-.475.667v.224h2.81v-.224a.66.66 0 0 0-.49-.667v-4.56l4.77 5.433.016.018h2.351v-.146c0-.5-.32-.811-.947-.925" transform="translate(139.546 8.644)" style="fill:#fff"/>
        <path data-name="패스 49" d="M234.876 13.89h-4.184v.269a.685.685 0 0 0 .522.7v9.713a.656.656 0 0 0-.475.668v.224h2.812v-.224a.665.665 0 0 0-.492-.668v-3.3h1.741a4.741 4.741 0 0 0 3.259-1.027 3.4 3.4 0 0 0 1.123-2.651 3.52 3.52 0 0 0-1.123-2.678 4.61 4.61 0 0 0-3.183-1.029m-.43 5.709h-1.387V15.55h1.387c1.937 0 2.878.67 2.878 2.047 0 1.329-.969 2-2.878 2" transform="translate(143.571 8.644)" style="fill:#fff"/>
        <path data-name="패스 50" d="M241.949 20.007a.8.8 0 0 0 .808.837h2.862v2.213a3.181 3.181 0 0 1-1.089.677 4.369 4.369 0 0 1-1.728.333 3.858 3.858 0 0 1-2.876-1.225 4.339 4.339 0 0 1-1.166-3.048 4.387 4.387 0 0 1 1.166-3.092 3.845 3.845 0 0 1 2.86-1.243 5.257 5.257 0 0 1 3.17.941.744.744 0 0 0 .759.67h.209v-2.735h-.193a.571.571 0 0 0-.543.269 6.344 6.344 0 0 0-3.386-.837 5.682 5.682 0 0 0-4.152 1.72 5.8 5.8 0 0 0-1.736 4.306 5.9 5.9 0 0 0 5.888 5.949 6.255 6.255 0 0 0 2.726-.589 4.93 4.93 0 0 0 1.877-1.476l.011-.015v-4.478h-4.659a.807.807 0 0 0-.808.823" transform="translate(147.444 8.568)" style="fill:#fff"/>
        <path data-name="패스 51" d="m254.773 24.571-3.753-10.644-.011-.036h-3.178v.331a.62.62 0 0 0 .341.579l-3.384 9.77a.705.705 0 0 0-.534.7v.193h2.581v-.146a.622.622 0 0 0-.266-.545l.91-2.685h4.543l.939 2.683a.609.609 0 0 0-.281.547v.146h2.612v-.193a.715.715 0 0 0-.519-.7m-6.7-4.158 1.718-4.919 1.66 4.919z" transform="translate(152.011 8.645)" style="fill:#fff"/>
        <path data-name="패스 52" d="M254.464 14.766v4.048c0 1.053.561 1.588 1.666 1.588h6.692a.784.784 0 0 0 .56-.23.733.733 0 0 0 .216-.545.74.74 0 0 0-.775-.775h-6.186c-.263 0-.389-.133-.389-.407v-.558h6.437a.749.749 0 0 0 .545-.232.708.708 0 0 0 .23-.529.8.8 0 0 0-.775-.775h-6.437v-.934h6.483a.794.794 0 0 0 .561-.23.737.737 0 0 0 .214-.545.738.738 0 0 0-.776-.777h-8.649v.209a.7.7 0 0 0 .383.694" transform="translate(158.127 8.627)" style="fill:#fff"/>
        <path data-name="패스 53" d="M264.892 18.564h-10.9a.776.776 0 0 0 0 1.553h4.565v2.708a.915.915 0 0 0 .9.884.9.9 0 0 0 .884-.884v-2.708h4.549a.776.776 0 1 0 0-1.553" transform="translate(157.591 11.553)" style="fill:#fff"/>
        <path data-name="패스 54" d="M270.828 13.815a.705.705 0 0 0 .384.7V17.4h-1.7a3.74 3.74 0 0 0-1.064-1.916 3.859 3.859 0 0 0-2.756-1.123 3.931 3.931 0 0 0-2.769 1.121 3.833 3.833 0 0 0 0 5.449 3.934 3.934 0 0 0 2.769 1.121 3.858 3.858 0 0 0 2.755-1.121A3.586 3.586 0 0 0 269.515 19h1.7v6.913a.891.891 0 0 0 1.781 0v-12.3h-2.166zm-5.133 6.668a2.093 2.093 0 0 1-1.525-.672 2.405 2.405 0 0 1 0-3.211 2.086 2.086 0 0 1 1.527-.673 2.282 2.282 0 0 1 0 4.556" transform="translate(162.924 8.468)" style="fill:#fff"/>
        <path data-name="패스 55" d="M272.116 14.783a.79.79 0 0 0 .808.806h2.948a7 7 0 0 1-1.045 3.293 8.6 8.6 0 0 1-2.73 2.576.734.734 0 0 0-.363.553.264.264 0 0 1-.008.06.642.642 0 0 0-.008.078.941.941 0 0 0 .131.475.78.78 0 0 0 .493.346.815.815 0 0 0 .2.032 1.07 1.07 0 0 0 .472-.131 9.409 9.409 0 0 0 3.566-3.579 10.29 10.29 0 0 0 1.113-5.263v-.055h-4.766a.79.79 0 0 0-.808.808" transform="translate(169.103 8.697)" style="fill:#fff"/>
        <path data-name="패스 56" d="M279.151 17.4h-1.21v-3.794h-2.09v.209a.7.7 0 0 0 .385.694v11.432a.806.806 0 0 0 .243.589.782.782 0 0 0 .608.263.827.827 0 0 0 .607-.261.805.805 0 0 0 .247-.591V19h1.21v6.927a.869.869 0 0 0 1.737 0V13.606h-1.737z" transform="translate(171.676 8.468)" style="fill:#fff"/>
        <path data-name="패스 57" d="M288.7 16.4h-1.2v-2.794h-2.166v.209a.7.7 0 0 0 .383.694v6a.892.892 0 0 0 1.783 0v-2.464h1.2a.811.811 0 0 0 .591-.247.8.8 0 0 0 .232-.576.791.791 0 0 0-.823-.823" transform="translate(177.575 8.468)" style="fill:#fff"/>
        <path data-name="패스 58" d="M281.156 19.512a.784.784 0 0 0 .792.792h6.345v2.57a.9.9 0 1 0 1.8 0v-4.168h-8.143a.79.79 0 0 0-.792.806" transform="translate(174.977 11.642)" style="fill:#fff"/>
        <path data-name="패스 59" d="M285.327 20.6c1.106 0 1.666-.534 1.666-1.588V13.89h-6.679v.21a.7.7 0 0 0 .384.7v4.21c0 1.055.561 1.588 1.666 1.588zm-2.862-5.11h2.76v3.107c0 .274-.127.406-.389.406h-1.979c-.263 0-.391-.131-.391-.406z" transform="translate(174.453 8.644)" style="fill:#fff"/>
        <path data-name="패스 60" d="M298.655 21.72h-6.048c-.261 0-.389-.133-.389-.406v-2.373h-2.18v.209a.7.7 0 0 0 .383.694v1.886c0 1.055.56 1.59 1.666 1.59h6.569a.8.8 0 0 0 0-1.6" transform="translate(180.505 11.788)" style="fill:#fff"/>
        <path data-name="패스 61" d="M295.4 14.51v2.29h-1.817a.787.787 0 0 0-.563.234.847.847 0 0 0-.229.573.783.783 0 0 0 .792.792h1.817v4.059a.891.891 0 0 0 1.781 0v-8.85h-2.166v.209a.7.7 0 0 0 .385.694" transform="translate(182.218 8.468)" style="fill:#fff"/>
        <path data-name="패스 62" d="M292.287 18.839a5.049 5.049 0 0 0 .324-.543c.089.162.183.321.29.5a7.389 7.389 0 0 0 2.4 2.472.924.924 0 0 0 .472.146.434.434 0 0 0 .071-.008.38.38 0 0 1 .062-.008.7.7 0 0 0 .513-.347.8.8 0 0 0 .115-.428.752.752 0 0 0-.016-.19.9.9 0 0 0-.328-.482 7.364 7.364 0 0 1-1.89-2.041 5.8 5.8 0 0 1-.814-2.388h2.257a.784.784 0 0 0 .792-.792.855.855 0 0 0-.23-.576.789.789 0 0 0-.561-.232h-6.108a.785.785 0 0 0-.56.232.8.8 0 0 0-.247.576.755.755 0 0 0 .247.576.774.774 0 0 0 .56.216h2.012a5.607 5.607 0 0 1-.831 2.4 6.66 6.66 0 0 1-1.854 2.025.888.888 0 0 0-.362.508.744.744 0 0 0-.018.2.874.874 0 0 0 .115.441.793.793 0 0 0 .569.367.235.235 0 0 1 .05.006.335.335 0 0 0 .073.008.933.933 0 0 0 .472-.146 7.586 7.586 0 0 0 2.427-2.487" transform="translate(179.598 8.662)" style="fill:#fff"/>
    </g>
</svg>
