<svg xmlns="http://www.w3.org/2000/svg" width="200" height="56.44" viewBox="0 0 200 56.44">
    <defs>
        <clipPath id="mf3bws23yd">
            <path data-name="사각형 4" style="fill:none" d="M0 0h200v56.44H0z"/>
        </clipPath>
        <clipPath id="jlhr6mw1ee">
            <path data-name="패스 73" d="M.352 12.662C-.233 15.346.04 38.4.25 41.07c.147 1.964.973 3.109 3.274 3.061 16.03-.258 20.234-19.692 10.334-28.833a16.685 16.685 0 0 0-5.844-3.481 15.705 15.705 0 0 0-4.738-1.01c-1.412 0-2.619.447-2.924 1.856" transform="translate(0 -10.806)" style="fill:url(#4xpt1flwxa)"/>
        </clipPath>
        <clipPath id="hnoq30u0bf">
            <path data-name="패스 74" d="M14.7 0c-1.29 0-2.382.417-2.664 1.694-.526 2.428-.278 23.361-.1 25.792.142 1.771.885 2.81 2.975 2.779 14.561-.242 18.389-17.887 9.394-26.189a15.276 15.276 0 0 0-5.3-3.153A14.06 14.06 0 0 0 14.7 0z" transform="translate(-11.72)" style="fill:url(#zwacupqc0b)"/>
        </clipPath>
        <clipPath id="yg7fg2r2yg">
            <path data-name="패스 75" d="M14.028 13.111c-.677 3.058-.35 29.359-.114 32.41.181 2.238 1.106 3.533 3.724 3.493 18.3-.288 23.112-22.465 11.813-32.9a19.167 19.167 0 0 0-6.666-3.967 17.774 17.774 0 0 0-5.408-1.156c-1.617 0-3 .513-3.349 2.119" transform="translate(-13.624 -10.992)" style="fill:url(#od4nta80nc)"/>
        </clipPath>
        <linearGradient id="4xpt1flwxa" x1=".454" y1=".808" x2=".457" y2="-.006" gradientUnits="objectBoundingBox">
            <stop offset="0" stop-color="#f27920"/>
            <stop offset=".1" stop-color="#f27920"/>
            <stop offset=".269" stop-color="#ef7320"/>
            <stop offset=".491" stop-color="#e66223"/>
            <stop offset=".743" stop-color="#d84727"/>
            <stop offset="1" stop-color="#c7242c"/>
        </linearGradient>
        <linearGradient id="zwacupqc0b" x1=".497" y1="-.007" x2=".502" y2=".818" gradientUnits="objectBoundingBox">
            <stop offset="0" stop-color="#0faee5"/>
            <stop offset="1" stop-color="#0661ad"/>
        </linearGradient>
        <linearGradient id="od4nta80nc" x1=".497" y1="-.007" x2=".502" y2=".829" gradientUnits="objectBoundingBox">
            <stop offset="0" stop-color="#8ac43f"/>
            <stop offset=".139" stop-color="#84c140"/>
            <stop offset=".321" stop-color="#73bc43"/>
            <stop offset=".528" stop-color="#58b248"/>
            <stop offset=".751" stop-color="#32a54f"/>
            <stop offset=".932" stop-color="#029458"/>
            <stop offset="1" stop-color="#009359"/>
        </linearGradient>
    </defs>
    <g data-name="그룹 3" transform="translate(.001)" style="clip-path:url(#mf3bws23yd)">
        <path data-name="패스 63" d="M81.906 20.611h-9.024v-3.667h-4.034v.283a1.258 1.258 0 0 0 .761 1.268v2.116h-9.054a1.4 1.4 0 0 0-1.409 1.411 1.4 1.4 0 0 0 .409 1.029 1.355 1.355 0 0 0 1 .409h21.351a1.357 1.357 0 0 0 1-.409 1.4 1.4 0 0 0 .409-1.029 1.4 1.4 0 0 0-1.409-1.411" transform="translate(39.946 11.444)" style="fill:#fff"/>
        <path data-name="패스 64" d="M78.011 25.773H65.826a.749.749 0 0 1-.844-.846v-3.1h-4.118v.281a1.2 1.2 0 0 0 .786 1.238v2.346c0 1.938 1.086 2.9 3.242 2.9h13.12a1.422 1.422 0 0 0 1-.409 1.352 1.352 0 0 0 0-1.985 1.412 1.412 0 0 0-1-.426" transform="translate(41.106 14.741)" style="fill:#fff"/>
        <path data-name="패스 65" d="M61.411 22.476a2.572 2.572 0 0 0 .818-.082 14.961 14.961 0 0 0 3.029-1.243 20.8 20.8 0 0 0 2.242-1.436 11.44 11.44 0 0 0 3.1-3.133 11.528 11.528 0 0 0 3.1 3.133 21.358 21.358 0 0 0 2.253 1.436 15.739 15.739 0 0 0 3.022 1.243 2.561 2.561 0 0 0 .814.082 1.233 1.233 0 0 0 1.074-.734 1.356 1.356 0 0 0 0-1.272 1.689 1.689 0 0 0-.958-.7 14.1 14.1 0 0 1-3-1.293 14 14 0 0 1-2.186-1.585 6.969 6.969 0 0 1-2.508-5.214v-.338h-4.062v.307a1.519 1.519 0 0 0 .111.595 2.163 2.163 0 0 0 .452.586q0 1.895-2.253 4.063a14.849 14.849 0 0 1-2.143 1.585 13.034 13.034 0 0 1-3.016 1.293 1.722 1.722 0 0 0-.96.7 1.385 1.385 0 0 0 0 1.272 1.237 1.237 0 0 0 1.076.734" transform="translate(40.645 7.659)" style="fill:#fff"/>
        <path data-name="패스 66" d="M89.616 18.36H87.5v-7.02h-3.862v.307a1.243 1.243 0 0 0 .791 1.245v21.541a1.533 1.533 0 0 0 1.551 1.523 1.447 1.447 0 0 0 1.069-.447 1.478 1.478 0 0 0 .452-1.076V21.265h2.114V34.4a1.589 1.589 0 0 0 1.551 1.551 1.526 1.526 0 0 0 1.114-.464 1.5 1.5 0 0 0 .467-1.087V11.34h-3.131z" transform="translate(56.487 7.659)" style="fill:#fff"/>
        <path data-name="패스 67" d="M87.845 13.663h-4.091v-2.424h-3.44v2.424h-4.286a1.381 1.381 0 1 0 0 2.761h.952a7.184 7.184 0 0 0-1.122 1.734 6.1 6.1 0 0 0-.563 2.582 6.359 6.359 0 0 0 .534 2.6 7.046 7.046 0 0 0 1.464 2.139 6.532 6.532 0 0 0 2.089 1.439 6.43 6.43 0 0 0 2.624.536 6.279 6.279 0 0 0 2.582-.536 6.916 6.916 0 0 0 3.55-3.579 6.461 6.461 0 0 0 .521-2.6 6.246 6.246 0 0 0-.548-2.582A6.944 6.944 0 0 0 87 16.424h.843a1.372 1.372 0 0 0 .985-.409 1.328 1.328 0 0 0 0-1.945 1.378 1.378 0 0 0-.985-.407m-2.538 8.543a4.086 4.086 0 0 1-.762 1.267 3.556 3.556 0 0 1-1.173.875 3.175 3.175 0 0 1-1.365.312 3.328 3.328 0 0 1-2.568-1.186 3.9 3.9 0 0 1-.747-1.267 4.528 4.528 0 0 1-.268-1.551 4.465 4.465 0 0 1 .268-1.546 3.94 3.94 0 0 1 .747-1.275 3.31 3.31 0 0 1 2.568-1.183 3.22 3.22 0 0 1 1.365.308 3.626 3.626 0 0 1 1.173.875 4.128 4.128 0 0 1 .762 1.275 4.286 4.286 0 0 1 .281 1.546 4.346 4.346 0 0 1-.281 1.551" transform="translate(50.394 7.591)" style="fill:#fff"/>
        <path data-name="패스 68" d="M113.889 29.452h-9.02v-4.033h3.778q3.189 0 3.188-2.878V11.827H107.8v.281a1.221 1.221 0 0 0 .734 1.243v2.423h-10.6v-3.947h-4.066v.281a1.214 1.214 0 0 0 .761 1.243v9.189q0 2.877 3.156 2.878h3.815v4.033h-9.056a1.354 1.354 0 0 0-1 .4 1.338 1.338 0 0 0-.414 1.015 1.4 1.4 0 0 0 1.412 1.411h21.344a1.4 1.4 0 0 0 1.414-1.411 1.342 1.342 0 0 0-.41-1.015 1.363 1.363 0 0 0-1-.4m-15.113-6.823a.761.761 0 0 1-.848-.875v-3.131h10.6v3.131c0 .583-.28.875-.844.875z" transform="translate(61.548 7.988)" style="fill:#fff"/>
        <path data-name="패스 69" d="M124.21 11.5v.307a1.247 1.247 0 0 0 .764 1.245v4.961h-4.6a5.856 5.856 0 0 0-.169-.409 5.693 5.693 0 0 0-1.2-1.593h1.853a1.3 1.3 0 0 0 1.3-1.3 1.323 1.323 0 0 0-.38-.916 1.222 1.222 0 0 0-.918-.409H116V11.1h-3.61v2.284h-4.849a1.232 1.232 0 0 0-.906.409 1.292 1.292 0 0 0-.39.916 1.224 1.224 0 0 0 .39.916 1.27 1.27 0 0 0 .906.384h1.766a6.025 6.025 0 0 0-1.22 1.593 4.8 4.8 0 0 0-.491 2.183 5.337 5.337 0 0 0 .491 2.272 5.691 5.691 0 0 0 1.426 1.876 6.528 6.528 0 0 0 2.072 1.245 7.256 7.256 0 0 0 2.583.447 6.948 6.948 0 0 0 4.627-1.692 5.507 5.507 0 0 0 1.409-1.876 5.421 5.421 0 0 0 .4-1.392h4.361v3.609a1.634 1.634 0 1 0 3.269 0V11.5zm-7.683 10.535a3.149 3.149 0 0 1-2.354.938 3.217 3.217 0 0 1-2.4-.938 3.135 3.135 0 0 1-.933-2.275 3.09 3.09 0 0 1 .933-2.26 3.253 3.253 0 0 1 2.4-.925 3.184 3.184 0 0 1 2.354.925 3.123 3.123 0 0 1 .918 2.26 3.168 3.168 0 0 1-.918 2.275" transform="translate(71.757 7.498)" style="fill:#fff"/>
        <path data-name="패스 70" d="M108.939 20.793a1.211 1.211 0 0 0 .764 1.241v4.542q0 2.908 3.187 2.9h10.38q3.154 0 3.155-2.9v-6.063h-17.486zm4.038 2.367h10.206v2.8c0 .563-.3.843-.9.843h-8.4c-.6 0-.9-.28-.9-.843z" transform="translate(73.575 13.854)" style="fill:#fff"/>
        <path data-name="패스 71" d="M40.018 11.113h-9.29v25.4h9.292c7.67 0 13.234-5.319 13.234-12.649 0-7.623-5.319-12.748-13.235-12.746m8.751 12.711c0 5.338-3.547 8.787-8.874 8.787h-4.683V15H39.9c5.49 0 8.874 3.319 8.874 8.826" transform="translate(20.753 7.506)" style="fill:#fff"/>
        <path data-name="패스 72" d="M61.459 23.368a7.024 7.024 0 0 0 2.749-5.742c0-4.08-3.277-6.516-8.761-6.514H45.375v25.4h10.25c6.2 0 9.895-2.714 9.895-7.253 0-2.721-1.329-4.649-4.061-5.887m-7.683-1.833A1.751 1.751 0 0 0 52.326 23a2.267 2.267 0 0 0 .357 1.662 1.575 1.575 0 0 0 1.03.65 15.425 15.425 0 0 0 1.9.156c2 .089 4.115.176 5.058 1.95a3.347 3.347 0 0 1-.206 3.406c-.707 1.027-2.1 1.644-4.13 1.764-.261.017-.526.025-.818.025h-5.66V15h5.125c3.376 0 4.738.972 4.738 3.032a3.356 3.356 0 0 1-1.282 2.791 5.249 5.249 0 0 1-2.962.581 9.575 9.575 0 0 0-1.7.127" transform="translate(30.645 7.506)" style="fill:#fff"/>
    </g>
    <g data-name="그룹 5" transform="translate(0 18.104)" style="clip-path:url(#jlhr6mw1ee)">
        <path data-name="사각형 5" transform="rotate(-89.454 16.57 16.963)" style="fill:url(#4xpt1flwxa)" d="M0 0h33.601v24.307H0z"/>
    </g>
    <g data-name="그룹 7" transform="translate(19.636)" style="clip-path:url(#hnoq30u0bf)">
        <path data-name="사각형 6" transform="rotate(-89.454 15.043 15.398)" style="fill:url(#zwacupqc0b)" d="M0 0h30.502v22.074H0z"/>
    </g>
    <g data-name="그룹 9" transform="translate(22.826 18.416)" style="clip-path:url(#yg7fg2r2yg)">
        <path data-name="사각형 7" transform="rotate(-89.4 18.903 19.35)" style="fill:url(#od4nta80nc)" d="M0 0h38.322v27.761H0z"/>
    </g>
</svg>
