<svg xmlns="http://www.w3.org/2000/svg" width="282.114" height="104.469" viewBox="0 0 282.114 104.469">
    <defs>
        <clipPath id="1uzuphf4la">
            <path data-name="사각형 1926" style="fill:none" d="M0 0h282.114v104.469H0z"/>
        </clipPath>
    </defs>
    <path data-name="패스 538" d="M11.68 9.467h18.564V14.7h-9.882v4.359h9.045v5.233h-9.045v4.718h10.024v5.228H11.68z" transform="translate(49.814 40.38)" style="fill:#fff"/>
    <path data-name="패스 539" d="M16.069 9.467h8.681v18.564h9.735v6.207H16.069z" transform="translate(68.529 40.38)" style="fill:#fff"/>
    <path data-name="패스 540" d="M20.091 9.467h8.682v18.564h9.735v6.207H20.091z" transform="translate(85.683 40.38)" style="fill:#fff"/>
    <path data-name="패스 541" d="M43.95 9.444H23.307v1.843h9.3v23.175h2.169V11.287h9.3V9.444z" transform="translate(99.399 40.281)" style="fill:#fff"/>
    <g data-name="그룹 317">
        <g data-name="그룹 316" style="clip-path:url(#1uzuphf4la)">
            <path data-name="패스 542" d="M41.216 25.7a11.914 11.914 0 0 0-3.2-3.685c3.059-1.179 4.633-3.206 4.633-6.055 0-1.959-.811-6.518-8.329-6.518h-6.477v25.02h2.169V22.585h3.217c2.969 0 3.88.432 6.8 5.028l4.33 6.787 2.353.058h.221zm-11.2-14.415h3.912C38 11.287 40.342 13 40.342 16c0 3.059-2.253 4.744-6.344 4.744h-3.986z" transform="translate(118.745 40.279)" style="fill:#fff"/>
            <path data-name="패스 543" d="M34.033 9.444h-2.048v25.018h2.169V9.444z" transform="translate(136.408 40.28)" style="fill:#fff"/>
            <path data-name="패스 544" d="M46.176 9.382a12.841 12.841 0 1 0 0 25.671 12.843 12.843 0 1 0 0-25.671m.068 23.649a10.814 10.814 0 1 1 10.893-10.813 10.769 10.769 0 0 1-10.892 10.813" transform="translate(140.619 40.015)" style="fill:#fff"/>
            <path data-name="패스 545" d="M61.1 9.444h-2.041v21.449L40.49 9.486l-1.727-.042h-.121v25.018h2.169V13.014L59.417 34.42l1.685.042h.121V9.444z" transform="translate(164.8 40.279)" style="fill:#fff"/>
            <path data-name="패스 546" d="M19.334 28.08a5.339 5.339 0 1 1 4.486-8.224h8.634a13.459 13.459 0 1 0 .153 4.912h-8.335a5.353 5.353 0 0 1-4.938 3.312" transform="translate(25.132 39.665)" style="fill:#fff"/>
            <path data-name="패스 547" d="M19.039 3.434A13.144 13.144 0 1 0 32.18 16.58 13.142 13.142 0 0 0 19.039 3.434m0 21.159a8.016 8.016 0 1 1 8.013-8.013 8.014 8.014 0 0 1-8.013 8.013" transform="translate(25.154 14.648)" style="fill:#55ab33"/>
            <path data-name="패스 548" d="M26.287 22.5A13.144 13.144 0 1 1 13.146 9.359 13.141 13.141 0 0 1 26.287 22.5" transform="translate(0 39.917)" style="fill:#55ab33"/>
            <path data-name="패스 549" d="M13.141 3.433a13.144 13.144 0 1 0 13.141 13.146A13.142 13.142 0 0 0 13.141 3.433m0 24.265A11.122 11.122 0 1 1 24.26 16.579 11.119 11.119 0 0 1 13.141 27.7" transform="translate(0 14.644)" style="fill:#55ab33"/>
            <path data-name="패스 550" d="M13.255 24.531a7.443 7.443 0 0 1 7.634-7.571 7.56 7.56 0 0 1 5.97 12.251l2.341 2.654h-3.957l-.616-.721a7.443 7.443 0 0 1-3.738.985 7.446 7.446 0 0 1-7.634-7.6m9.1 3.985-3.075-3.58h3.82l1.385 1.569a4.741 4.741 0 0 0 .405-1.974 4.019 4.019 0 1 0-8.029 0 3.973 3.973 0 0 0 4.028 4.238 4.228 4.228 0 0 0 1.464-.253" transform="translate(56.53 72.333)" style="fill:#fff"/>
            <path data-name="패스 551" d="M26.559 17.692v11.051h-3.327v-1.264a3.329 3.329 0 0 1-2.911 1.537c-2.306 0-3.943-1.711-3.943-4.549v-6.775h3.391v6.27c0 1.274.663 1.9 1.648 1.9a1.7 1.7 0 0 0 1.758-1.885v-6.285z" transform="translate(69.844 75.455)" style="fill:#fff"/>
            <path data-name="패스 552" d="M24.291 26.264a2.1 2.1 0 0 0 1.848-.827h3.706a5.561 5.561 0 0 1-5.554 3.8 5.617 5.617 0 0 1-5.781-5.8 5.618 5.618 0 0 1 5.781-5.8 5.615 5.615 0 0 1 5.781 5.8c0 .295-.016.711-.042 1.006h-8.119a2.343 2.343 0 0 0 2.38 1.816m0-5.8a2.381 2.381 0 0 0-2.38 1.8h4.775a2.39 2.39 0 0 0-2.4-1.8" transform="translate(78.941 75.234)" style="fill:#fff"/>
            <path data-name="패스 553" d="M26.6 26.264a2.1 2.1 0 0 0 1.848-.827h3.7a5.55 5.55 0 0 1-5.549 3.8 5.617 5.617 0 0 1-5.781-5.8 5.618 5.618 0 0 1 5.781-5.8 5.618 5.618 0 0 1 5.781 5.8c0 .295-.016.711-.047 1.006h-8.117a2.349 2.349 0 0 0 2.384 1.821m0-5.8a2.383 2.383 0 0 0-2.385 1.8H29a2.39 2.39 0 0 0-2.4-1.8" transform="translate(88.793 75.234)" style="fill:#fff"/>
            <path data-name="패스 554" d="M23.216 28.965V17.914h3.327v1.264A3.438 3.438 0 0 1 29.5 17.64c2.406 0 4 1.711 4 4.549v6.776h-3.387v-6.27c0-1.274-.669-1.9-1.7-1.9a1.715 1.715 0 0 0-1.813 1.883v6.286z" transform="translate(99.011 75.234)" style="fill:#fff"/>
            <path data-name="패스 555" d="M30.435 26.769c.953 0 1.385-.437 1.385-.9 0-.516-.353-.869-1.427-1.053l-1.453-.232c-2.238-.353-3.327-1.558-3.327-3.485 0-2 1.7-3.459 4.57-3.459 1.69 0 4.228.574 4.7 3.733h-3.164a1.509 1.509 0 0 0-1.6-1.248c-.748 0-1.264.337-1.264.874s.458.869 1.306.979l1.185.179c2.78.426 3.7 1.7 3.7 3.491 0 2.032-1.658 3.591-4.675 3.591-2.385 0-4.707-.721-5.023-3.833h3.185a1.733 1.733 0 0 0 1.9 1.364" transform="translate(108.108 75.234)" style="fill:#fff"/>
            <path data-name="패스 556" d="M36.389 26.281c.342-1.374.679-2.59 1.021-3.812l1.527-5.46h5.613v14.642h-3.391V20.379c-.279 1.027-.553 2-.837 2.927l-2.538 8.345h-2.79L32.478 23.3a99.103 99.103 0 0 1-.858-2.985v11.336h-3.391V17.01h5.612l1.516 5.439c.342 1.227.69 2.459 1.032 3.833" transform="translate(120.391 72.547)" style="fill:#fff"/>
            <path data-name="패스 557" d="M36.7 17.64c3.664 0 4.917 1.911 4.917 4.249v7.076h-3.263v-1.111a4.824 4.824 0 0 1-3.548 1.385 3.05 3.05 0 0 1-3.2-3.338c0-2.227 1.4-3.527 6.67-3.749v-.263A1.41 1.41 0 0 0 36.7 20.3a1.522 1.522 0 0 0-1.648 1.274h-3.279c.326-2.769 2.7-3.933 4.923-3.933m1.579 7.492v-.969c-2.58.058-3.348.758-3.348 1.485 0 .495.305.89 1.106.89 1.264 0 2.243-.848 2.243-1.406" transform="translate(134.789 75.234)" style="fill:#fff"/>
            <path data-name="패스 558" d="M38.771 26.769c.953 0 1.385-.437 1.385-.9 0-.516-.353-.869-1.427-1.053l-1.453-.232c-2.238-.353-3.327-1.558-3.327-3.485 0-2 1.7-3.459 4.57-3.459 1.69 0 4.228.574 4.7 3.733h-3.164a1.509 1.509 0 0 0-1.6-1.248c-.748 0-1.264.337-1.264.874s.458.869 1.306.979l1.185.179c2.78.426 3.7 1.7 3.7 3.491 0 2.032-1.658 3.591-4.675 3.591-2.385 0-4.707-.721-5.023-3.833h3.186a1.733 1.733 0 0 0 1.9 1.364" transform="translate(143.66 75.234)" style="fill:#fff"/>
            <path data-name="패스 559" d="M37.533 27.479v-4.591H35.6V20.14h1.932v-3.022h3.385v3.022h2.669v2.748h-2.668v4.2c0 1.142.516 1.506 1.558 1.506a4.647 4.647 0 0 0 1.111-.142v2.7a10.024 10.024 0 0 1-2.587.313c-2.58 0-3.469-1.516-3.469-3.985" transform="translate(151.831 73.007)" style="fill:#fff"/>
            <path data-name="패스 560" d="M43 26.264a2.113 2.113 0 0 0 1.853-.827h3.7A5.561 5.561 0 0 1 43 29.238a5.62 5.62 0 0 1-5.781-5.8 5.781 5.781 0 1 1 11.561 0c0 .295-.011.711-.042 1.006h-8.115A2.343 2.343 0 0 0 43 26.264m0-5.8a2.377 2.377 0 0 0-2.38 1.8h4.78a2.4 2.4 0 0 0-2.4-1.8" transform="translate(158.744 75.234)" style="fill:#fff"/>
            <path data-name="패스 561" d="M39.618 28.965V17.914h3.327v1.648a3.211 3.211 0 0 1 3.111-1.922 4.291 4.291 0 0 1 .89.074v3.317A4.621 4.621 0 0 0 45.8 20.9a2.569 2.569 0 0 0-2.8 2.768v5.3z" transform="translate(168.962 75.234)" style="fill:#fff"/>
            <path data-name="패스 562" d="M46.181 26.769c.953 0 1.385-.437 1.385-.9 0-.516-.353-.869-1.427-1.053l-1.453-.232c-2.238-.353-3.327-1.558-3.327-3.485 0-2 1.7-3.459 4.57-3.459 1.685 0 4.228.574 4.7 3.733h-3.164a1.515 1.515 0 0 0-1.606-1.248c-.742 0-1.258.337-1.258.874s.453.869 1.306.979l1.185.179c2.78.426 3.7 1.7 3.7 3.491 0 2.032-1.658 3.591-4.675 3.591-2.385 0-4.707-.721-5.023-3.833h3.186a1.733 1.733 0 0 0 1.9 1.364" transform="translate(175.262 75.234)" style="fill:#fff"/>
            <path data-name="패스 563" d="M90.116 49.089a5.081 5.081 0 0 1-.005.7 6.919 6.919 0 0 1-.168 1.069 13.931 13.931 0 0 1-1.137 2.917 55.774 55.774 0 0 1-5.912 8.808c-1.069 1.364-2.185 2.68-3.343 3.964s-2.317 2.543-3.559 3.743-2.49 2.4-3.843 3.48a24.419 24.419 0 0 1-4.286 2.938c.158-.205 5.186-6.623 6.507-8.819a114.21 114.21 0 0 0 2.39-3.5c.911-1.4 1.8-2.811 2.664-4.217a78.114 78.114 0 0 0 2.443-4.307 39.262 39.262 0 0 0 2.053-4.3 9.014 9.014 0 0 0 .558-1.858l.005-.053c.011-.084.011-.142-.005-.132l-.005.068-.016-.063c-.137-.269-.974-.137-1.242-.095l-.084.021-.374.068a46.214 46.214 0 0 1-4.08.448 43.17 43.17 0 0 1-4.117.137 49.32 49.32 0 0 1-8.2-.763 51.439 51.439 0 0 1-7.96-2.074c-1.3-.448-2.58-.942-3.849-1.5a44.297 44.297 0 0 1-1.9-.863l-.951-.476a19.77 19.77 0 0 1-.648-.353l-.005-.005c-.232-.126-1.258-.9-1.385-.99l-.016-.011a22.25 22.25 0 0 1-2.985-2.954 13.749 13.749 0 0 1-2.722-4.907 10.938 10.938 0 0 1-.437-2.943 11.39 11.39 0 0 1 .379-2.917 15.046 15.046 0 0 1 2.432-4.87 31.391 31.391 0 0 1 7.229-6.723 72.515 72.515 0 0 1 8.139-4.88 144.748 144.748 0 0 1 17.168-7.35C84.678 3.412 90.574 1.553 96.566 0c-.5.205-16.484 6.681-19.717 8.7l-.005.011A140.112 140.112 0 0 0 63.329 15.8a68.044 68.044 0 0 0-7.429 5.1 28.952 28.952 0 0 0-5.949 6.139 10.361 10.361 0 0 0-1.522 3.433 5.975 5.975 0 0 0 .19 3.269 10.166 10.166 0 0 0 2.938 4l.021.016.147.126a13.061 13.061 0 0 0 2.675 1.745c.095.047.184.079.269.121l.074.032.174.068c.553.221 1.127.432 1.7.632 1.153.4 2.327.748 3.517 1.053a59.368 59.368 0 0 0 7.223 1.366c1.216.153 2.432.3 3.654.379s2.443.163 3.67.195c1.227.011 2.453.047 3.68.011a94.074 94.074 0 0 0 3.627-.184l.147-.021a4.564 4.564 0 0 1 .469-.068c.311-.032.627-.053.942-.058a8 8 0 0 1 2.059.242 6.226 6.226 0 0 1 2.216 1.069 5.585 5.585 0 0 1 1.643 2.011 6.4 6.4 0 0 1 .611 2.122z" transform="translate(185.548 .003)" style="fill:#55ab33"/>
            <path data-name="패스 564" d="M50.27 6.964a.439.439 0 0 1-.205.074.932.932 0 0 0 .205-.074" transform="translate(213.517 29.703)" style="fill:#55ab33"/>
            <path data-name="패스 565" d="M55.749 14a13.967 13.967 0 0 0-1.206 1.569c-.405.595-.79 1.216-1.142 1.858-.39.632-.648 1.311-.99 1.969-.29.674-.521 1.369-.8 2.064a18.341 18.341 0 0 0-.774 8.761 11.209 11.209 0 0 0 .49 2.216l.295 1.116c.121.363.305.705.458 1.063.326.7.595 1.443.979 2.138l1.285 2.006a11.4 11.4 0 0 0 1.456 1.92l1.59 1.858c1.174 1.132 2.422 2.211 3.648 3.338-1.4-.869-2.848-1.706-4.254-2.638l-1.969-1.579a12.671 12.671 0 0 1-1.89-1.711l-1.78-1.89c-.548-.669-1.006-1.416-1.516-2.138-.237-.369-.516-.721-.732-1.106l-.584-1.2a14.891 14.891 0 0 1-1.058-2.474 23.022 23.022 0 0 1-1.058-10.856c.163-.906.3-1.816.5-2.722.247-.879.432-1.8.748-2.664a27.348 27.348 0 0 1 1-2.606 22.4 22.4 0 0 1 1.353-2.669z" transform="translate(196.056 41.043)" style="fill:#55ab33"/>
            <path data-name="패스 566" d="M69.589 16.634a17.043 17.043 0 0 1-.137 1.8 10.948 10.948 0 0 1-.426 1.916 4.684 4.684 0 0 1-.563 1.142 3.435 3.435 0 0 1-1.027 1.016 3.994 3.994 0 0 1-2.38.611 7.6 7.6 0 0 1-1.832-.332 21.334 21.334 0 0 1-1.611-.526 15.5 15.5 0 0 1-2.985-1.532 35.485 35.485 0 0 0 6.255-.416.454.454 0 0 0 .2-.068 1.143 1.143 0 0 0 .49-.695v-.005a.585.585 0 0 0 .016-.142c.026-.284.042-.763.037-1.242s-.026-.937-.079-1.4a18.1 18.1 0 0 0-1.311-5.323 7.805 7.805 0 0 0-3.259-3.949 5.085 5.085 0 0 0-4.749.005 4.935 4.935 0 0 0-1.874 1.7A9.431 9.431 0 0 0 53.21 11.8c-.579 1.916-.742 4.143-1.622 6.276a8.616 8.616 0 0 1-.832 1.527 7.922 7.922 0 0 1-1.132 1.29 2.761 2.761 0 0 1-1.658.784 1.759 1.759 0 0 1-1.374-1.027 1.658 1.658 0 0 0 1.3.363 2.14 2.14 0 0 0 1.074-.774 7.415 7.415 0 0 0 .811-1.253 6.448 6.448 0 0 0 .542-1.369c.548-1.916.442-4.043.842-6.286a11.959 11.959 0 0 1 1.09-3.375 7.431 7.431 0 0 1 2.559-2.831 8.157 8.157 0 0 1 7.56-.627 11.852 11.852 0 0 1 5.5 5.1 13.8 13.8 0 0 1 1.722 7.034" transform="translate(198.705 16.426)" style="fill:#55ab33"/>
        </g>
    </g>
</svg>
