<svg xmlns="http://www.w3.org/2000/svg" width="160" height="19.698" viewBox="0 0 160 19.698">
    <defs>
        <clipPath id="bvktt6n3ua">
            <path data-name="사각형 4871" style="fill:none" d="M0 0h160v19.698H0z"/>
        </clipPath>
    </defs>
    <g style="clip-path:url(#bvktt6n3ua)">
        <path data-name="패스 9312" d="M291.566 34.985a4.224 4.224 0 0 0-1.122-.566 12.992 12.992 0 0 0-1.293-.364c-.427-.1-.848-.193-1.26-.279a10.086 10.086 0 0 1-1.1-.287 2.337 2.337 0 0 1-.78-.417.834.834 0 0 1-.3-.663.82.82 0 0 1 .171-.545 1.146 1.146 0 0 1 .416-.31 1.848 1.848 0 0 1 .545-.138 5.915 5.915 0 0 1 .6-.033 2.6 2.6 0 0 1 1.3.311 1.389 1.389 0 0 1 .629 1.378h2.741a3.716 3.716 0 0 0-.5-1.891 3.364 3.364 0 0 0-1.044-1.079 4.241 4.241 0 0 0-1.43-.577 8.3 8.3 0 0 0-1.693-.171 8.959 8.959 0 0 0-1.71.16 4.826 4.826 0 0 0-1.539.555 3.036 3.036 0 0 0-1.1 1.091 3.332 3.332 0 0 0-.416 1.74 2.354 2.354 0 0 0 .3 1.228 2.6 2.6 0 0 0 .791.834 4.369 4.369 0 0 0 1.12.533q.631.2 1.293.354a38.34 38.34 0 0 1 1.453.331 7.108 7.108 0 0 1 1.079.352 2.088 2.088 0 0 1 .674.438.822.822 0 0 1 .234.586 1.133 1.133 0 0 1-.191.673 1.441 1.441 0 0 1-.482.428 2.282 2.282 0 0 1-.641.235 3.328 3.328 0 0 1-.685.075 3.025 3.025 0 0 1-.808-.107 2.075 2.075 0 0 1-.7-.331 1.688 1.688 0 0 1-.688-1.421h-2.73a3.9 3.9 0 0 0 .477 1.838 3.646 3.646 0 0 0 1.112 1.208 4.414 4.414 0 0 0 1.547.651 8.249 8.249 0 0 0 1.79.193 8.72 8.72 0 0 0 1.838-.193 4.819 4.819 0 0 0 1.614-.641 3.352 3.352 0 0 0 1.581-3.012 2.573 2.573 0 0 0-.3-1.292 2.737 2.737 0 0 0-.79-.876" transform="translate(-205.12 -21.3)" style="fill:#fff"/>
        <path data-name="패스 9313" d="M160.565 20.264a2.944 2.944 0 0 0-1.229-.918 5.14 5.14 0 0 0-2-.332 3.9 3.9 0 0 0-1.752.448 3.629 3.629 0 0 0-1.474 1.389h-.064V15.1h-3.034v15.258h3.034v-5.79a4.09 4.09 0 0 1 .555-2.423 2.1 2.1 0 0 1 1.795-.738 1.659 1.659 0 0 1 1.506.674 3.786 3.786 0 0 1 .438 2.04v6.238h3.034v-6.794a8.921 8.921 0 0 0-.182-1.87 3.538 3.538 0 0 0-.63-1.432" transform="translate(-109.582 -10.96)" style="fill:#fff"/>
        <path data-name="패스 9314" d="M245.9 36.236a4.1 4.1 0 0 1-.555 2.424 2.1 2.1 0 0 1-1.795.737 1.657 1.657 0 0 1-1.506-.672 3.788 3.788 0 0 1-.438-2.04v-6.239h-3.035v6.794a8.856 8.856 0 0 0 .182 1.871 3.536 3.536 0 0 0 .629 1.429 2.964 2.964 0 0 0 1.228.92 5.17 5.17 0 0 0 2 .33 4.262 4.262 0 0 0 1.88-.448 3.594 3.594 0 0 0 1.5-1.389h.064v1.537h2.884V30.446H245.9z" transform="translate(-173.115 -22.093)" style="fill:#fff"/>
        <path data-name="패스 9315" d="M336.481 16.982a5.759 5.759 0 0 0-2.135-1.41 7.411 7.411 0 0 0-2.662-.471H325.3v15.255h6.384a6.881 6.881 0 0 0 2.953-.586 5.89 5.89 0 0 0 2.094-1.614 6.832 6.832 0 0 0 1.253-2.436 10.838 10.838 0 0 0 .416-3.077 9.78 9.78 0 0 0-.508-3.311 6.537 6.537 0 0 0-1.409-2.35m-1.649 8.118a3.956 3.956 0 0 1-.834 1.422 3 3 0 0 1-1.182.78 4.015 4.015 0 0 1-1.368.236h-2.9v-9.615h2.322a5.129 5.129 0 0 1 2.021.351 3.179 3.179 0 0 1 1.317 1.016 4.224 4.224 0 0 1 .715 1.593 9.194 9.194 0 0 1 .216 2.081 6.452 6.452 0 0 1-.31 2.137" transform="translate(-236.049 -10.958)" style="fill:#fff"/>
        <path data-name="패스 9316" d="M204.632 38.243v-5.748a2.727 2.727 0 0 0-.435-1.6 2.983 2.983 0 0 0-1.12-.962 4.926 4.926 0 0 0-1.513-.458 11.6 11.6 0 0 0-1.636-.118h-.145a7.714 7.714 0 0 0-1.545.181 4.554 4.554 0 0 0-1.486.609 3.459 3.459 0 0 0-1.094 1.133 3.733 3.733 0 0 0-.489 1.773h2.776a1.754 1.754 0 0 1 .557-1.281 1.98 1.98 0 0 1 1.282-.387 4.848 4.848 0 0 1 .734.055 1.562 1.562 0 0 1 .6.214 1.143 1.143 0 0 1 .416.449 1.652 1.652 0 0 1 .155.779.884.884 0 0 1-.29.716 1.954 1.954 0 0 1-.778.374 7.253 7.253 0 0 1-1.109.192c-.413.044-.849.1-1.305.173a11.375 11.375 0 0 0-1.336.289 3.742 3.742 0 0 0-1.172.544 2.6 2.6 0 0 0-.828.971 3.385 3.385 0 0 0-.311 1.549 3.568 3.568 0 0 0 .28 1.475 2.77 2.77 0 0 0 .776 1.024 3.351 3.351 0 0 0 1.161.609 4.821 4.821 0 0 0 1.43.2 6.262 6.262 0 0 0 1.949-.31 3.9 3.9 0 0 0 1.658-1.057 4.8 4.8 0 0 0 .072.544 4.517 4.517 0 0 0 .135.524H205a2.622 2.622 0 0 1-.289-1.026 11.846 11.846 0 0 1-.083-1.431m-2.943-1.817a5.851 5.851 0 0 1-.052.684 2.35 2.35 0 0 1-.28.845 1.981 1.981 0 0 1-.705.716 2.532 2.532 0 0 1-1.346.3 3.555 3.555 0 0 1-.684-.065 1.6 1.6 0 0 1-.581-.224 1.15 1.15 0 0 1-.395-.429 1.438 1.438 0 0 1-.145-.694 1.515 1.515 0 0 1 .145-.694 1.352 1.352 0 0 1 .383-.471 1.993 1.993 0 0 1 .551-.288 4.478 4.478 0 0 1 .663-.17q.331-.065.694-.107c.241-.029.469-.064.684-.108a4.608 4.608 0 0 0 .6-.159 1.339 1.339 0 0 0 .467-.268z" transform="translate(-141.179 -21.3)" style="fill:#fff"/>
        <path data-name="패스 9317" d="M69.87 34.607h.654v-3.984h1.986v11.3h-1.986v-5.41h-.654V41.8h-1.937v-1.272l-4.519.238a1.324 1.324 0 0 1-.993-.256 1.137 1.137 0 0 1-.35-.91v-8.858h5.208v1.9h-3.067V38.9l3.721-.215v-8.062h1.937z" transform="translate(-45.041 -22.221)" style="fill:#fff"/>
        <path data-name="패스 9318" d="M105.177 31.057h2.141v1.581h5.349v-1.581h2.141v6.088a1.077 1.077 0 0 1-.265.731.883.883 0 0 1-.695.3h-2.773v1.57h4.163v1.89h-10.477v-1.89h4.172V38.18h-2.806a.866.866 0 0 1-.689-.3 1.1 1.1 0 0 1-.261-.743zm7.49 3.484h-5.349v1.736h5.349z" transform="translate(-76.018 -22.536)" style="fill:#fff"/>
        <path data-name="패스 9319" d="M384.223 30.623v.837h1.663v1.84h-1.709v.413c0 .061 0 .122-.006.183s-.01.122-.017.184a3.311 3.311 0 0 1 1.17.917 3.476 3.476 0 0 1 .711 1.514l-1.95.482a2.044 2.044 0 0 0-.241-.66 1.548 1.548 0 0 0-.516-.544 3.886 3.886 0 0 1-1.153.768 6.168 6.168 0 0 1-1.714.458v-1.942a2.871 2.871 0 0 0 .665-.12 1.868 1.868 0 0 0 .545-.27 1.31 1.31 0 0 0 .372-.412 1.14 1.14 0 0 0 .138-.574v-.4H380.5V31.46h1.663v-.837zm6.422 6.777v3.544a.885.885 0 0 1-.928.93h-7.661a.877.877 0 0 1-.682-.258.973.973 0 0 1-.235-.682V37.4zm-2.065 1.835h-5.38v.8h5.378zm-.447-6.273h.6v-1.938h1.915v6.055h-1.918V34.8h-.6v2.282h-1.83v-6.058h1.835z" transform="translate(-276.075 -22.221)" style="fill:#fff"/>
        <path data-name="패스 9320" d="M428.387 34.036 427.94 40h1.273v1.835h-7.454V40h.952v-5.964h-.837V32.2h7.226v1.835zM424.66 40h1.33l.447-5.964h-1.777zm7.213 2.982h-2.064v-10.9h2.064z" transform="translate(-306.042 -23.283)" style="fill:#fff"/>
        <path data-name="패스 9321" d="M467.63 38.346a5.3 5.3 0 0 1-1.324-.155 2.8 2.8 0 0 1-1.039-.493 2.277 2.277 0 0 1-.677-.86 3.008 3.008 0 0 1-.241-1.266v-.666a3.024 3.024 0 0 1 .241-1.262 2.225 2.225 0 0 1 .677-.86 2.867 2.867 0 0 1 1.039-.488 5.33 5.33 0 0 1 1.324-.154 5.434 5.434 0 0 1 1.175.12 3.188 3.188 0 0 1 .97.378 2.251 2.251 0 0 1 .7.66 2.466 2.466 0 0 1 .379.963h1.33v-2.178h2.064v7.478h-2.064V36.1h-1.308a2.616 2.616 0 0 1-.361 1.021 2.272 2.272 0 0 1-.694.7 3 3 0 0 1-.981.4 5.453 5.453 0 0 1-1.209.126m-.562.735v1.95h7.293v1.835h-8.486a.827.827 0 0 1-.677-.293 1.09 1.09 0 0 1-.241-.717v-2.776zm.562-2.569a1.129 1.129 0 1 0-.877-.309 1.249 1.249 0 0 0 .877.309" transform="translate(-336.947 -23.282)" style="fill:#fff"/>
        <path data-name="패스 9322" d="M510.235 32.086v1.3q0 .263-.018.509a3.8 3.8 0 0 1-.063.476 3.68 3.68 0 0 1 .888.321 3.477 3.477 0 0 1 .837.6 3.791 3.791 0 0 1 .671.872 3.393 3.393 0 0 1 .39 1.147l-2.019.585a2.338 2.338 0 0 0-.132-.511 1.976 1.976 0 0 0-.27-.487 1.719 1.719 0 0 0-.447-.407 2.289 2.289 0 0 0-.666-.281 3.369 3.369 0 0 1-.843.808 5 5 0 0 1-.969.5 5.307 5.307 0 0 1-.97.275 7.213 7.213 0 0 1-.854.109v-1.94a3.932 3.932 0 0 0 .854-.143 2.156 2.156 0 0 0 .775-.4 2 2 0 0 0 .556-.74 2.87 2.87 0 0 0 .212-1.186v-1.407zm5.55 6.124v3.8a.914.914 0 0 1-.258.666.9.9 0 0 1-.671.264H507.4a.871.871 0 0 1-.677-.264.966.966 0 0 1-.241-.677V38.21h2.065v.619h5.171v-.619zm-2.064 2.34h-5.171v.665h5.171zm2.064-2.615h-2.064v-5.849h2.064z" transform="translate(-367.007 -23.283)" style="fill:#fff"/>
        <path data-name="패스 9323" d="M17.523.626c.033-.071.068-.145.1-.223H8.687l1.044.38h5.492l-.044.151a6.993 6.993 0 0 1-1.1 2.241 7.558 7.558 0 0 1-2.489 2.179 11.006 11.006 0 0 1-1.507.674 13.416 13.416 0 0 1-1.571.444l-.4.092.291-.291c.064-.064.124-.126.178-.186l.157-.181c.034-.041.067-.083.1-.131a4.3 4.3 0 0 0 .687-1.317 5.051 5.051 0 0 0 .093-2.577L9.6 1.775l.108-.029a2.127 2.127 0 0 1 .268-.05 1.49 1.49 0 0 1 .193-.012c.066 0 .131 0 .22.008a.1.1 0 0 0 .072-.03.1.1 0 0 0 .025-.081.518.518 0 0 0-.232-.376.629.629 0 0 0-.345-.091 1.436 1.436 0 0 0-.473.095 6.232 6.232 0 0 0-1.6.973l-.214.161a3.049 3.049 0 0 1-1.609.713c-.067 0-.135.006-.235.012a5.67 5.67 0 0 1-.338.013A1.73 1.73 0 0 1 5 3.032L4.877 3l.039-.121A3.682 3.682 0 0 1 8.687.406a1.884 1.884 0 0 0-.1-.043c-.067-.026-.136-.05-.2-.074C8.248.24 8.11.2 7.976.143a2.094 2.094 0 0 0-.45-.115A2.622 2.622 0 0 0 7.108 0a2.154 2.154 0 0 0-.626.1 3.71 3.71 0 0 0-.465.184 3.013 3.013 0 0 0-1.342 1.38 1.59 1.59 0 0 0-.182.594 2.869 2.869 0 0 0 .021.7c0-.015-.069-.046-.08-.052a1.6 1.6 0 0 0-.234-.113 1.736 1.736 0 0 0-.834-.1 1.618 1.618 0 0 0-.46.124 1.435 1.435 0 0 0-.241.136 4.648 4.648 0 0 0-.584.52 2.438 2.438 0 0 1-.885.663l-.047.015c-.045.012-.088.02-.137.028a1.446 1.446 0 0 1-.237.018 2.565 2.565 0 0 1-.737-.128.038.038 0 0 0-.028.061 2.7 2.7 0 0 0 .91.565 3.355 3.355 0 0 0 .514.136 3.462 3.462 0 0 0 .606.051 4.336 4.336 0 0 0 1.538-.289 2.124 2.124 0 0 0 .35-.156c.019-.01.036-.021.056-.033l.034-.021A1.984 1.984 0 0 0 4.8 3.332l.036-.114.114.038c.066.022.1.036.151.055s.077.029.148.053a2.834 2.834 0 0 0 .858.133 4.078 4.078 0 0 0 2.579-1.123l.168-.15.028.223a5.631 5.631 0 0 1 .045 1.138v.06a3.208 3.208 0 0 1-.107.629l-.073.239a3.075 3.075 0 0 1-1.435 1.635l-.135.09-.085.058c-.062.045-.153.1-.257.16l-.018.011A3.976 3.976 0 0 0 4.741 8.78c-.01.047-.019.094-.026.144 0 .033-.008.067-.013.123s-.01.116-.012.178a4.432 4.432 0 0 0 1.147 2.716c.41.5.89 1.007 1.359 1.5a10.81 10.81 0 0 1 2.014 2.538 3.288 3.288 0 0 1 .271 1.35 3.817 3.817 0 0 1-.075.715 4.381 4.381 0 0 1-.419 1.178c-.028.056-.084.155-.162.3l-.1.179H11.4a7.208 7.208 0 0 0-2.214-5.921c-.39-.368-.807-.714-1.213-1.049a16.9 16.9 0 0 1-1.671-1.5 3.016 3.016 0 0 1-.785-1.281 1.565 1.565 0 0 1 .16-1.114 2.414 2.414 0 0 1 .871-.823c.081-.044.167-.086.268-.134l.021-.01a11.01 11.01 0 0 1 1.008-.405c.449-.145.883-.292 1.293-.438.01 0 1.036-.359 2.144-.838a11.837 11.837 0 0 0 1.2-.565c.2-.106.394-.219.593-.336A11.8 11.8 0 0 0 17.523.626" style="fill:#fff"/>
        <path data-name="패스 9324" d="M197.484 20.759a10.3 10.3 0 0 0 8.713-5.823 9.477 9.477 0 0 0 .747-3.7 9.75 9.75 0 0 0-9.522-9.773H65.284l-.59 1.079h132.728a8.68 8.68 0 0 1 8.316 7.241V9.8a8.477 8.477 0 0 1 .126 1.443c0 .252-.012.5-.034.747a8.788 8.788 0 0 1-1.952 5.1 8.851 8.851 0 0 1-6.458 3.671h.063" transform="translate(-46.944 -1.062)" style="fill:#fff"/>
    </g>
</svg>
