<svg xmlns="http://www.w3.org/2000/svg" width="240" height="29.548" viewBox="0 0 240 29.548">
    <defs>
        <clipPath id="aq1zghuuga">
            <path data-name="사각형 4872" style="fill:none" d="M0 0h240v29.548H0z"/>
        </clipPath>
    </defs>
    <g style="clip-path:url(#aq1zghuuga)">
        <path data-name="패스 9325" d="M296.011 37.8a6.335 6.335 0 0 0-1.683-.849 19.488 19.488 0 0 0-1.94-.545 83.364 83.364 0 0 0-1.891-.418 15.128 15.128 0 0 1-1.652-.431 3.505 3.505 0 0 1-1.17-.626 1.251 1.251 0 0 1-.447-.994 1.23 1.23 0 0 1 .256-.817 1.719 1.719 0 0 1 .624-.465 2.772 2.772 0 0 1 .817-.207 8.875 8.875 0 0 1 .9-.05 3.9 3.9 0 0 1 1.945.466 2.083 2.083 0 0 1 .943 2.068h4.111a5.573 5.573 0 0 0-.748-2.837 5.045 5.045 0 0 0-1.566-1.618 6.362 6.362 0 0 0-2.145-.866 12.456 12.456 0 0 0-2.54-.256 13.439 13.439 0 0 0-2.565.24 7.239 7.239 0 0 0-2.308.833 4.553 4.553 0 0 0-1.652 1.637 5 5 0 0 0-.625 2.61 3.529 3.529 0 0 0 .449 1.842 3.894 3.894 0 0 0 1.187 1.25 6.553 6.553 0 0 0 1.681.8q.946.306 1.94.531c.811.171 1.538.334 2.18.5a10.662 10.662 0 0 1 1.619.528 3.131 3.131 0 0 1 1.01.658 1.232 1.232 0 0 1 .351.879 1.7 1.7 0 0 1-.286 1.01 2.161 2.161 0 0 1-.722.642 3.422 3.422 0 0 1-.961.353 4.993 4.993 0 0 1-1.027.113 4.538 4.538 0 0 1-1.212-.161 3.111 3.111 0 0 1-1.047-.5 2.532 2.532 0 0 1-1.032-2.132h-4.1a5.843 5.843 0 0 0 .715 2.757 5.467 5.467 0 0 0 1.668 1.812 6.62 6.62 0 0 0 2.321.976 12.373 12.373 0 0 0 2.685.289 13.079 13.079 0 0 0 2.757-.289 7.229 7.229 0 0 0 2.42-.961 5.029 5.029 0 0 0 2.371-4.518 3.86 3.86 0 0 0-.449-1.938 4.1 4.1 0 0 0-1.184-1.314" transform="translate(-166.341 -17.273)" style="fill:#761527"/>
        <path data-name="패스 9326" d="M165.341 22.844a4.416 4.416 0 0 0-1.843-1.377 7.709 7.709 0 0 0-3-.5 5.846 5.846 0 0 0-2.629.672 5.444 5.444 0 0 0-2.21 2.083h-.1V15.1h-4.551v22.886h4.551V29.3a6.135 6.135 0 0 1 .833-3.635 3.148 3.148 0 0 1 2.692-1.107 2.488 2.488 0 0 1 2.259 1.011 5.678 5.678 0 0 1 .657 3.06v9.357h4.551V27.8a13.385 13.385 0 0 0-.273-2.8 5.308 5.308 0 0 0-.945-2.148" transform="translate(-88.865 -8.888)" style="fill:#761527"/>
        <path data-name="패스 9327" d="M249.563 39.131a6.143 6.143 0 0 1-.832 3.636 3.153 3.153 0 0 1-2.692 1.106 2.485 2.485 0 0 1-2.259-1.009 5.682 5.682 0 0 1-.656-3.061v-9.357h-4.552v10.191a13.282 13.282 0 0 0 .273 2.806 5.3 5.3 0 0 0 .944 2.144 4.446 4.446 0 0 0 1.842 1.381 7.755 7.755 0 0 0 3 .5 6.392 6.392 0 0 0 2.82-.672 5.39 5.39 0 0 0 2.243-2.084h.1v2.306h4.327V30.446h-4.552z" transform="translate(-140.387 -17.916)" style="fill:#761527"/>
        <path data-name="패스 9328" d="M342.072 17.923a8.638 8.638 0 0 0-3.2-2.115 11.118 11.118 0 0 0-3.994-.707H325.3v22.883h9.576a10.322 10.322 0 0 0 4.424-.884 8.835 8.835 0 0 0 3.141-2.42 10.248 10.248 0 0 0 1.88-3.653 16.255 16.255 0 0 0 .623-4.616 14.669 14.669 0 0 0-.763-4.967 9.8 9.8 0 0 0-2.114-3.525M339.6 30.1a5.934 5.934 0 0 1-1.244 2.131 4.5 4.5 0 0 1-1.773 1.17 6.023 6.023 0 0 1-2.052.354h-4.351V19.334h3.483a7.693 7.693 0 0 1 3.031.527 4.768 4.768 0 0 1 1.975 1.524 6.336 6.336 0 0 1 1.072 2.389 13.791 13.791 0 0 1 .324 3.122 9.676 9.676 0 0 1-.465 3.204" transform="translate(-191.423 -8.886)" style="fill:#761527"/>
        <path data-name="패스 9329" d="M209.668 42.687v-8.622a4.091 4.091 0 0 0-.653-2.4 4.475 4.475 0 0 0-1.68-1.443 7.389 7.389 0 0 0-2.27-.687 17.4 17.4 0 0 0-2.454-.177h-.217a11.572 11.572 0 0 0-2.317.271 6.831 6.831 0 0 0-2.23.914 5.187 5.187 0 0 0-1.641 1.7 5.6 5.6 0 0 0-.734 2.659h4.164a2.632 2.632 0 0 1 .835-1.921 2.971 2.971 0 0 1 1.922-.581 7.272 7.272 0 0 1 1.1.083 2.344 2.344 0 0 1 .9.321 1.714 1.714 0 0 1 .623.673 2.478 2.478 0 0 1 .233 1.168 1.325 1.325 0 0 1-.435 1.073 2.931 2.931 0 0 1-1.166.561 10.878 10.878 0 0 1-1.664.288c-.619.066-1.273.15-1.958.259a17.061 17.061 0 0 0-2 .433 5.613 5.613 0 0 0-1.758.816 3.9 3.9 0 0 0-1.242 1.456 5.078 5.078 0 0 0-.467 2.324 5.352 5.352 0 0 0 .42 2.213 4.155 4.155 0 0 0 1.165 1.537 5.026 5.026 0 0 0 1.741.914 7.232 7.232 0 0 0 2.145.3 9.393 9.393 0 0 0 2.923-.465 5.854 5.854 0 0 0 2.487-1.586 7.2 7.2 0 0 0 .107.816 6.779 6.779 0 0 0 .2.786h4.477a3.932 3.932 0 0 1-.434-1.538 17.769 17.769 0 0 1-.124-2.147m-4.415-2.725a8.776 8.776 0 0 1-.078 1.026 3.525 3.525 0 0 1-.419 1.267 2.971 2.971 0 0 1-1.058 1.073 3.8 3.8 0 0 1-2.019.449 5.332 5.332 0 0 1-1.026-.1 2.4 2.4 0 0 1-.871-.335 1.725 1.725 0 0 1-.592-.643 2.157 2.157 0 0 1-.217-1.042 2.273 2.273 0 0 1 .217-1.04 2.028 2.028 0 0 1 .575-.707 2.989 2.989 0 0 1 .826-.432 6.715 6.715 0 0 1 .994-.255q.5-.1 1.041-.161c.361-.044.7-.1 1.026-.161a6.908 6.908 0 0 0 .9-.239 2.008 2.008 0 0 0 .7-.4z" transform="translate(-114.488 -17.273)" style="fill:#761527"/>
        <path data-name="패스 9330" d="M73.77 36.6h.981v-5.977h2.979v16.945h-2.979v-8.116h-.981v7.937h-2.906V45.48l-6.778.357a1.986 1.986 0 0 1-1.489-.384 1.706 1.706 0 0 1-.526-1.364V30.8h7.812v2.854h-4.6v9.382l5.582-.322V30.623h2.905z" transform="translate(-36.526 -18.02)" style="fill:#052141"/>
        <path data-name="패스 9331" d="M105.385 31.057h3.215v2.372h8.024v-2.372h3.211v9.131a1.615 1.615 0 0 1-.4 1.1 1.325 1.325 0 0 1-1.042.456h-4.16V44.1h6.244v2.83h-15.716V44.1h6.258v-2.359h-4.209a1.3 1.3 0 0 1-1.033-.456 1.649 1.649 0 0 1-.392-1.115zm11.234 5.225H108.6v2.6h8.024z" transform="translate(-61.647 -18.276)" style="fill:#052141"/>
        <path data-name="패스 9332" d="M386.1 30.623v1.256h2.5v2.752h-2.563v.62c0 .091 0 .183-.009.275s-.015.183-.026.276a4.965 4.965 0 0 1 1.755 1.376 5.216 5.216 0 0 1 1.066 2.271l-2.925.722a3.067 3.067 0 0 0-.361-.99 2.322 2.322 0 0 0-.774-.816 5.826 5.826 0 0 1-1.729 1.152 9.251 9.251 0 0 1-2.571.687V37.3a4.3 4.3 0 0 0 1-.181 2.8 2.8 0 0 0 .818-.4 1.965 1.965 0 0 0 .558-.619 1.709 1.709 0 0 0 .207-.861v-.6h-2.53v-2.76h2.494v-1.256zm9.633 10.166V46.1a1.327 1.327 0 0 1-1.393 1.394h-11.488a1.316 1.316 0 0 1-1.023-.388 1.459 1.459 0 0 1-.353-1.024v-5.3zm-3.1 2.752h-8.067v1.2h8.067zm-.67-9.409h.9v-2.907h2.872v9.082h-2.872v-3.422h-.9v3.423h-2.752v-9.083h2.752z" transform="translate(-223.883 -18.02)" style="fill:#052141"/>
        <path data-name="패스 9333" d="m431.7 35.01-.671 8.945h1.91v2.752h-11.18v-2.751h1.428V35.01h-1.256v-2.752h10.837v2.752zm-5.59 8.945h1.995l.671-8.945h-2.666zm10.82 4.473h-3.1V32.086h3.1z" transform="translate(-248.184 -18.881)" style="fill:#052141"/>
        <path data-name="패스 9334" d="M469.27 41.477a7.954 7.954 0 0 1-1.986-.232 4.2 4.2 0 0 1-1.558-.739 3.415 3.415 0 0 1-1.015-1.291 4.511 4.511 0 0 1-.361-1.9v-1a4.535 4.535 0 0 1 .361-1.893 3.337 3.337 0 0 1 1.015-1.289 4.3 4.3 0 0 1 1.558-.732 7.994 7.994 0 0 1 1.986-.231 8.152 8.152 0 0 1 1.763.181 4.782 4.782 0 0 1 1.454.567 3.377 3.377 0 0 1 1.049.99 3.7 3.7 0 0 1 .568 1.445h1.996v-3.268h3.1V43.3h-3.1v-5.194h-1.961a3.922 3.922 0 0 1-.542 1.531 3.408 3.408 0 0 1-1.04 1.049 4.5 4.5 0 0 1-1.471.6 8.18 8.18 0 0 1-1.814.189m-.843 1.1V45.5h10.94v2.752h-12.731a1.24 1.24 0 0 1-1.015-.44 1.635 1.635 0 0 1-.361-1.075v-4.158zm.843-3.854a1.693 1.693 0 1 0-1.316-.463 1.873 1.873 0 0 0 1.316.463" transform="translate(-273.246 -18.88)" style="fill:#052141"/>
        <path data-name="패스 9335" d="M512.466 32.086v1.945q0 .394-.027.764a5.722 5.722 0 0 1-.094.714 5.523 5.523 0 0 1 1.333.482 5.217 5.217 0 0 1 1.256.895 5.683 5.683 0 0 1 1.007 1.307 5.083 5.083 0 0 1 .585 1.72l-3.028.878a3.518 3.518 0 0 0-.2-.766 2.972 2.972 0 0 0-.4-.73 2.579 2.579 0 0 0-.67-.61 3.435 3.435 0 0 0-1-.421 5.052 5.052 0 0 1-1.264 1.212 7.494 7.494 0 0 1-1.453.756 7.964 7.964 0 0 1-1.454.413 10.817 10.817 0 0 1-1.281.164V37.9a5.9 5.9 0 0 0 1.281-.214 3.234 3.234 0 0 0 1.162-.593 2.993 2.993 0 0 0 .834-1.11 4.307 4.307 0 0 0 .318-1.78v-2.117zm8.325 9.186v5.693a1.371 1.371 0 0 1-.386 1 1.35 1.35 0 0 1-1.007.4h-11.181a1.306 1.306 0 0 1-1.015-.4 1.449 1.449 0 0 1-.361-1.015v-5.678h3.1v.928h7.757v-.928zm-3.1 3.51h-7.757v1h7.757zm3.1-3.922h-3.1v-8.774h3.1z" transform="translate(-297.623 -18.881)" style="fill:#052141"/>
        <path data-name="패스 9336" d="M26.285.939c.05-.106.1-.217.157-.335H13.03l1.566.57h8.238l-.067.227a10.49 10.49 0 0 1-1.644 3.362 11.337 11.337 0 0 1-3.733 3.272 16.51 16.51 0 0 1-2.261 1.011 20.124 20.124 0 0 1-2.356.666l-.6.139.436-.437c.1-.1.186-.19.267-.279l.235-.271c.051-.061.1-.124.157-.2A6.455 6.455 0 0 0 14.3 6.692a7.577 7.577 0 0 0 .14-3.866l-.04-.164.161-.043a3.19 3.19 0 0 1 .4-.076 2.235 2.235 0 0 1 .289-.018c.1 0 .2.005.33.012a.145.145 0 0 0 .109-.045.157.157 0 0 0 .038-.121.776.776 0 0 0-.348-.564.944.944 0 0 0-.518-.137 2.154 2.154 0 0 0-.71.142 9.349 9.349 0 0 0-2.4 1.46l-.321.242a4.574 4.574 0 0 1-2.413 1.07c-.1 0-.2.009-.353.017a8.92 8.92 0 0 1-.507.019 2.6 2.6 0 0 1-.657-.073L7.316 4.5l.058-.181A5.523 5.523 0 0 1 13.03.608a1.402 1.402 0 0 0-.151-.065c-.1-.039-.2-.075-.3-.111-.2-.072-.409-.14-.61-.218a3.141 3.141 0 0 0-.675-.172A3.933 3.933 0 0 0 10.662 0a3.231 3.231 0 0 0-.94.147 5.566 5.566 0 0 0-.7.276A4.52 4.52 0 0 0 7.012 2.5a2.385 2.385 0 0 0-.273.891 4.3 4.3 0 0 0 .032 1.049c0-.022-.1-.068-.121-.078a2.4 2.4 0 0 0-.35-.168 2.6 2.6 0 0 0-1.251-.157 2.427 2.427 0 0 0-.69.186 2.152 2.152 0 0 0-.361.2 6.972 6.972 0 0 0-.876.78 3.657 3.657 0 0 1-1.328.997l-.071.023c-.067.018-.132.03-.205.042a2.168 2.168 0 0 1-.355.028A3.848 3.848 0 0 1 .057 6.1a.057.057 0 0 0-.042.1 4.042 4.042 0 0 0 1.366.847 5.032 5.032 0 0 0 .77.2 5.192 5.192 0 0 0 .909.077 6.5 6.5 0 0 0 2.307-.433 3.187 3.187 0 0 0 .525-.235.927.927 0 0 0 .084-.05l.051-.031A2.977 2.977 0 0 0 7.2 5l.054-.171.17.058c.1.033.156.055.227.082.056.021.116.044.222.079a4.251 4.251 0 0 0 1.287.2 6.116 6.116 0 0 0 3.869-1.684l.252-.225.042.335a8.447 8.447 0 0 1 .067 1.707v.09a4.811 4.811 0 0 1-.161.943l-.11.358a4.613 4.613 0 0 1-2.147 2.453l-.2.135-.128.088a5.074 5.074 0 0 1-.386.24l-.028.016c-.878.519-2.7 1.6-3.114 3.467-.015.07-.029.141-.04.216-.007.05-.012.1-.019.185s-.015.173-.019.267a6.648 6.648 0 0 0 1.72 4.074c.614.749 1.335 1.51 2.039 2.254a16.214 16.214 0 0 1 3.02 3.808A4.932 4.932 0 0 1 14.22 26a5.725 5.725 0 0 1-.113 1.073 6.572 6.572 0 0 1-.629 1.767c-.042.084-.126.233-.244.443l-.15.268H17.1a10.813 10.813 0 0 0-3.321-8.881 35.527 35.527 0 0 0-1.819-1.573 25.342 25.342 0 0 1-2.506-2.257 4.525 4.525 0 0 1-1.177-1.921 2.347 2.347 0 0 1 .24-1.67A3.621 3.621 0 0 1 9.82 12.01c.122-.066.25-.13.4-.2l.031-.015c.7-.328 1.431-.58 1.512-.608a68.197 68.197 0 0 0 1.94-.657c.014 0 1.554-.538 3.216-1.258a17.756 17.756 0 0 0 1.8-.848c.293-.159.591-.329.889-.5A17.7 17.7 0 0 0 26.285.939" style="fill:#002043"/>
        <path data-name="패스 9337" d="M263.879 30.407a15.449 15.449 0 0 0 13.069-8.734 14.215 14.215 0 0 0 1.121-5.548c0-7.876-6.407-14.659-14.284-14.659H65.578l-.885 1.618h199.092c6.241 0 11.438 4.912 12.474 10.861v.017a12.715 12.715 0 0 1 .189 2.164c0 .378-.019.751-.051 1.121a13.182 13.182 0 0 1-2.927 7.657 13.277 13.277 0 0 1-9.687 5.506h.094" transform="translate(-38.069 -.862)" style="fill:#002043"/>
    </g>
</svg>
